<svg id="Layer_1" data-name="Layer 1" xmlns="http://www.w3.org/2000/svg" viewBox="0 0 800 514"><defs><style>.cls-1{fill:#d7e1fc;}.cls-2{fill:#414883;}.cls-3{fill:#eef4ff;}.cls-4{fill:#000543;}.cls-5{fill:#dceaf9;}.cls-6{fill:#ffac27;}.cls-7{fill:#cbd8fc;}.cls-8{fill:none;}</style></defs><title>cama</title><path class="cls-1" d="M518.81,166.82c76-13.87,107.61,16.29,107.61,16.29l14.85,33.73c7.52,20.65-18.21,49.93-37.7,53.49L443,299.68c-2.35.43-19.06-115.54-19.06-115.54Z"/><path class="cls-2" d="M0,298.26v-8.9c0-12.42,10.55-22.52,23.53-22.52H556.39a23.07,23.07,0,0,1,14.08-19.42l193.32-79.93a23,23,0,0,1,30,12.45l4.53,11a23,23,0,0,1-12.45,29.94l-186.4,77.06v.34c0,12.42-10.56,22.53-23.53,22.53H23.53C10.55,320.79,0,310.68,0,298.26ZM766.73,174.61,573.41,254.53a15.34,15.34,0,0,0-9.31,15.75l.46,4.26h-541c-8.73,0-15.83,6.65-15.83,14.82v8.9c0,8.18,7.1,14.83,15.83,14.83H575.89c8.73,0,15.83-6.65,15.83-14.83v-5.48l191.16-79a15.26,15.26,0,0,0,8.27-19.89l-4.53-11a15.24,15.24,0,0,0-19.89-8.27Z"/><path class="cls-3" d="M714.94,197.63,726,160.18l-68-30.59-35.89,47.12-17.23,13.42A9,9,0,0,0,602.71,202c9.91,16.17,26.65,21,38.56,14.82l21.66-17.09c5.15-2.95,19.23-4.35,25.15-3.95Z"/><path class="cls-3" d="M736.52,129.35,721.37,94.64l-39.54,7.52a12.8,12.8,0,0,0-5.77,3.33l-2.62,2.37a16.13,16.13,0,0,1-9.33,4.13,73.65,73.65,0,0,0-10.27,1.61c-2.46.58-10.52,2.56-16.32,4a6.27,6.27,0,0,0-3.84,2.84,5.54,5.54,0,0,0-.62,4.55c1.09,3.47,2.21,7.21,2,7.29l-5.93,2.64a2.51,2.51,0,0,0-1.18,1l-1.13,1.82-1.92.24a2.46,2.46,0,0,0-1.59.9l-1.83,2.31-5.23,2.9a12,12,0,0,0-5.74,7.24A10,10,0,0,0,612,159.9l5.69,7.83,17.89,18.65a7.39,7.39,0,0,0,5.17,2.21l27.22.57a35.7,35.7,0,0,0,9.4-1.06l24.84-6.19a37.61,37.61,0,0,0,7.41-2.7l38.84-18.93Z"/><path class="cls-4" d="M694.1,130.63a1.2,1.2,0,0,0,1.25-1.21l-.05-7.36a12,12,0,0,0-3.07-8l-7.63-8.51a2.21,2.21,0,0,0-1.88-.74,2.25,2.25,0,0,0-1.69,1.08l-.68,1.14a2.45,2.45,0,0,0,.56,3.14l5.89,4.84a13.25,13.25,0,0,1,4.77,8.92l.51,5.23a1.56,1.56,0,0,0,1.51,1.42Z"/><path class="cls-4" d="M751.35,181.89c16.93-16.64,15.3-30.92,14.27-36.71-3.54-19.91-25.59-41.84-15.69-63,1.74-3.72-27.69-14.06-36.56,5.2-1.61,3.48.8,8.51.8,8.51l15.63,21.34a15.2,15.2,0,0,1-4.07,22.13c-6.47,4-10.31,10.67-12.13,14.56a12.83,12.83,0,0,1-5.78,6,28.21,28.21,0,0,1-9.94,2.94l-.43,0c-1.65.93-2.88,2.13-1,3.26.44.26,13,2.07,16.15,8,4.14,7.7-14.8,12.48-24.44,14.37a12,12,0,0,0-8.14,5.87l-1.22,2.16a1.38,1.38,0,0,0,1.23,2.07c4.68-.08,14.87-.21,18.92-.08C719.21,199.19,740.16,192.9,751.35,181.89Z"/><path class="cls-3" d="M635.69,146.56a2.35,2.35,0,0,0-.28-3.31l-.46-.38a44.22,44.22,0,0,1-6.59-7.4,2.07,2.07,0,0,0-.39.45l-1.13,1.82-1.93.24a2.47,2.47,0,0,0-.83.28,43.62,43.62,0,0,0,7.85,8.21l.44.38A2.35,2.35,0,0,0,635.69,146.56Z"/><path class="cls-3" d="M714.31,178.55a4,4,0,0,0,1.12-3.25,4,4,0,0,0-1.8-2.93l-.45-.3c-3.38-2.22-9.62-3.32-11.44-1.45-7,7.25-12.22,8.76-15.79,8.31a5.39,5.39,0,0,0-5.8,3.73,3.47,3.47,0,0,0,.94,3.58l.69.65c3.66,1.78,6.08,1.48,11.66-.12l4.53-.42A26.18,26.18,0,0,0,714.31,178.55Z"/><path class="cls-3" d="M695.49,176.89s5.52-4.57,7.53-1.48,0,6.28-4.18,6.61-7.23,1.72-9,.27-1.67-2.69,1.88-3.17S695.49,176.89,695.49,176.89Z"/><path class="cls-3" d="M693.33,174.37s.28,3.36,2.77,3.39,2.16,3.82-2.38,3.71-5.16-2.34-9.1-2.55S693.33,174.37,693.33,174.37Z"/><polygon class="cls-5" points="467.23 285.43 466.63 282.44 467.23 282.44 467.23 285.43"/><path class="cls-5" d="M44.58,177.92A15.39,15.39,0,0,1,57,184.21L65.6,196a71.4,71.4,0,0,0,69.24,28.28l302.7-50a7.36,7.36,0,0,1,8.43,5.82l20.65,102.32H42.79a9,9,0,0,1-9-9V188.67A10.75,10.75,0,0,1,44.58,177.92Z"/><path class="cls-6" d="M609.44,232.66a8.82,8.82,0,1,0,1,12.42A8.81,8.81,0,0,0,609.44,232.66Z"/><path class="cls-3" d="M380.85,270.66l-6.19-1.21a3.51,3.51,0,0,1-.18-6.86h0a1.26,1.26,0,0,0-.62-2.13,3.52,3.52,0,0,1-2.78-4.13,3.48,3.48,0,0,1,3.61-2.81v0c1.43-1-.13-1.76-.13-1.76v0a3.5,3.5,0,0,1,.83-6.81v0a1.33,1.33,0,0,0,.66-2.24h0a3.52,3.52,0,0,1,3.12-6c3.34.18,2.28-2.58,2.28-2.58h0a3.35,3.35,0,0,1-.34-2.28,3.5,3.5,0,0,1,4.11-2.78l5.83,1.14c23.24,2.16,18.73,8.82,22.14,12.77,2,2.3,6.43,3.88,9.79,4.82,2.43.67,41.08,6.85,41.08,6.85s-3.9,22.88-4.88,27.85c-1.87-.44-39.85-11.81-41.31-12.09-11.54-2.11-11.08.21-17,2.78C396,275.22,385.9,272.35,380.85,270.66Z"/><path class="cls-7" d="M513,278.73a19,19,0,0,0-14.68-22.5l-4.84-1c9.69-3.77,33.28-13,57.87-22.73,9.81-3.9,65-32,78-3.12,8.31,18.44-8.49,31.51-27.61,37.29C577.45,274,504.17,292,498.35,293.38A19,19,0,0,0,513,278.73Z"/><path class="cls-7" d="M497.94,293.48H498Z"/><path class="cls-7" d="M411.56,272.9,417.84,243a3.73,3.73,0,0,1,4.41-2.88l71.19,15.1,4.84,1a19,19,0,0,1,.07,37.15l-.35.08h-.06a18.86,18.86,0,0,1-7.48-.07l-76-16.1A3.71,3.71,0,0,1,411.56,272.9Z"/><path class="cls-8" d="M576,354.17V358l-35.38,14.32a23.78,23.78,0,0,1-11,1.73l-.29,0-.3,0c-.67.05-1.34.11-2,.11H207.55V354.17Z"/><path class="cls-8" d="M494.3,436.81a153.12,153.12,0,0,1-53.82,9.74H343.1a153.13,153.13,0,0,1-53.83-9.74L262,426.6H521.56Z"/><path class="cls-8" d="M529.33,381.71a31.15,31.15,0,0,0,14.22-2.29L576,366.28V395a15.54,15.54,0,0,1-.55,4H208.1a16,16,0,0,1-.55-4V381.82H527C527.79,381.82,528.56,381.77,529.33,381.71Z"/><path class="cls-2" d="M576,395V366.28l7.7-3.12V395a22.83,22.83,0,0,1-.35,4h-7.9A15.54,15.54,0,0,0,576,395Z"/><path class="cls-2" d="M207.55,395a16,16,0,0,0,.55,4h-7.9a23.84,23.84,0,0,1-.35-4V381.82h7.7Z"/><path class="cls-2" d="M289.27,436.81a153.13,153.13,0,0,0,53.83,9.74h97.38a153.12,153.12,0,0,0,53.82-9.74l27.26-10.21h22L497,444a160.7,160.7,0,0,1-56.52,10.23H343.1A160.72,160.72,0,0,1,286.57,444L240.05,426.6h22Z"/><path class="cls-2" d="M529,374l.3,0,.29,0a23.78,23.78,0,0,0,11-1.73L576,358v8.31l-32.47,13.14a31.15,31.15,0,0,1-14.22,2.29c-.77.06-1.54.11-2.32.11H207.55v-7.7H527C527.7,374.12,528.37,374.06,529,374Z"/><path class="cls-2" d="M33.29,292.18H519.2a34.31,34.31,0,0,1,15.22,3.57l205.37-83.12a31.83,31.83,0,0,1,41.52,17.27L788,246a31.84,31.84,0,0,1-17.3,41.53L583.72,363.16v-8.3l184-74.48a24.12,24.12,0,0,0,13.09-31.47l-6.64-16.07a24.12,24.12,0,0,0-31.49-13.08L533.92,304.25l-1.62-.91a26.53,26.53,0,0,0-13.1-3.46H33.29C19.18,299.88,7.7,310.69,7.7,324v26c0,13.28,11.48,24.1,25.59,24.1H199.85v7.7H33.29C14.94,381.82,0,367.55,0,350V324C0,306.44,14.94,292.18,33.29,292.18Z"/><rect class="cls-2" x="199.85" y="374.12" width="7.7" height="7.7"/><polygon class="cls-2" points="576.02 357.97 583.72 354.86 583.72 363.16 576.02 366.28 576.02 357.97"/><polygon class="cls-2" points="521.56 426.6 262.01 426.6 241.44 418.9 542.12 418.9 521.56 426.6"/><path class="cls-2" d="M125.62,406.68a29.49,29.49,0,0,0-29.46,29.46V437a38.17,38.17,0,0,0-7.7,2.07v-3A37.2,37.2,0,0,1,125.62,399H200.2a24.09,24.09,0,0,0,2.74,7.7Z"/><path class="cls-2" d="M571,406.68H212.62a16.24,16.24,0,0,1-4.52-7.7H575.47A16.22,16.22,0,0,1,571,406.68Z"/><path class="cls-2" d="M108.38,436.14a17.26,17.26,0,0,1,17.24-17.24h93.87l20.56,7.7H125.62a9.56,9.56,0,0,0-9.55,9.54v3a38.08,38.08,0,0,0-7.69-2.07Z"/><path class="cls-2" d="M667.19,439.21v8.43a30.95,30.95,0,1,0,27.62-.29V439a38.62,38.62,0,1,1-27.62.23Z"/><path class="cls-2" d="M681.3,444.2a30.85,30.85,0,0,0-6.41.68v-7.8a38.78,38.78,0,0,1,6.41-.58,39.71,39.71,0,0,1,5.81.48v7.78A31.7,31.7,0,0,0,681.3,444.2Z"/><path class="cls-2" d="M687.11,436.14a29.5,29.5,0,0,0-29.46-29.46h-77a23.62,23.62,0,0,0,2.74-7.7h74.28a37.2,37.2,0,0,1,37.16,37.16V439a38.71,38.71,0,0,0-7.7-2Z"/><path class="cls-2" d="M667.19,436.14a9.55,9.55,0,0,0-9.54-9.54H543.52l20.56-7.7h93.57a17.26,17.26,0,0,1,17.24,17.24v.94a38.29,38.29,0,0,0-7.7,2.13Z"/><path class="cls-2" d="M687.11,444.76V437a38.71,38.71,0,0,1,7.7,2v8.37A30.64,30.64,0,0,0,687.11,444.76Z"/><path class="cls-2" d="M667.19,447.64v-8.43a38.29,38.29,0,0,1,7.7-2.13v7.8A30.47,30.47,0,0,0,667.19,447.64Z"/><path class="cls-2" d="M212.62,406.68h-9.68a24.09,24.09,0,0,1-2.74-7.7h7.9A16.24,16.24,0,0,0,212.62,406.68Z"/><polygon class="cls-2" points="542.12 418.9 564.08 418.9 543.52 426.6 521.56 426.6 542.12 418.9"/><polygon class="cls-2" points="241.44 418.9 262.01 426.6 240.05 426.6 219.49 418.9 241.44 418.9"/><path class="cls-2" d="M571,406.68a16.22,16.22,0,0,0,4.51-7.7h7.9a23.62,23.62,0,0,1-2.74,7.7Z"/><path class="cls-2" d="M71.33,475.13a30.94,30.94,0,1,0,44.74-27.64V439.1a38.63,38.63,0,1,1-27.61,0v8.39A30.94,30.94,0,0,0,71.33,475.13Z"/><path class="cls-2" d="M108.38,437v7.78a30.91,30.91,0,0,0-12.22,0V437a35.48,35.48,0,0,1,12.22,0Z"/><path class="cls-2" d="M108.38,444.81V437a38.08,38.08,0,0,1,7.69,2.07v8.39A30.75,30.75,0,0,0,108.38,444.81Z"/><path class="cls-2" d="M96.16,444.81a30.69,30.69,0,0,0-7.7,2.68V439.1a38.17,38.17,0,0,1,7.7-2.07Z"/><path class="cls-7" d="M605.41,117.59s-20.53,12.64-5.68,20.15c0,0,38.84,9.72,55.34.74,0,0,18.32-15.95,1.28-22,0,0-16.31-8.62-20.34-8.62l-3.12,5.87-.18,3.48Z"/><path class="cls-2" d="M636.11,146.59h0a166.77,166.77,0,0,1-19.16-1.06c-10.92-1.35-18.18-3.93-22.21-7.9a11.41,11.41,0,0,1-3.64-8.36c0-5.1,2.89-10,8.35-14.2l4.18,5.46c-2.58,2-5.65,5.1-5.65,8.74a4.65,4.65,0,0,0,1.58,3.46c2,2,6.74,4.56,18.23,6a159.33,159.33,0,0,0,18.34,1c6.87,0,22.64-4.59,24.64-10a3,3,0,0,0-.1-2.37c-4.16-10.16-20.45-15.7-27.66-15.7v-6.87c9.28,0,28.57,6.67,34,20a10,10,0,0,1,.19,7.36C663.21,142.85,641.43,146.59,636.11,146.59Z"/><path class="cls-2" d="M665.58,128.11a2.65,2.65,0,0,0-1.25.32l.55,1,.83-1.32Z"/><path class="cls-2" d="M636.41,121.23H573.24V104.76h63.17Zm-56.3-6.87h49.42v-2.73H580.11Z"/><rect class="cls-2" x="620.09" y="108.2" width="6.87" height="9.6"/><rect class="cls-2" x="582.16" y="108.2" width="6.87" height="9.6"/><rect class="cls-2" x="587.36" y="108.2" width="6.87" height="9.6"/><rect class="cls-2" x="559.29" y="107.37" width="17.38" height="6.87"/><rect class="cls-2" x="559.29" y="111.64" width="17.38" height="6.87"/><path class="cls-2" d="M510.12,66.13h-90.4A14.24,14.24,0,0,1,405.49,51.9V14.47A14.24,14.24,0,0,1,419.72.24h90.4a14.25,14.25,0,0,1,14.24,14.23V51.9A14.25,14.25,0,0,1,510.12,66.13Zm-90.4-59a7.37,7.37,0,0,0-7.36,7.36V51.9a7.37,7.37,0,0,0,7.36,7.36h90.4a7.37,7.37,0,0,0,7.36-7.36V14.47a7.37,7.37,0,0,0-7.36-7.36Z"/><path class="cls-2" d="M469,36.62H423.65v-23H469Zm-38.51-6.87h31.64V20.48H430.52Z"/><path class="cls-2" d="M493.17,34.27a9.16,9.16,0,1,1,9.15-9.16A9.17,9.17,0,0,1,493.17,34.27Zm0-11.44a2.29,2.29,0,1,0,2.28,2.28A2.29,2.29,0,0,0,493.17,22.83Z"/><rect class="cls-2" x="423.93" y="42.66" width="7.59" height="6.87"/><rect class="cls-2" x="436.32" y="42.66" width="7.59" height="6.87"/><rect class="cls-2" x="448.72" y="42.66" width="7.59" height="6.87"/><rect class="cls-2" x="461.11" y="42.66" width="7.59" height="6.87"/><path class="cls-2" d="M559.29,116.43H454a15.56,15.56,0,0,1-15.55-15.54v-2A15.57,15.57,0,0,1,454,83.39h76.75a8.68,8.68,0,0,0,8.67-8.67V58.2c0-4.7-3-8.67-6.53-8.67h-10V42.66h10c7.39,0,13.4,7,13.4,15.54V74.72a15.56,15.56,0,0,1-15.54,15.55H454a8.68,8.68,0,0,0-8.68,8.67v2a8.68,8.68,0,0,0,8.68,8.67H559.29Z"/><path class="cls-4" d="M680,128.65a1,1,0,0,1-.59-.19c-6-4.45-6.26-12.52-6.26-12.87a1,1,0,0,1,1-1h0a1,1,0,0,1,1,1c0,.07.25,7.46,5.46,11.32a1,1,0,0,1-.58,1.78Z"/><path class="cls-2" d="M107.29,284.5h-.11l-1.51-47.37c-.46-13.37-.84-24.73-1-32.27l128.25,1.58v.28c.12,8.36.45,25.25.87,45.36h0v.51c0,1.88.08,3.77.12,5.7h0l.16,10.78h.13c.29,13.25.64,27.21,1,40.62.77,30.32,1.54,58,2.08,68.79a5.56,5.56,0,0,0,1.54,3.57l7.83-.26a5.31,5.31,0,0,0,1.38-3.82c-.55-11-1.35-38.47-2.08-68.54-.15-5.62-.29-11.34-.43-17.06h-.12l-1.22-58.51h0c-.24-12-.42-21.6-.5-27.27v0l128.83,1.54c.16,9.15.87,26.22,1.67,46.27l.09,2h-.09l.42,10.75h.09c1.8,44.21,3.75,97,2.12,110.5l10.86-.35c1.39-16.19-.48-67.29-2.23-110.38h.05L385,256.12h0l-.09-2.15c-.81-19.9-1.48-36.87-1.67-45.73l102.14,1.23v-.1l26.76-.12,2.66,40.84h0l.12,2.19.2,3.05h0l.71,12.67c2.15,24.63,4,49.18,2.13,80.94-.13,2.09-.1,5.14,0,8.57.09,6.05.2,13.38-.66,17.07l10.87-.19a119.15,119.15,0,0,0,.51-17c0-3.08-.06-5.87,0-7.83,1.88-30.61.29-54.39-1.69-77.84l-.16-.08L525.27,256h0l-.07-1.29-.59-6.06.27,0-.25-4.74c-.83-10.84-1.52-22-1.78-34l24.6.29,1,.45c2.18,1,3.53,1.54,3.53,5.49v5.52a5.39,5.39,0,1,0,10.78,0v-5.52c0-10.94-3.82-12.64-10-15.34L551,200l-1.09-.52-17.1-.18v0L502.14,199c-140-1.22-281.86-.75-420.95-5.22-10.37-.38-23.91-.86-24.93,18.87a5.38,5.38,0,1,0,10.74.55c.45-9.15,8-8.86,13.8-8.67,4.37.13,8.73.16,13.06.19,0,0,6.2,147.3,4,176.16l10.75.13C109.63,365.22,108.56,324.13,107.29,284.5Z"/></svg>