<svg id="Layer_1" data-name="Layer 1" xmlns="http://www.w3.org/2000/svg" viewBox="0 0 1200 1200"><defs><style>.cls-1{fill:#91b4de;}</style></defs><title>ico-hosp</title><path class="cls-1" d="M1177.8,1192H919.53a22.4,22.4,0,0,1-5.53-.69,22.4,22.4,0,0,1-5.53.69H292a22.4,22.4,0,0,1-5.53-.69,22.4,22.4,0,0,1-5.53.69H22.7A22.45,22.45,0,0,1,.25,1169.53V501.86A22.45,22.45,0,0,1,22.7,479.41H269.58V273.29A22.45,22.45,0,0,1,292,250.84H420.89a187.19,187.19,0,0,1-8.16-54.8c0-103.4,84.12-187.52,187.52-187.52S787.78,92.64,787.78,196a187.19,187.19,0,0,1-8.16,54.8H908.47a22.45,22.45,0,0,1,22.45,22.45V479.41H1177.8a22.45,22.45,0,0,1,22.45,22.45v667.67A22.45,22.45,0,0,1,1177.8,1192Zm-246.88-44.9h224.43V524.31H930.92Zm-141.42,0H886V295.74H768.07a22.21,22.21,0,0,1-8.1-1.51,187.43,187.43,0,0,1-319.43,0,22.26,22.26,0,0,1-8.11,1.51H314.48v851.34H411V974.2a22.45,22.45,0,0,1,22.45-22.45H767.05A22.45,22.45,0,0,1,789.5,974.2Zm-166.8,0H744.6V996.65H622.7Zm-166.79,0H577.8V996.65H455.91Zm-410.76,0H269.58V524.31H45.15ZM600.25,53.42c-78.64,0-142.62,64-142.62,142.62s64,142.63,142.62,142.63,142.63-64,142.63-142.63S678.9,53.42,600.25,53.42Zm488.6,991H1003.9A22.45,22.45,0,0,1,981.45,1022V947.59a22.45,22.45,0,0,1,22.45-22.45h84.95a22.45,22.45,0,0,1,22.45,22.45V1022A22.45,22.45,0,0,1,1088.85,1044.4Zm-62.5-44.91h40.05V970h-40.05ZM196.61,1044.4h-85A22.46,22.46,0,0,1,89.2,1022V947.59a22.46,22.46,0,0,1,22.46-22.45h85a22.45,22.45,0,0,1,22.45,22.45V1022A22.45,22.45,0,0,1,196.61,1044.4Zm-62.5-44.91h40V970h-40Zm631.31-113.3H435.08a22.45,22.45,0,0,1-22.45-22.45V789.38a22.45,22.45,0,0,1,22.45-22.45H765.42a22.45,22.45,0,0,1,22.45,22.45v74.36A22.45,22.45,0,0,1,765.42,886.19Zm-307.89-44.9H743V811.83H457.53Zm631.32,44.89h-85a22.45,22.45,0,0,1-22.45-22.45V789.38a22.46,22.46,0,0,1,22.45-22.46h85a22.46,22.46,0,0,1,22.45,22.46v74.35A22.45,22.45,0,0,1,1088.85,886.18Zm-62.51-44.9h40.06V811.83h-40.06Zm-829.73,44.9h-85A22.45,22.45,0,0,1,89.2,863.73V789.38a22.46,22.46,0,0,1,22.45-22.46h85a22.46,22.46,0,0,1,22.45,22.46v74.35A22.45,22.45,0,0,1,196.61,886.18Zm-62.5-44.9h40V811.83h-40ZM1088.85,728H1003.9a22.45,22.45,0,0,1-22.45-22.45V631.16a22.45,22.45,0,0,1,22.45-22.45h84.95a22.45,22.45,0,0,1,22.45,22.45v74.36A22.45,22.45,0,0,1,1088.85,728Zm-62.5-44.9h40.05V653.61h-40.05ZM765.42,728H435.08a22.45,22.45,0,0,1-22.45-22.45V631.17a22.46,22.46,0,0,1,22.45-22.46H765.42a22.46,22.46,0,0,1,22.45,22.46v74.35A22.45,22.45,0,0,1,765.42,728Zm-307.89-44.9H743V653.62H457.53ZM196.6,728H111.65A22.45,22.45,0,0,1,89.2,705.52V631.16a22.45,22.45,0,0,1,22.45-22.45H196.6a22.45,22.45,0,0,1,22.45,22.45v74.36A22.45,22.45,0,0,1,196.6,728Zm-62.5-44.9h40.05V653.61H134.1Zm631.32-118.4H435.08a22.45,22.45,0,0,1-22.45-22.45V467.87a22.46,22.46,0,0,1,22.45-22.46H765.42a22.46,22.46,0,0,1,22.45,22.46v74.35A22.45,22.45,0,0,1,765.42,564.67Zm-307.89-44.9H743V490.32H457.53ZM600.25,298.2a22.46,22.46,0,0,1-22.45-22.46V218.5H520.55a22.46,22.46,0,0,1,0-44.91H577.8V116.35a22.45,22.45,0,0,1,44.9,0v57.24H680a22.46,22.46,0,0,1,0,44.91H622.7v57.24A22.46,22.46,0,0,1,600.25,298.2Z"/></svg>