<svg id="Layer_1" data-name="Layer 1" xmlns="http://www.w3.org/2000/svg" viewBox="0 0 1200 1200"><defs><style>.cls-1{fill:#414883;}</style></defs><title>ico-home</title><path class="cls-1" d="M986.16,1182.27H224.53a24.37,24.37,0,0,1-24.37-24.37V610.82l-73.91,65.85a24.38,24.38,0,0,1-34.42-2l-85.42-96a24.34,24.34,0,0,1-5.62-21.3,24.33,24.33,0,0,1,7.6-23.27L200.16,362.81V42.73a24.38,24.38,0,0,1,24.37-24.38H383.42a24.38,24.38,0,0,1,24.37,24.38V177.38L578.92,24.55a24.35,24.35,0,0,1,21.33-5.66,24.32,24.32,0,0,1,21.33,5.66l570.53,509.53a24.33,24.33,0,0,1,7.6,23.27,24.34,24.34,0,0,1-5.62,21.3l-85.42,96a24.38,24.38,0,0,1-34.42,2l-63.72-56.76v538A24.37,24.37,0,0,1,986.16,1182.27Zm-737.25-48.75H961.79v-557L600.25,254.39,247.9,568.29a24.59,24.59,0,0,1,1,7ZM600.25,197.38a24.31,24.31,0,0,1,16.21,6.18l472,420.49,58-65.14c0-.1,0-.21,0-.31l-545.27-487c-.58,0-1.18,0-1.77,0l-197.1,176a24.71,24.71,0,0,1-5.6,5L245.13,388a24.47,24.47,0,0,1-10,8.9L54.1,558.6c0,.11,0,.21,0,.31l58,65.14L584,203.56A24.29,24.29,0,0,1,600.25,197.38ZM248.91,67.1V319.28l110.14-98.37V67.1ZM719.52,948.3H480.3a59.45,59.45,0,0,1-59.37-59.41V649.7a59.45,59.45,0,0,1,59.37-59.4H719.52a59.45,59.45,0,0,1,59.38,59.4V888.89A59.46,59.46,0,0,1,719.52,948.3Zm-95.68-48.75h95.68a10.79,10.79,0,0,0,10.64-10.66V774.6l-105-.63ZM469.67,773V888.89a10.66,10.66,0,0,0,10.63,10.66h94.79l1.35-125.87Zm0-48.74,260.49,1.56V649.7A10.79,10.79,0,0,0,719.52,639H480.3a10.79,10.79,0,0,0-10.63,10.66Z"/></svg>