<svg id="Layer_1" data-name="Layer 1" xmlns="http://www.w3.org/2000/svg" viewBox="0 0 1200 550.55"><defs><style>.cls-1{fill:#5e2f7e;}.cls-2{fill:#29aae1;}</style></defs><title>logo-dw</title><path class="cls-1" d="M163.6,102.36v22.7a123.42,123.42,0,0,1-1.69,20.73A74.29,74.29,0,0,1,155.84,165,64.84,64.84,0,0,1,142.73,183a61.71,61.71,0,0,1-24.39,15.09,93.6,93.6,0,0,1-29.76,4.65H14.13V2H88.58a93.6,93.6,0,0,1,29.76,4.65,61.71,61.71,0,0,1,24.39,15.09,64.7,64.7,0,0,1,13.11,18,74.34,74.34,0,0,1,6.07,19.17,123.6,123.6,0,0,1,1.69,20.73Zm-49.35,0q0-12.69-.29-20.58t-.84-12.55a28.51,28.51,0,0,0-1.69-7.34,24.75,24.75,0,0,0-2.54-4.65A25.71,25.71,0,0,0,100,49.06Q94.51,46,85.2,46H63.48V158.77H85.2q9.3,0,14.8-3.11a25.52,25.52,0,0,0,8.89-8.18,45.49,45.49,0,0,0,2.54-4.65,24.54,24.54,0,0,0,1.69-7.19q.55-4.78.84-12.69T114.25,102.36Z"/><path class="cls-1" d="M197.72,202.76V2h49.35V202.76Z"/><path class="cls-1" d="M422.47,141.17q0,15.26-6.2,27.12a59.28,59.28,0,0,1-16.78,19.92,74.64,74.64,0,0,1-24.68,12.15,107,107,0,0,1-29.89,4.09,150,150,0,0,1-42-5.5q-18.88-5.49-34.12-21l31.58-31.58a42.6,42.6,0,0,0,20.31,11,100.29,100.29,0,0,0,24.53,3.11q28.77,0,28.77-18.05,0-7.62-4-11.85-4.23-4.23-13.25-5.35l-24.26-3.39q-26.79-3.94-40.32-17.76Q278.36,90,278.37,63.73a62.52,62.52,0,0,1,5.07-25.38,57.83,57.83,0,0,1,14.53-20A68,68,0,0,1,321,5.07,91.93,91.93,0,0,1,351.69.28q21.71,0,38.21,5.46a74.8,74.8,0,0,1,29.47,18.35l-31,30.9a34.22,34.22,0,0,0-10.15-7.2,54.88,54.88,0,0,0-10.44-3.52,44.36,44.36,0,0,0-9.58-1.13h-7.9a31.39,31.39,0,0,0-11,1.7,23,23,0,0,0-7.47,4.37,17.24,17.24,0,0,0-4.37,5.94A16.37,16.37,0,0,0,326,61.78a14.65,14.65,0,0,0,.84,4.53,12.44,12.44,0,0,0,3.11,4.8,20.76,20.76,0,0,0,5.21,3.67,24.29,24.29,0,0,0,8.6,2.26l24.26,3.39q26.51,3.67,39.48,16.67A43.91,43.91,0,0,1,419.09,116,85.46,85.46,0,0,1,422.47,141.17Z"/><path class="cls-1" d="M541.76,46v156.8H492.41V46H443.06V2H591.11V46Z"/><path class="cls-1" d="M721.4,202.76,685.86,128H669.23v74.73H619.87V2H699.4Q716,2,728.87,7.47A65.58,65.58,0,0,1,750.44,22a59.72,59.72,0,0,1,13.12,20.59,67.34,67.34,0,0,1,4.37,24,58.55,58.55,0,0,1-2.82,18.61,55.52,55.52,0,0,1-7.48,15,54.49,54.49,0,0,1-10.57,11.14A78,78,0,0,1,735.22,119l43.43,83.76ZM718.58,66.55a20.4,20.4,0,0,0-5.64-14.1q-5.66-6.21-15.8-6.21H669.23V86.85h27.91q10.15,0,15.8-6.2A20.4,20.4,0,0,0,718.58,66.55Z"/><path class="cls-1" d="M803.74,202.76V2h49.35V202.76Z"/><path class="cls-1" d="M980.56,46v156.8H931.21V46H881.86V2h148.05V46Z"/><path class="cls-1" d="M1199.4,102.36q0,11.28-.14,22.14a128.26,128.26,0,0,1-2,21,79.58,79.58,0,0,1-6.06,19.32,59.29,59.29,0,0,1-12.13,17.06,78.69,78.69,0,0,1-24.25,16.78q-13.26,5.78-31.87,5.78t-31.86-5.78a78.73,78.73,0,0,1-24.26-16.78,59.26,59.26,0,0,1-12.12-17.06,79.6,79.6,0,0,1-6.07-19.32,127.18,127.18,0,0,1-2-21q-.15-10.86-.14-22.14t.14-22.13a127.08,127.08,0,0,1,2-21,79.6,79.6,0,0,1,6.07-19.32,59.26,59.26,0,0,1,12.12-17.06,78.56,78.56,0,0,1,24.26-16.78Q1104.36.29,1123,.28t31.87,5.78a78.52,78.52,0,0,1,24.25,16.78,59.29,59.29,0,0,1,12.13,17.06,79.58,79.58,0,0,1,6.06,19.32,128.16,128.16,0,0,1,2,21Q1199.4,91.09,1199.4,102.36Zm-49.35,0q0-13.81-.57-22.42t-1.41-13.82a29.18,29.18,0,0,0-2.25-8,35,35,0,0,0-3.1-5.08,22.49,22.49,0,0,0-7.9-6.2,28.89,28.89,0,0,0-23.69,0,22.31,22.31,0,0,0-7.9,6.2,34.12,34.12,0,0,0-3.1,5.08,28.83,28.83,0,0,0-2.25,8q-.86,5.23-1.42,13.82t-.56,22.42q0,13.83.56,22.28t1.42,13.68a28.82,28.82,0,0,0,2.25,8,33.5,33.5,0,0,0,3.1,5.07,23.65,23.65,0,0,0,7.9,6.35,27.52,27.52,0,0,0,23.69,0,23.85,23.85,0,0,0,7.9-6.35,34.33,34.33,0,0,0,3.1-5.07,29.16,29.16,0,0,0,2.25-8q.84-5.22,1.41-13.68T1150.05,102.36Z"/><polyline class="cls-2" points="0.6 227.13 0.6 439.45 603.27 439.45 544.94 227.52"/><path class="cls-1" d="M36.69,476.77,47.43,523,60.3,476.77h8.34l12.91,46.36,10.73-46.36h8.46l-15,57h-8.1L64.53,486.5,51.31,533.72H43.2l-14.88-57Z"/><path class="cls-1" d="M131.18,493.34a15.84,15.84,0,0,1,6.28,5.37,18.72,18.72,0,0,1,2.77,7.33,48.21,48.21,0,0,1,.62,9.15h-30.2q.18,6.33,3,10.17c1.85,2.55,4.7,3.82,8.58,3.82a11,11,0,0,0,8.65-3.62,12.34,12.34,0,0,0,2.57-4.87h6.86a14.23,14.23,0,0,1-1.81,5.1,18.41,18.41,0,0,1-3.41,4.6,16.09,16.09,0,0,1-7.81,4.18,23.3,23.3,0,0,1-5.66.62,17.32,17.32,0,0,1-13.06-5.64q-5.35-5.64-5.36-15.8,0-10,5.4-16.24a17.73,17.73,0,0,1,14.1-6.24A18.78,18.78,0,0,1,131.18,493.34Zm2.5,16.3a18.17,18.17,0,0,0-2-7.24q-2.84-5.06-9.49-5a10.51,10.51,0,0,0-8,3.47,13.22,13.22,0,0,0-3.42,8.82Z"/><path class="cls-1" d="M149.11,476.57h6.78v20.67a15.28,15.28,0,0,1,12.42-6.13,16.28,16.28,0,0,1,12.63,5.33q4.84,5.34,4.84,15.73,0,9.84-4.78,16.36A15.56,15.56,0,0,1,167.72,535a13.59,13.59,0,0,1-8-2.29,19.18,19.18,0,0,1-4.17-4.34v5.31h-6.43Zm26.68,47.81q2.82-4.5,2.82-11.87a19.43,19.43,0,0,0-2.82-10.85,9.3,9.3,0,0,0-8.3-4.31,11.63,11.63,0,0,0-8.39,3.53q-3.6,3.53-3.6,11.63A25.72,25.72,0,0,0,157,522q2.76,6.87,10.31,6.86A9.35,9.35,0,0,0,175.79,524.38Z"/><path class="cls-1" d="M198,520.69a9.93,9.93,0,0,0,1.78,5.35q2.68,3.38,9.34,3.38a14,14,0,0,0,7-1.69,5.56,5.56,0,0,0,3-5.21,4.43,4.43,0,0,0-2.41-4.07,28.6,28.6,0,0,0-6.06-2l-5.64-1.4a27.71,27.71,0,0,1-8-2.94,8.8,8.8,0,0,1-4.57-7.84,11.9,11.9,0,0,1,4.31-9.53q4.29-3.64,11.57-3.65,9.51,0,13.71,5.51a11.81,11.81,0,0,1,2.55,7.52H218a7.92,7.92,0,0,0-1.7-4.28c-1.64-1.82-4.49-2.74-8.54-2.74q-4,0-6.13,1.51a4.67,4.67,0,0,0-2.08,4,4.87,4.87,0,0,0,2.74,4.32,16.28,16.28,0,0,0,4.66,1.71l4.7,1.12q7.66,1.83,10.27,3.53Q226,516,226,521.7a12.75,12.75,0,0,1-4.26,9.58q-4.26,4-13,4-9.39,0-13.29-4.21a15.79,15.79,0,0,1-4.18-10.41Z"/><path class="cls-1" d="M233.55,476.77h7.1v7.91h-7.1Zm0,15.62h7.1v41.33h-7.1Z"/><path class="cls-1" d="M252.59,480.61h7V492.2h6.63v5.7h-6.63V525a2.92,2.92,0,0,0,1.48,2.91,6.31,6.31,0,0,0,2.71.42l1.09,0c.38,0,.84-.07,1.35-.13v5.54a15.37,15.37,0,0,1-2.5.5,22.3,22.3,0,0,1-2.81.16q-4.89,0-6.63-2.5a11.14,11.14,0,0,1-1.74-6.5V497.9H247v-5.7h5.63Z"/><path class="cls-1" d="M298.9,493.34a15.84,15.84,0,0,1,6.28,5.37A18.73,18.73,0,0,1,308,506a48.41,48.41,0,0,1,.61,9.15h-30.2q.19,6.33,3,10.17t8.58,3.82a11,11,0,0,0,8.66-3.62,12.46,12.46,0,0,0,2.56-4.87H308a14.39,14.39,0,0,1-1.8,5.1,18.19,18.19,0,0,1-3.42,4.6,16,16,0,0,1-7.81,4.18,23.25,23.25,0,0,1-5.66.62,17.34,17.34,0,0,1-13.06-5.64q-5.36-5.64-5.35-15.8,0-10,5.39-16.24a17.76,17.76,0,0,1,14.1-6.24A18.78,18.78,0,0,1,298.9,493.34Zm2.5,16.3a18.17,18.17,0,0,0-2-7.24q-2.85-5.06-9.5-5a10.48,10.48,0,0,0-8,3.47,13.18,13.18,0,0,0-3.43,8.82Z"/><path class="cls-1" d="M321.56,520.69a9.93,9.93,0,0,0,1.78,5.35q2.69,3.38,9.34,3.38a14,14,0,0,0,7-1.69,5.56,5.56,0,0,0,3-5.21,4.44,4.44,0,0,0-2.4-4.07,29,29,0,0,0-6.07-2l-5.63-1.4a27.59,27.59,0,0,1-8-2.94,8.78,8.78,0,0,1-4.57-7.84,11.89,11.89,0,0,1,4.3-9.53q4.31-3.64,11.57-3.65,9.51,0,13.71,5.51a11.82,11.82,0,0,1,2.56,7.52h-6.59a8,8,0,0,0-1.71-4.28c-1.64-1.82-4.49-2.74-8.53-2.74q-4.05,0-6.14,1.51a4.7,4.7,0,0,0-2.08,4,4.87,4.87,0,0,0,2.74,4.32,16.4,16.4,0,0,0,4.66,1.71l4.7,1.12q7.67,1.83,10.27,3.53,4.08,2.67,4.07,8.41a12.75,12.75,0,0,1-4.26,9.58q-4.26,4-13,4-9.37,0-13.29-4.21a15.84,15.84,0,0,1-4.18-10.41Z"/><path class="cls-1" d="M380.84,476.77h41.33v7H388.36V501h31.25v6.59H388.36v19.31h34.39v6.78H380.84Z"/><path class="cls-1" d="M473.35,480.92a20.19,20.19,0,0,1,6.55,12.95h-7.52a15.77,15.77,0,0,0-5-8.73q-3.75-3.21-10.53-3.22a16.76,16.76,0,0,0-13.34,5.92q-5.08,5.93-5.08,18.14,0,10,4.59,16.24t13.69,6.23q8.37,0,12.76-6.55a25.34,25.34,0,0,0,3.46-9.08h7.52a25.83,25.83,0,0,1-6.59,15.09q-6.71,7.32-18.09,7.32a23.71,23.71,0,0,1-16.48-6q-8.77-8-8.77-24.56,0-12.6,6.59-20.68,7.13-8.76,19.66-8.76Q467.44,475.22,473.35,480.92Z"/><path class="cls-1" d="M519.56,496.34q5.51,5.36,5.51,15.73,0,10-4.85,16.58t-15.05,6.54q-8.52,0-13.52-5.79t-5-15.55q0-10.46,5.27-16.66T506.09,491A18.61,18.61,0,0,1,519.56,496.34Zm-4.33,27.6a26.37,26.37,0,0,0,2.55-11.68,20.87,20.87,0,0,0-1.84-9.44q-2.91-5.74-10-5.74-6.33,0-9.21,4.88a22.87,22.87,0,0,0-2.87,11.78,19.86,19.86,0,0,0,2.87,11q2.88,4.41,9.13,4.41Q512.67,529.18,515.23,523.94Z"/><path class="cls-1" d="M533.64,492.2h6.9v5.89a23,23,0,0,1,4.5-4.46,13.57,13.57,0,0,1,7.83-2.36,12.33,12.33,0,0,1,8,2.44,12.85,12.85,0,0,1,3.1,4.11,14.44,14.44,0,0,1,12.52-6.55q8.37,0,11.4,6a19.91,19.91,0,0,1,1.63,8.77v27.64h-7.25V504.88q0-4.15-2.08-5.7a8.17,8.17,0,0,0-5.06-1.55,10,10,0,0,0-7.07,2.75q-3,2.75-3,9.19v24.15H558v-27.1a14.15,14.15,0,0,0-1-6.17q-1.59-2.9-5.93-2.9a10.26,10.26,0,0,0-7.2,3.06q-3.23,3.06-3.23,11.09v22h-7Z"/><path class="cls-1" d="M599.78,492.2h6.9v5.89a23.53,23.53,0,0,1,4.5-4.46,13.57,13.57,0,0,1,7.83-2.36,12.33,12.33,0,0,1,8,2.44,12.71,12.71,0,0,1,3.1,4.11,14.47,14.47,0,0,1,12.52-6.55q8.39,0,11.4,6a19.77,19.77,0,0,1,1.63,8.77v27.64H648.4V504.88q0-4.15-2.07-5.7a8.19,8.19,0,0,0-5.06-1.55,10,10,0,0,0-7.08,2.75q-3,2.75-3,9.19v24.15h-7.1v-27.1a14.15,14.15,0,0,0-1-6.17c-1.06-1.93-3-2.9-5.93-2.9a10.23,10.23,0,0,0-7.19,3.06q-3.24,3.06-3.24,11.09v22h-7Z"/><path class="cls-1" d="M691.58,493.34a15.91,15.91,0,0,1,6.28,5.37,18.72,18.72,0,0,1,2.77,7.33,48.21,48.21,0,0,1,.62,9.15H671q.19,6.33,3,10.17t8.58,3.82a11,11,0,0,0,8.65-3.62,12.2,12.2,0,0,0,2.56-4.87h6.86a14.39,14.39,0,0,1-1.8,5.1,18.19,18.19,0,0,1-3.42,4.6,16,16,0,0,1-7.81,4.18,23.16,23.16,0,0,1-5.65.62,17.32,17.32,0,0,1-13.06-5.64q-5.35-5.64-5.36-15.8,0-10,5.4-16.24a17.73,17.73,0,0,1,14.1-6.24A18.78,18.78,0,0,1,691.58,493.34Zm2.49,16.3a18,18,0,0,0-2-7.24q-2.83-5.06-9.49-5a10.5,10.5,0,0,0-8,3.47,13.22,13.22,0,0,0-3.42,8.82Z"/><path class="cls-1" d="M710.28,492.2h6.63v7.17a15.81,15.81,0,0,1,4-5.1,10.38,10.38,0,0,1,7.33-3c.13,0,.35,0,.66,0l1.59.15v7.37a11.08,11.08,0,0,0-1.14-.16c-.35,0-.73,0-1.15,0-3.51,0-6.21,1.12-8.1,3.39a11.81,11.81,0,0,0-2.83,7.81v23.88h-7Z"/><path class="cls-1" d="M764,494.41q4.39,3.4,5.29,11.75h-6.78a12.6,12.6,0,0,0-2.83-6.38c-1.48-1.69-3.84-2.54-7.1-2.54q-6.67,0-9.54,6.5a25.87,25.87,0,0,0-1.86,10.42,19.54,19.54,0,0,0,2.64,10.49q2.64,4.26,8.3,4.26a9.1,9.1,0,0,0,6.88-2.64,14.58,14.58,0,0,0,3.51-7.24h6.78q-1.17,8.25-5.81,12.07c-3.11,2.55-7.07,3.82-11.91,3.82a15.88,15.88,0,0,1-13-5.95q-4.85-6-4.84-14.87,0-10.94,5.31-17A17.15,17.15,0,0,1,752.54,491Q759.56,491,764,494.41Z"/><path class="cls-1" d="M801.88,493.34a15.84,15.84,0,0,1,6.28,5.37,18.72,18.72,0,0,1,2.77,7.33,48.21,48.21,0,0,1,.62,9.15h-30.2q.2,6.33,3,10.17t8.58,3.82a11,11,0,0,0,8.65-3.62,12.34,12.34,0,0,0,2.57-4.87H811a14.39,14.39,0,0,1-1.8,5.1,18.67,18.67,0,0,1-3.42,4.6,16.09,16.09,0,0,1-7.81,4.18,23.3,23.3,0,0,1-5.66.62,17.32,17.32,0,0,1-13.06-5.64q-5.36-5.64-5.36-15.8,0-10,5.4-16.24a17.74,17.74,0,0,1,14.1-6.24A18.78,18.78,0,0,1,801.88,493.34Zm2.5,16.3a18.34,18.34,0,0,0-2-7.24q-2.85-5.06-9.5-5a10.51,10.51,0,0,0-8,3.47,13.22,13.22,0,0,0-3.42,8.82Z"/><path class="cls-1" d="M847.16,476.77,857.9,523l12.87-46.27h8.34L892,523.13l10.73-46.36h8.46l-15,57h-8.11L875,486.5l-13.22,47.22h-8.11l-14.88-57Z"/><path class="cls-1" d="M941.65,493.34a15.84,15.84,0,0,1,6.28,5.37A18.57,18.57,0,0,1,950.7,506a48.21,48.21,0,0,1,.62,9.15h-30.2q.2,6.33,3,10.17t8.58,3.82a11,11,0,0,0,8.65-3.62,12.34,12.34,0,0,0,2.57-4.87h6.86a14.39,14.39,0,0,1-1.8,5.1,18.67,18.67,0,0,1-3.42,4.6,16,16,0,0,1-7.81,4.18,23.3,23.3,0,0,1-5.66.62A17.32,17.32,0,0,1,919,529.55q-5.36-5.64-5.36-15.8,0-10,5.4-16.24a17.74,17.74,0,0,1,14.1-6.24A18.78,18.78,0,0,1,941.65,493.34Zm2.5,16.3a18.34,18.34,0,0,0-2-7.24q-2.85-5.06-9.5-5a10.48,10.48,0,0,0-8,3.47,13.18,13.18,0,0,0-3.43,8.82Z"/><path class="cls-1" d="M959.58,476.57h6.78v20.67a15.28,15.28,0,0,1,12.42-6.13,16.28,16.28,0,0,1,12.63,5.33q4.85,5.34,4.85,15.73,0,9.84-4.79,16.36A15.55,15.55,0,0,1,978.2,535a13.6,13.6,0,0,1-8-2.29,19.18,19.18,0,0,1-4.17-4.34v5.31h-6.43Zm26.68,47.81q2.82-4.5,2.82-11.87a19.43,19.43,0,0,0-2.82-10.85,9.3,9.3,0,0,0-8.3-4.31,11.63,11.63,0,0,0-8.39,3.53c-2.39,2.35-3.6,6.23-3.6,11.63a25.49,25.49,0,0,0,1.49,9.5q2.74,6.87,10.3,6.86A9.35,9.35,0,0,0,986.26,524.38Z"/><path class="cls-1" d="M1021.87,476.77h8.71l20.67,57h-8.45l-6-17.06h-22.34l-6.18,17.06h-7.91Zm12.8,33.61-8.77-25.16-9.11,25.16Z"/><path class="cls-1" d="M1056.7,492.39h6.82v5.51a17,17,0,0,1,4.59-4.39,14.8,14.8,0,0,1,8.32-2.32,15.64,15.64,0,0,1,12,5.41q4.93,5.4,4.94,15.45,0,13.58-7.13,19.38a16.11,16.11,0,0,1-10.51,3.69,14.31,14.31,0,0,1-7.9-2.06,18.27,18.27,0,0,1-4.16-4v21.21h-7ZM1083,524.94q3.24-4.1,3.25-12.23a22.75,22.75,0,0,0-1.45-8.53q-2.71-6.87-10-6.87t-10,7.26a28.57,28.57,0,0,0-1.44,9.84,20.79,20.79,0,0,0,1.44,8.18q2.72,6.45,10,6.44A10,10,0,0,0,1083,524.94Z"/><path class="cls-1" d="M1100.86,492.39h6.82v5.51a17,17,0,0,1,4.59-4.39,14.8,14.8,0,0,1,8.32-2.32,15.64,15.64,0,0,1,12,5.41q4.94,5.4,4.94,15.45,0,13.58-7.13,19.38a16.1,16.1,0,0,1-10.5,3.69,14.34,14.34,0,0,1-7.91-2.06,18.27,18.27,0,0,1-4.16-4v21.21h-7Zm26.26,32.55q3.24-4.1,3.24-12.23a22.77,22.77,0,0,0-1.43-8.53q-2.73-6.87-10-6.87t-10,7.26a28.57,28.57,0,0,0-1.44,9.84,20.79,20.79,0,0,0,1.44,8.18q2.71,6.45,10,6.44A10,10,0,0,0,1127.12,524.94Z"/><path class="cls-1" d="M1149.75,520.69a9.93,9.93,0,0,0,1.78,5.35q2.7,3.38,9.34,3.38a14,14,0,0,0,7-1.69,5.56,5.56,0,0,0,3-5.21,4.44,4.44,0,0,0-2.4-4.07,29,29,0,0,0-6.07-2l-5.63-1.4a27.59,27.59,0,0,1-8-2.94,8.78,8.78,0,0,1-4.57-7.84,11.89,11.89,0,0,1,4.3-9.53q4.31-3.64,11.57-3.65,9.51,0,13.71,5.51a11.82,11.82,0,0,1,2.56,7.52h-6.59a8,8,0,0,0-1.71-4.28c-1.64-1.82-4.48-2.74-8.53-2.74q-4.05,0-6.13,1.51a4.68,4.68,0,0,0-2.09,4,4.87,4.87,0,0,0,2.74,4.32,16.4,16.4,0,0,0,4.66,1.71l4.7,1.12q7.66,1.83,10.27,3.53,4.08,2.67,4.08,8.41a12.76,12.76,0,0,1-4.27,9.58q-4.26,4-13,4-9.37,0-13.29-4.21a15.84,15.84,0,0,1-4.18-10.41Z"/><path class="cls-2" d="M778.81,440H736.15L701.83,335.23,667.52,440H625.15L566.67,227.51h54.6L649,339.7l34.31-112.19h37L754.64,339.7l27.75-112.19H837Z"/><path class="cls-2" d="M858.48,440V227.51h144.4v46.55H910.69v35.5h78.77v46.55H910.69v37.3h92.19V440Z"/><path class="cls-2" d="M1198.61,377.3q0,15.21-5.07,26.85a56.2,56.2,0,0,1-34.76,31.77,83,83,0,0,1-26.41,4h-92.49V227.51h88q16.69,0,29.24,4.48a60.47,60.47,0,0,1,21.18,12.53,51,51,0,0,1,13,19.4,69.86,69.86,0,0,1,4.32,25.06,45.59,45.59,0,0,1-2.68,16.11,53.84,53.84,0,0,1-6.41,12.38,43.57,43.57,0,0,1-7.76,8.51c-2.69,2.19-4.83,3.87-6.42,5.07q3.29,2.08,7.76,5.37a44.46,44.46,0,0,1,8.65,8.65,48,48,0,0,1,7,13.13Q1198.61,366,1198.61,377.3Zm-55.2-85.64a19.61,19.61,0,0,0-4-11.78q-4-5.52-14.77-5.52h-32.52V309h32.52q10.76,0,14.77-5.52A19.61,19.61,0,0,0,1143.41,291.66Zm3,82.65a21.32,21.32,0,0,0-4.17-12.68q-4.18-5.82-14.92-5.82h-35.21v37.3h35.21q10.74,0,14.92-6A22,22,0,0,0,1146.39,374.31Z"/></svg>