<svg id="Layer_1" data-name="Layer 1" xmlns="http://www.w3.org/2000/svg" viewBox="0 0 1200 353"><defs><style>.cls-1{fill:#403654;}.cls-2{fill:#25b5e9;}</style></defs><title>logo-ri</title><path class="cls-1" d="M324.18,91.2v53.23H302.4V11.17H340q25.79,0,38.19,9.67T390.63,50q0,24.89-25.9,35.45l37.65,59h-24.8L345.68,91.2Zm0-18h15.13q15.22,0,22.05-5.66t6.84-16.77q0-11.29-7.38-16.22t-22.24-4.93h-14.4Z"/><path class="cls-1" d="M467.18,146.25q-23.52,0-36.77-13.71T417.14,94.76q0-24.7,12.31-38.82T463.27,41.8q20,0,31.54,12.12t11.57,33.36V98.86H439.2q.46,14.67,7.94,22.56t21.05,7.88a77.47,77.47,0,0,0,16.64-1.69,86.89,86.89,0,0,0,16.55-5.6v17.42a65.84,65.84,0,0,1-15.88,5.28,97.47,97.47,0,0,1-18.32,1.54M463.27,58q-10.2,0-16.36,6.46t-7.35,18.88h45.77q-.19-12.5-6-18.91t-16-6.43"/><path class="cls-1" d="M585.58,146.25q-19.14,0-29.71-13.76h-1.28q1.29,12.76,1.28,15.5v28.79H534.45V43.63h17.32q.74,2.82,3,13.48h1.1q10-15.3,30.07-15.31,18.88,0,29.4,13.67t10.54,38.37q0,24.72-10.71,38.57t-29.59,13.84M580.39,59.3q-12.75,0-18.64,7.48t-5.88,23.88v3.18q0,18.43,5.83,26.67t19,8.25q11.14,0,17.13-9.11t6-26q0-17-6-25.66T580.39,59.3"/><path class="cls-1" d="M725.59,144.43l-3-13.22h-1.1a30.48,30.48,0,0,1-12.72,11,42.54,42.54,0,0,1-18.81,4q-18.32,0-27.36-9.1t-9-27.63V43.63h21.59v62.15q0,11.58,4.74,17.37t14.87,5.79q13.49,0,19.83-8.07t6.32-27V43.63h21.51v100.8ZM684.85,31.32V29.05q5.21-6.39,10.7-14.23t8.71-13.39h24.88V3.34A189,189,0,0,1,715,17.69a201.23,201.23,0,0,1-15.91,13.63Z"/><path class="cls-1" d="M828.22,41.8q18.85,0,29.4,13.67t10.52,38.37q0,24.81-10.65,38.6t-29.64,13.81q-19.14,0-29.71-13.76h-1.46l-3.91,11.94H776.71V2.61h21.43V36.33c0,2.49-.13,6.2-.36,11.12s-.42,8.06-.55,9.39h.91q10.22-15,30.08-15m-5.56,17.5q-12.95,0-18.64,7.62t-5.88,25.47v1.45q0,18.43,5.83,26.67T823,128.76q11.38,0,17.26-9t5.88-26.06q0-34.36-23.51-34.37"/><rect class="cls-1" x="896.76" y="2.6" width="21.43" height="141.83"/><path class="cls-1" d="M951.26,16.92c0-3.83,1.06-6.78,3.14-8.84s5.09-3.1,9-3.1,6.7,1,8.79,3.1,3.15,5,3.15,8.84c0,3.64-1.06,6.52-3.15,8.61s-5,3.14-8.79,3.14-6.88-1-9-3.14a11.69,11.69,0,0,1-3.14-8.61M974,144.43H952.54V43.63H974Z"/><polygon class="cls-1" points="1029.02 91.2 1041.13 76.08 1071.58 43.62 1096.29 43.62 1055.72 86.92 1098.83 144.43 1073.67 144.43 1041.32 100.23 1029.56 109.9 1029.56 144.43 1008.32 144.43 1008.32 2.61 1029.56 2.61 1029.56 71.79 1028.46 91.2 1029.02 91.2"/><path class="cls-1" d="M1181.87,144.43l-4.29-14h-.72q-7.3,9.19-14.67,12.52c-4.94,2.24-11.25,3.33-19,3.33q-14.87,0-23.2-8t-8.33-22.7q0-15.6,11.58-23.52t35.26-8.65l17.41-.54V77.44q0-9.66-4.5-14.44t-14-4.79a48.4,48.4,0,0,0-14.86,2.28,110.91,110.91,0,0,0-13.67,5.38L1122,50.54a74.93,74.93,0,0,1,18-6.51,83.13,83.13,0,0,1,18.41-2.23q19.22,0,29,8.39t9.8,26.34v67.9ZM1150,129.85c7.79,0,14-2.17,18.75-6.52s7.06-10.43,7.06-18.28V96.31l-13,.54q-15.13.57-22,5.06c-4.59,3-6.88,7.6-6.88,13.81q0,6.75,4,10.43t12,3.7"/><rect class="cls-1" x="301.01" y="205.67" width="8.35" height="71.73"/><path class="cls-1" d="M397.14,277.41h-9.53l-39.2-60.2H348q.78,10.57.77,19.42v40.78h-7.7V205.67h9.43l39.11,60H390c-.07-.87-.21-3.71-.45-8.5s-.31-8.23-.24-10.28V205.67h7.81Z"/><path class="cls-1" d="M486.19,240.86q0,17.76-9.64,27.16t-27.76,9.4H428.92V205.67h22q16.74,0,26,9.27t9.28,25.92m-8.83.29c0-9.35-2.35-16.42-7-21.15s-11.68-7.12-20.94-7.12H437.27v57.31h10.15q14.91,0,22.44-7.33t7.5-21.71"/><polygon class="cls-1" points="554.25 277.41 514.25 277.41 514.25 205.67 554.25 205.67 554.25 213.08 522.59 213.08 522.59 236.19 552.33 236.19 552.33 243.56 522.59 243.56 522.59 269.96 554.25 269.96 554.25 277.41"/><path class="cls-1" d="M627.69,226.57q0,10.91-7.43,16.77T599,249.2h-8.44v28.22h-8.35V205.67H600.8q26.9,0,26.89,20.9M590.54,242h7.51c7.39,0,12.74-1.18,16.05-3.59s5-6.2,5-11.48c0-4.74-1.57-8.27-4.66-10.58s-8-3.5-14.54-3.5h-9.32Z"/><polygon class="cls-1" points="694.75 277.41 654.76 277.41 654.76 205.67 694.75 205.67 694.75 213.08 663.09 213.08 663.09 236.19 692.84 236.19 692.84 243.56 663.09 243.56 663.09 269.96 694.75 269.96 694.75 277.41"/><path class="cls-1" d="M778.75,277.41h-9.52L730,217.21h-.4q.76,10.57.78,19.42v40.78h-7.7V205.67h9.42l39.11,60h.39c-.06-.87-.22-3.71-.44-8.5s-.3-8.23-.25-10.28V205.67h7.81Z"/><path class="cls-1" d="M867.81,240.86q0,17.76-9.65,27.16t-27.74,9.4H810.54V205.67h22q16.72,0,26,9.27t9.28,25.92m-8.84.29c0-9.35-2.35-16.42-7-21.15s-11.69-7.12-20.94-7.12H818.88v57.31H829q14.91,0,22.43-7.33T859,241.15"/><rect class="cls-1" x="895.86" y="205.67" width="8.35" height="71.73"/><polygon class="cls-1" points="975.93 277.41 935.93 277.41 935.93 205.67 975.93 205.67 975.93 213.08 944.27 213.08 944.27 236.19 974.02 236.19 974.02 243.56 944.27 243.56 944.27 269.96 975.93 269.96 975.93 277.41"/><path class="cls-1" d="M1059.93,277.41h-9.52l-39.21-60.2h-.39q.77,10.57.78,19.42v40.78h-7.7V205.67h9.42l39.11,60h.39c-.06-.87-.22-3.71-.44-8.5s-.31-8.23-.25-10.28V205.67h7.81Z"/><polygon class="cls-1" points="1113.8 277.41 1105.46 277.41 1105.46 213.08 1082.73 213.08 1082.73 205.67 1136.52 205.67 1136.52 213.08 1113.8 213.08 1113.8 277.41"/><polygon class="cls-1" points="1199.36 277.41 1159.37 277.41 1159.37 205.67 1199.36 205.67 1199.36 213.08 1167.71 213.08 1167.71 236.19 1197.45 236.19 1197.45 243.56 1167.71 243.56 1167.71 269.96 1199.36 269.96 1199.36 277.41"/><rect class="cls-2" y="0.01" width="34.81" height="352.98"/><polygon class="cls-2" points="207.47 352.88 164.63 352.88 48.8 190.33 91.66 190.33 207.47 352.88"/><polygon class="cls-2" points="243.35 11.38 48.44 11.38 48.44 176.49 243.35 176.49 181.76 93.94 243.35 11.38"/><path class="cls-2" d="M324.22,327.94a9.58,9.58,0,0,1-3.54,8q-3.54,2.79-10.14,2.79h-4v13.46h-4V318h8.87q12.82,0,12.81,10m-17.7,7.37h3.58c3.52,0,6.07-.56,7.65-1.71s2.37-3,2.37-5.48a5.88,5.88,0,0,0-2.23-5q-2.22-1.66-6.93-1.67h-4.44Z"/><path class="cls-2" d="M348.82,326.54v16.63a6.64,6.64,0,0,0,1.43,4.68,5.79,5.79,0,0,0,4.47,1.54c2.68,0,4.64-.72,5.89-2.19s1.84-3.86,1.84-7.18V326.54h3.89v25.64h-3.2l-.56-3.43h-.22a7.75,7.75,0,0,1-3.3,2.89,11,11,0,0,1-4.83,1c-3.13,0-5.46-.74-7-2.22s-2.33-3.86-2.33-7.12V326.54Z"/><path class="cls-2" d="M400.89,326.12a9.57,9.57,0,0,1,7.84,3.44c1.87,2.31,2.8,5.56,2.8,9.78s-.93,7.48-2.82,9.81a9.49,9.49,0,0,1-7.82,3.49,11.14,11.14,0,0,1-4.57-.92,8.53,8.53,0,0,1-3.48-2.84h-.28l-.82,3.3H389v-36.4h3.89v8.84c0,2-.06,3.76-.18,5.32h.18c1.81-2.55,4.5-3.82,8.05-3.82m-.57,3.25c-2.64,0-4.55.75-5.72,2.27s-1.76,4.09-1.76,7.7.6,6.17,1.8,7.73,3.12,2.32,5.78,2.32a6,6,0,0,0,5.33-2.61q1.75-2.59,1.76-7.5t-1.76-7.46a6.25,6.25,0,0,0-5.43-2.45"/><rect class="cls-2" x="432.67" y="315.78" width="3.89" height="36.4"/><path class="cls-2" d="M458.85,319.59a2.53,2.53,0,0,1,.66-1.95,2.28,2.28,0,0,1,1.63-.62,2.31,2.31,0,0,1,1.62.63,2.53,2.53,0,0,1,.68,1.94,2.57,2.57,0,0,1-.68,2,2.24,2.24,0,0,1-1.62.65,2.19,2.19,0,0,1-1.63-.65,2.56,2.56,0,0,1-.66-2m4.22,32.59h-3.89V326.54h3.89Z"/><path class="cls-2" d="M495.92,352.64c-3.71,0-6.58-1.12-8.61-3.42s-3.07-5.52-3.07-9.7,1.05-7.59,3.1-9.94,5-3.51,8.84-3.51a17.09,17.09,0,0,1,3.69.4,12.85,12.85,0,0,1,2.9.93l-1.19,3.31a17.83,17.83,0,0,0-2.81-.86,12.27,12.27,0,0,0-2.69-.34q-7.81,0-7.81,10c0,3.15.64,5.55,1.91,7.25a6.61,6.61,0,0,0,5.65,2.53,17.09,17.09,0,0,0,6.57-1.39v3.44a14,14,0,0,1-6.48,1.33"/><path class="cls-2" d="M522.53,319.59a2.57,2.57,0,0,1,.66-1.95,2.42,2.42,0,0,1,3.25,0,2.56,2.56,0,0,1,.68,1.94,2.6,2.6,0,0,1-.68,2,2.24,2.24,0,0,1-1.61.65,2.19,2.19,0,0,1-1.64-.65,2.6,2.6,0,0,1-.66-2m4.21,32.59h-3.89V326.54h3.89Z"/><path class="cls-2" d="M566.81,348.75h-.22c-1.8,2.59-4.48,3.89-8.06,3.89a9.51,9.51,0,0,1-7.82-3.44q-2.79-3.43-2.79-9.77t2.8-9.85a9.45,9.45,0,0,1,7.81-3.51,9.32,9.32,0,0,1,8,3.8h.3l-.16-1.86-.09-1.8V315.78h3.89v36.4H567.3Zm-7.78.64c2.64,0,4.57-.71,5.77-2.15s1.79-3.79,1.79-7v-.82c0-3.63-.6-6.23-1.82-7.78s-3.13-2.33-5.79-2.33a5.94,5.94,0,0,0-5.23,2.66c-1.22,1.77-1.81,4.27-1.81,7.5s.59,5.74,1.81,7.41a6.07,6.07,0,0,0,5.28,2.5"/><path class="cls-2" d="M608.84,352.18l-.77-3.65h-.19a10.86,10.86,0,0,1-3.82,3.26,11.79,11.79,0,0,1-4.76.85,8.59,8.59,0,0,1-6-2,7.17,7.17,0,0,1-2.17-5.59q0-7.79,12.43-8.14l4.35-.14v-1.59a6.54,6.54,0,0,0-1.29-4.46,5.37,5.37,0,0,0-4.16-1.44,16.92,16.92,0,0,0-7.25,2l-1.2-3a18.86,18.86,0,0,1,8.68-2.18q4.59,0,6.81,2c1.47,1.35,2.2,3.53,2.2,6.52v17.5Zm-8.77-2.74a7.88,7.88,0,0,0,5.7-2,7.35,7.35,0,0,0,2.07-5.57v-2.31l-3.88.16c-3.09.12-5.32.59-6.68,1.44a4.34,4.34,0,0,0-2,4,4,4,0,0,0,1.27,3.22,5.33,5.33,0,0,0,3.57,1.09"/><path class="cls-2" d="M651.55,348.75h-.21c-1.79,2.59-4.48,3.89-8.05,3.89a9.49,9.49,0,0,1-7.82-3.44q-2.81-3.43-2.8-9.77t2.81-9.85a9.45,9.45,0,0,1,7.81-3.51,9.34,9.34,0,0,1,8,3.8h.29l-.16-1.86-.09-1.8V315.78h3.89v36.4h-3.17Zm-7.77.64c2.65,0,4.58-.71,5.77-2.15s1.79-3.79,1.79-7v-.82c0-3.63-.61-6.23-1.82-7.78s-3.13-2.33-5.78-2.33a5.94,5.94,0,0,0-5.23,2.66q-1.82,2.65-1.81,7.5t1.8,7.41a6.1,6.1,0,0,0,5.28,2.5"/><path class="cls-2" d="M734.91,335q0,8.22-4.14,12.91t-11.55,4.7c-5,0-8.93-1.53-11.66-4.62s-4.11-7.43-4.11-13,1.38-9.88,4.12-12.94,6.64-4.61,11.7-4.61,8.74,1.57,11.51,4.68,4.13,7.43,4.13,12.92m-27.25,0q0,6.95,3,10.54c2,2.39,4.84,3.6,8.59,3.6s6.65-1.21,8.58-3.59,2.91-5.91,2.91-10.55-1-8.09-2.9-10.47S723,321,719.27,321s-6.68,1.21-8.64,3.6-3,5.87-3,10.44"/><path class="cls-2" d="M773.87,352.18V335.59a6.64,6.64,0,0,0-1.42-4.67,5.83,5.83,0,0,0-4.47-1.55c-2.68,0-4.65.73-5.89,2.17s-1.88,3.85-1.88,7.19v13.45h-3.88V326.54h3.15l.64,3.51h.18a7.85,7.85,0,0,1,3.35-2.93,10.91,10.91,0,0,1,4.8-1.06q4.62,0,7,2.24t2.34,7.14v16.74Z"/><rect class="cls-2" x="800.11" y="315.78" width="3.88" height="36.4"/><path class="cls-2" d="M826.28,319.59a2.53,2.53,0,0,1,.66-1.95,2.41,2.41,0,0,1,3.24,0,2.49,2.49,0,0,1,.68,1.94,2.53,2.53,0,0,1-.68,2,2.34,2.34,0,0,1-3.24,0,2.56,2.56,0,0,1-.66-2m4.21,32.59H826.6V326.54h3.89Z"/><path class="cls-2" d="M870.63,352.18V335.59a6.64,6.64,0,0,0-1.42-4.67,5.79,5.79,0,0,0-4.46-1.55c-2.69,0-4.66.73-5.9,2.17s-1.87,3.85-1.87,7.19v13.45H853.1V326.54h3.15l.64,3.51h.18a7.79,7.79,0,0,1,3.35-2.93,10.9,10.9,0,0,1,4.79-1.06c3.09,0,5.4.75,7,2.24s2.35,3.88,2.35,7.14v16.74Z"/><path class="cls-2" d="M907.71,352.64c-3.8,0-6.78-1.15-9-3.45s-3.29-5.51-3.29-9.62,1-7.41,3-9.85a10.14,10.14,0,0,1,8.2-3.66,9.7,9.7,0,0,1,7.63,3.17,12.21,12.21,0,0,1,2.8,8.38v2.45H899.47q.12,4.51,2.28,6.85a7.9,7.9,0,0,0,6.09,2.35,20.59,20.59,0,0,0,8.2-1.74V351a21.23,21.23,0,0,1-3.9,1.27,21.62,21.62,0,0,1-4.43.38m-1.05-23.32a6.38,6.38,0,0,0-4.93,2,9.25,9.25,0,0,0-2.16,5.57H913a8.58,8.58,0,0,0-1.62-5.62,5.79,5.79,0,0,0-4.68-2"/><polygon class="cls-2" points="951.12 317.98 938.36 352.17 934.48 352.17 947.22 317.98 951.12 317.98"/><path class="cls-2" d="M1000.37,335q0,8.22-4.15,12.91c-2.78,3.14-6.62,4.7-11.55,4.7S975.75,351.11,973,348s-4.12-7.43-4.12-13S970.29,325.1,973,322s6.64-4.61,11.7-4.61c4.91,0,8.75,1.57,11.51,4.68s4.14,7.43,4.14,12.92m-27.26,0q0,6.95,3,10.54c2,2.39,4.84,3.6,8.59,3.6s6.66-1.21,8.59-3.59,2.9-5.91,2.9-10.55-1-8.09-2.9-10.47-4.77-3.57-8.54-3.57-6.68,1.21-8.64,3.6-3,5.87-3,10.44"/><path class="cls-2" d="M1033.33,329.56h-6.52v22.62h-3.89V329.56h-4.59V327.8l4.59-1.41V325c0-6.3,2.77-9.45,8.26-9.45a16.79,16.79,0,0,1,4.77.82l-1,3.12a12.25,12.25,0,0,0-3.83-.73,3.73,3.73,0,0,0-3.25,1.45,8.21,8.21,0,0,0-1,4.7v1.66h6.52Z"/><path class="cls-2" d="M1063,329.56h-6.52v22.62h-3.89V329.56H1048V327.8l4.58-1.41V325q0-9.45,8.26-9.45a16.74,16.74,0,0,1,4.77.82l-1,3.12a12.4,12.4,0,0,0-3.84-.73,3.7,3.7,0,0,0-3.24,1.45,8.12,8.12,0,0,0-1.06,4.7v1.66H1063Z"/><rect class="cls-2" x="1082.97" y="315.78" width="3.89" height="36.4"/><path class="cls-2" d="M1109.14,319.59a2.61,2.61,0,0,1,.65-1.95,2.32,2.32,0,0,1,1.64-.62,2.29,2.29,0,0,1,1.62.63,2.56,2.56,0,0,1,.68,1.94,2.6,2.6,0,0,1-.68,2,2.37,2.37,0,0,1-3.26,0,2.64,2.64,0,0,1-.65-2m4.2,32.59h-3.88V326.54h3.88Z"/><path class="cls-2" d="M1153.5,352.18V335.59a6.64,6.64,0,0,0-1.42-4.67,5.81,5.81,0,0,0-4.47-1.55c-2.68,0-4.65.73-5.89,2.17s-1.88,3.85-1.88,7.19v13.45H1136V326.54h3.15l.64,3.51h.18a7.85,7.85,0,0,1,3.35-2.93,10.91,10.91,0,0,1,4.8-1.06c3.08,0,5.41.75,7,2.24s2.34,3.88,2.34,7.14v16.74Z"/><path class="cls-2" d="M1190.57,352.64c-3.79,0-6.79-1.15-9-3.45s-3.28-5.51-3.28-9.62,1-7.41,3-9.85a10.14,10.14,0,0,1,8.21-3.66,9.68,9.68,0,0,1,7.62,3.17,12.22,12.22,0,0,1,2.81,8.38v2.45h-17.67q.12,4.51,2.29,6.85a7.87,7.87,0,0,0,6.1,2.35,20.52,20.52,0,0,0,8.17-1.74V351a20.82,20.82,0,0,1-3.88,1.27,21.92,21.92,0,0,1-4.44.38m-1.06-23.32a6.35,6.35,0,0,0-4.91,2,9.2,9.2,0,0,0-2.17,5.57h13.4a8.52,8.52,0,0,0-1.64-5.62,5.79,5.79,0,0,0-4.68-2"/></svg>