<svg id="Layer_1" data-name="Layer 1" xmlns="http://www.w3.org/2000/svg" viewBox="0 0 1200 1200"><defs><style>.cls-1{fill:#fff;}.cls-2{fill:#004691;}.cls-3{fill:none;stroke:#312783;stroke-width:0.4px;}.cls-4{fill:#312783;}</style></defs><title>logo-ms</title><path class="cls-1" d="M1194.18,600c0,328.15-266.05,594.19-594.2,594.19S5.81,928.15,5.81,600,271.87,5.82,600,5.82s594.2,266,594.2,594.18"/><path class="cls-2" d="M600,1200C269.14,1200,0,930.85,0,600S269.14,0,600,0s600,269.16,600,600S930.83,1200,600,1200ZM600,11.63c-324.41,0-588.34,264-588.34,588.38S275.56,1188.37,600,1188.37s588.4-263.95,588.4-588.36S924.42,11.63,600,11.63Z"/><path class="cls-1" d="M1053.81,594.41C1053.81,845,850.63,1048.2,600,1048.2S146.19,845,146.19,594.41,349.37,140.6,600,140.6s453.83,203.19,453.83,453.81"/><path class="cls-2" d="M600,1054c-253.42,0-459.6-206.18-459.6-459.61S346.56,134.79,600,134.79,1059.63,341,1059.63,594.41,853.43,1054,600,1054Zm0-907.6c-247,0-448,201-448,448s201,448,448,448,448-201,448-448S847,146.42,600,146.42Z"/><path class="cls-1" d="M610.78,823.09c14.8,12.6,34.27,23.81,59.25,31,6.86,1.73,4.66,4.78-1.69,4.57-8.32-.26-34.17-7.84-60-22.15Z"/><path class="cls-3" d="M610.78,823.09c14.8,12.6,34.27,23.81,59.25,31,6.86,1.73,4.66,4.78-1.69,4.57-8.32-.26-34.17-7.84-60-22.15Z"/><path class="cls-2" d="M185.3,231.14a27.27,27.27,0,0,0,2.86-2.72,25.69,25.69,0,0,0,2.2-3.37c21.12,13.83,38.14,25.21,54.47,34.66-1.87,1.89-3.69,3.64-5.32,5.65s-2.92,4-4.48,6.11c-11.88-8.92-24.09-16.64-36-24.74,6.41,14.56,12.94,29.1,19.76,43.46a9.66,9.66,0,0,0-2.27,2.68c-13.66-3.62-29.49-7.24-45.3-11.17,11.21,12.16,20.24,21.61,30.1,30.19a34,34,0,0,0-3.15,3.08,32.78,32.78,0,0,0-2.39,3.58c-12.25-14.58-27-30.73-43.09-48.26.92-.91,1.94-1.66,2.81-2.65a33.62,33.62,0,0,0,2.18-3.3c15.53,4.2,31.45,7.86,47.38,11.56-5.87-13.64-12.06-29.07-19.76-44.76"/><path class="cls-2" d="M208.41,207.58c1.84-1.49,3.71-2.86,5.41-4.48s3.15-3.45,4.71-5.18l44.29,46.23c-1.82,1.47-3.72,2.87-5.35,4.48s-3.24,3.45-4.78,5.18Z"/><path class="cls-2" d="M234,183.12l7.24-5.66c19.34,3.27,39,5.94,58.65,9.72L273,152.7a23.92,23.92,0,0,0,3.2-2,32.58,32.58,0,0,0,2.73-2.53l39.31,50.51L312,203.45c-15.93-2.86-31-5.73-46.1-8l-14.58-2.13L279,228.92c-1,.66-2.15,1.34-3.12,2.08a27.7,27.7,0,0,0-2.77,2.53Z"/><path class="cls-2" d="M296.85,137c2-1.08,4.19-2.1,6.16-3.33s3.74-2.73,5.68-4.14l33.87,54.32c-2,1.06-4.19,2.08-6.13,3.31s-3.79,2.7-5.75,4.09Z"/><path class="cls-2" d="M356.77,116.83c-3.95-3.53-8.56-4.69-13.25-2.25-6.61,3.43-7.34,8.15-4.92,12.85,5.86,11.18,29.92-4,39.78,14.94C384,153,378.79,165.3,366,172a28.5,28.5,0,0,1-15.15,3.41,94.6,94.6,0,0,0-3.1-11.76l1.54-.83c4.25,5.08,10.48,6.15,16.24,3.15,5.13-2.65,8.18-7.94,5.16-13.64-7-13.27-29.07,4.43-39.46-15.52-5-9.49-2.49-20.78,10-27.35,6-3.1,12.38-3.62,15.18-2.84.37,3.16.94,6.33,1.61,9.55Z"/><path class="cls-2" d="M419.27,146.26c-2.23.7-4.57,1.32-6.66,2.17a68.67,68.67,0,0,0-6.34,3.08l-21.4-53.24a130.32,130.32,0,0,0-15.64,7.65,33.94,33.94,0,0,0-1-3.9c-.57-1.19-1.27-2.3-1.92-3.44l44.57-17.92a22.06,22.06,0,0,0,1,3.8A33.65,33.65,0,0,0,413.8,88a142.79,142.79,0,0,0-16,5Z"/><path class="cls-2" d="M458.22,66.51c.22,1.32.36,2.71.71,4a32.24,32.24,0,0,0,1.56,3.7,134.86,134.86,0,0,0-21,4.82L445,98.25l9.35-2.7a88.92,88.92,0,0,0,10.77-4,26.88,26.88,0,0,0,.68,4,34.48,34.48,0,0,0,1.54,3.71,92.38,92.38,0,0,0-11.2,2.4l-9.34,2.72,6.65,22.79a184.93,184.93,0,0,0,20.37-7.31,24.45,24.45,0,0,0,.58,4,34.23,34.23,0,0,0,1.61,3.7l-34.14,10-17.77-61Z"/><path class="cls-2" d="M488.21,65.25c5.57-1,12.36-3,15.16,4.32a25.67,25.67,0,0,1,1.34,4.52c1.75,9.46-2.22,14.93-12,15.74ZM485,125.78c2.29-.6,4.54-1.31,6.81-1.71s4.62-.56,6.94-.82L493.4,93.8l.64-.12c2.67,3.13,6,6.87,7.83,9.11l14.44,17.29c2.73-.69,5.45-1.48,8.17-2s5.68-.74,8.47-1l-4.63-5c-7.11-7.53-14.28-15-20.93-22.84C515.55,85.78,520.27,79,518.66,70c-1.14-6.22-4.59-9.84-10.35-11.64-4.26-1.31-10.91.09-15.22.85L473.56,62.8Z"/><path class="cls-2" d="M535.35,53.07c2.31,0,4.7,0,7-.21s4.58-.71,6.93-1.1l5.89,63.73c-2.29,0-4.69,0-7,.19s-4.6.7-6.94,1.11Z"/><path class="cls-2" d="M602.6,54c14,.19,19.39,14.06,19.23,26.13-.27,15.48-6.89,29.77-21.23,29.54-14-.2-19.37-13.17-19.11-25.28.26-20.9,8.15-30.59,21.11-30.39m34.63,28.12c.14-14.47-7.43-33.33-34-33.71-23.21-.35-37,14.48-37.25,33-.31,21.16,13.37,33.5,34.06,33.8,22.82.35,37-14.91,37.18-33.13"/><path class="cls-2" d="M696.5,64.93l8.92,1.94c12.85,2.82,19.52,11.31,15.76,28.45-4.66,21.35-15.62,25.54-28.17,22.8l-7.78-1.71ZM684,56.64l-13.61,62.09,25.54,5.56c18.67,4.07,35.83-5,40.35-25.56,3.22-14.94-1.8-30.3-21.13-35.27Z"/><path class="cls-2" d="M792.8,86.77a24.11,24.11,0,0,0-1.75,3.62,30.61,30.61,0,0,0-.88,3.93A135,135,0,0,0,770.24,86L763.69,105l9.16,3.21a93.82,93.82,0,0,0,11.07,3,36.65,36.65,0,0,0-1.74,3.63,30.43,30.43,0,0,0-.86,4,83.9,83.9,0,0,0-10.56-4.59L761.58,111l-7.81,22.39a187.11,187.11,0,0,0,20.81,5.84,22.27,22.27,0,0,0-1.73,3.63,20.9,20.9,0,0,0-.88,3.93l-33.59-11.65,20.84-60Z"/><path class="cls-2" d="M853.23,128.44c.62-5.23-1-9.7-5.77-12.14-6.54-3.39-10.86-1.35-13.31,3.38-5.86,11.18,20.41,22.2,10.56,41.14-5.49,10.6-18.6,13.49-31.4,6.82-4.51-2.39-8.91-6-11.49-10.51a96.44,96.44,0,0,0,7.88-9.25l1.59.8c-1.75,6.36,1,12.07,6.68,15.07,5.15,2.64,11.19,2.14,14.13-3.59,6.91-13.23-20.27-21.28-9.85-41.21,4.92-9.52,15.53-14,28.12-7.45,6,3.1,10.13,8.09,11,10.77-2.32,2.15-4.6,4.44-6.89,6.83Z"/><path class="cls-2" d="M867.05,167.73l19.35-13.25-5.13,22.69Zm12.8,15.39c-1.38,6.62-3.26,13-5.25,19.92,2.31,1.33,4.64,2.56,6.91,4.05s4.26,3.18,6.43,4.83l14.28-68.4a21,21,0,0,1-3.1-1.73,23.28,23.28,0,0,1-2.79-2.18l-58.09,39c1.32.71,2.63,1.4,3.91,2.22s2.32,1.76,3.45,2.68c5.07-4.38,10.23-7.89,16.17-12.45Z"/><path class="cls-2" d="M908.27,220.09a203.8,203.8,0,0,0,17.28,12.68,25.89,25.89,0,0,0-2.91,2.8,29.91,29.91,0,0,0-2.23,3.38l-27.13-22.68L934,167.52a68.09,68.09,0,0,0,5.06,4.83c1.76,1.49,3.76,2.79,5.66,4.13Z"/><path class="cls-2" d="M974.41,202c1.45,1.85,2.85,3.72,4.47,5.42s3.41,3.19,5.14,4.76l-19.27,18.22c-3.71,3.53-9.37,8.64-12.4,12.57-2.69,3.76-4.3,6.29-4.37,11a14.78,14.78,0,0,0,4.37,10.49c5.95,6.32,11.51,7.52,19.62,4.32,4.13-1.58,11.89-8.92,15.25-12l20.49-19.41a30.14,30.14,0,0,0,2.4,2.89,25.52,25.52,0,0,0,2.74,2.55l-24.14,22.8c-7.93,7.1-14.89,13.82-26.42,11.38-6.15-1.13-11.52-4.92-15.71-9.4-7.76-8.21-13.59-19.54-7.17-30.38a43.93,43.93,0,0,1,7.34-9Z"/><path class="cls-2" d="M1031.07,275l5.29,7.46c7.56,10.77,6.68,21.54-7.67,31.63-17.82,12.58-28.75,8.25-36.14-2.26L988,305.37Zm-3.65-14.57L975.49,297l15,21.37c11,15.65,29.75,20.57,47,8.43,12.55-8.79,19.18-23.51,8.31-40.27Z"/><path class="cls-2" d="M377.94,948.24l-6.45,5.21c-6.21-1-12.17-4.11-17.24-7.81-16-11.9-20.76-30.82-9.34-46.18,14.52-19.52,34.62-18.43,50.91-6.27a42.37,42.37,0,0,1,12.59,15c-2.58,2-4.93,4.26-7.51,6.44l-1-.79c.21-6.1-2.46-12.49-7.34-16.14-12.49-9.23-26.29-1-34.48,10-9.52,12.79-9.92,26.45,1.6,35,4.65,3.43,11.87,5.06,17.62,4.33Z"/><path class="cls-2" d="M443.71,927.92c12.59,6.13,11.53,21,6.25,31.81-6.78,13.9-18.91,24-31.82,17.67-12.57-6.13-11.86-20.12-6.57-31,9.25-18.79,20.47-24.21,32.14-18.49m19.4,40.2c6.25-13,7.49-33.31-16.44-45-20.86-10.16-39.62-2.63-47.75,14.06-9.34,19-2.18,36,16.38,45.08,20.52,10,39.89,2.26,47.81-14.12"/><path class="cls-2" d="M508.84,960.82c-.35-5.26-2.86-9.31-7.95-10.82-7.08-2.13-10.87.73-12.42,5.82-3.6,12.07,24.19,17.94,18.08,38.4-3.37,11.45-15.65,16.73-29.56,12.63a28.62,28.62,0,0,1-13.24-8.14,83.58,83.58,0,0,0,6-10.6l1.71.5a12.67,12.67,0,0,0,9.39,13.53c5.56,1.64,11.44,0,13.26-6.2,4.3-14.29-23.94-17.06-17.5-38.58,3.08-10.32,12.65-16.69,26.25-12.62,6.4,1.9,11.46,6,12.88,8.48-1.94,2.56-3.74,5.21-5.54,8Z"/><path class="cls-2" d="M542.1,1020.28c-2.28-.54-4.5-1.21-6.84-1.6s-4.65-.43-7-.62l9.11-56.66A129.24,129.24,0,0,0,520,959.93a20.65,20.65,0,0,0,1.16-3.88,37.08,37.08,0,0,0,.16-3.94l47.44,7.65a23.19,23.19,0,0,0-1,3.79,29.3,29.3,0,0,0-.23,4.05,127.68,127.68,0,0,0-16.26-3.94Z"/><path class="cls-2" d="M581,999l9.26-21.52,7.81,22Zm19.08,6.19c2.32,6.3,4.14,12.72,6.11,19.63,2.72-.1,5.36-.31,8.06-.24s5.29.4,8,.67l-24.45-65.48a34.55,34.55,0,0,1-3.55.2,26.09,26.09,0,0,1-3.53-.38l-28.29,64c1.5,0,3-.21,4.45-.12s2.9.2,4.43.34c1.9-6.39,4.36-12.1,7-19.17Z"/><path class="cls-2" d="M665.15,960.48c5.54-1.08,12.33-3.14,15.2,4.19a23.54,23.54,0,0,1,1.35,4.5c1.82,9.44-2,14.93-11.86,15.88ZM662.5,1021c2.23-.61,4.5-1.32,6.78-1.77s4.61-.57,7-.83L670.57,989l.69-.12c2.63,3.08,6,6.82,7.86,9L693.73,1015c2.71-.71,5.41-1.52,8.14-2,2.89-.54,5.68-.8,8.47-1.15l-4.66-5c-7.17-7.46-14.47-14.81-21.17-22.63,8.2-3.47,12.83-10.25,11.13-19.24-1.18-6.23-4.73-9.82-10.46-11.58-4.29-1.25-11,.2-15.2,1l-19.55,3.74Z"/><path class="cls-2" d="M705,946.1c2.29-.52,4.64-1,6.86-1.66s4.33-1.66,6.47-2.53l19.28,61a65.68,65.68,0,0,0-6.81,1.66c-2.25.7-4.36,1.66-6.56,2.53Z"/><path class="cls-2" d="M799.81,965.18l1.47,8.16c-3.88,4.95-9.46,8.72-15.15,11.32-18.11,8.31-37,3.41-45-14-10.13-22.13.48-39.26,19-47.71,5.65-2.54,13.09-4.2,19.22-3.75.56,3.22,1.41,6.35,2.1,9.64l-1.23.52c-5.19-3.12-12.12-3.86-17.61-1.37-14.09,6.48-13.61,22.55-7.9,35,6.62,14.48,18.43,21.4,31.48,15.41,5.29-2.41,10.08-7.91,12.28-13.32Z"/><path class="cls-2" d="M816.58,937.92,811.7,915l19,13.37Zm19.1-6c5.58,3.79,10.75,7.93,16.38,12.45,2.2-1.63,4.17-3.36,6.37-4.88s4.59-2.74,7-4.07l-57.88-39.22a22.87,22.87,0,0,1-2.74,2.21,21.66,21.66,0,0,1-3.11,1.79l14.07,68.5c1.16-.9,2.27-1.87,3.54-2.72s2.51-1.47,3.74-2.23c-2.1-6.34-3.38-12.4-5.35-19.67Z"/><path class="cls-2" d="M102,594.41a19.62,19.62,0,1,1-19.58-19.58A19.56,19.56,0,0,1,102,594.41"/><path class="cls-2" d="M1141.29,594.41a19.59,19.59,0,1,1-19.55-19.58,19.6,19.6,0,0,1,19.55,19.58"/><path class="cls-2" d="M474.08,468.4c1.4.59,1,2.15,1.4,3.31a.65.65,0,0,0,.57.38c.76.19.23,1.6.57,1.6,2.12.36,4.32,0,6.43.36.76.19,1.16,1.37,2,1.77a1.79,1.79,0,0,1,.94.39c1,.58,1.17,1.74,2.16,2.32h.57a28,28,0,0,0,1.94,2.34c1.16,1,2.91.4,4.26,1.56.21.38,1.2,0,1.82.19.76.4.76,1.58.55,2.37h-.74c-.23.16,0,.57,0,.95v1.55a5.06,5.06,0,0,1,5.61,2.56.8.8,0,0,0,.78.19c0,1.37,1.16,2,2.34,2-.21.36.14.95.36,1.14s.8-.19,1,0a2.43,2.43,0,0,0,1.93.8c-.19.36.45.57.17.95,1.18.21,1.39,1.76,2.51,1.56,0,.2.49.41.24.58,1.16.59,2.95.2,3.88,1.77.37.76,1.54.76,2.51,1,3.15.8,6,1.75,9.39,1.2,1.76-.25,3.46,0,5.26-.25v1c-2.34.55-4.5.19-6.82.4a78.68,78.68,0,0,1-8.94.15c0,.42-.2.78.14,1,5.06.75,10,.18,15.19,1.16.21,0,.83.38,1,.38,1.13.37,2.53-.2,3.69.37.16,0,.54.79,1,1.19.57,1,0,2.15.19,3.1.38.59,1.18.78,1.73,1.18,1.18,1.18,2.35,2.91,1.37,4.09a5.3,5.3,0,0,0-1.18,4.65,1.72,1.72,0,0,0,.8,1.39c.76.52,1.71.17,2.11.78a6.48,6.48,0,0,1,1.58,3.13c.39-.21.58.37,1,.18.19,1.17,1.34,1.35,2.1,1.95.21.19-.19,1,0,1.16.83.78,2.35,1,2,2.34a5.2,5.2,0,0,1,1.56,1c.19.14-.25.75,0,1.15a18.84,18.84,0,0,1,1.71,1.54c.4.6,0,1.56.4,2,.36.58,1.56.78,2,1.39s1,.95,1.3,1.54v.76c.47,0,.57.4.82.59.79,1.2.19,2.53.39,3.92,0,.19.19.38.54.38a3.14,3.14,0,0,1-.93,2.73,6.13,6.13,0,0,1-1,1.35v.78c-1,.78-1.92,1.39-1.92,2.53-.61,0-.61.59-.95.78v.59c-.42.57-1.41.38-1.58,1.18-.42-.21-.85.17-1,.17a3.68,3.68,0,0,0,.16,4.86c.28.4.28,1.16,0,1.16-1.3,1.18-2.7,2.55-1.94,4.11.24.38,1.18,0,1.78.19a11.17,11.17,0,0,1,1.55,1.75c1,.78,0,2.33,1,2.54,1.19.18,1.54.94,2.3,1.37a4.68,4.68,0,0,1,2.56,1.94c.16.19.8.59,1.18,1,.19.4,0,.78,0,1.14.19.44,1,.63,1.19,1.18.18.4-.22.8.18,1.18.57.57,1.19,1.57,1.75,2.16.38.18.15,1,.78,1.16.38,0,.76-.21,1,0v.76c.82.78,2,.23,2.89.61.38.17,0,1,.19,1.35.44.38,1.2.61,1.63,1v.59c.71.6,1.66.6,2.46,1,.23.21.23.59.64.8.37.38.95,0,.95.17a4.77,4.77,0,0,1,.8,1.57c.17.19.35.58.74.38a2.74,2.74,0,0,0,2.31,1.77c-.14.19.22.56.22.56a4.73,4.73,0,0,0,5.25-1.34c4.45.21,9.16-.4,13.61,0a1,1,0,0,1,.8.61h.57c.19.38.43.38.59.55a55.42,55.42,0,0,1,5.42,1.56c.24.21.45.4.45.61,1.52.59,3.08.17,4.67.17a4.78,4.78,0,0,1,2.91,1.19c.76.77,2.49.77,3.86.18.78-.59,1.54-.18,2.39-.38v.6a9.66,9.66,0,0,0,3.1,2.15,38,38,0,0,0,4.68,1.14c.34,0,1,.8,1.5.61v-.8c-.36-.57-1.35-.78-1.5-1.37-.23-.36-.61-1.16,0-1.55.34-.18,1.33-.18,1.33.19.8,1.78,2.34,2.52,3.74,3.53a12.69,12.69,0,0,0,4.83,2.91c1.39.6,2.67.4,3.9.79,0-.39.2-.76,0-1a3.5,3.5,0,0,0-.8-.41c-1.33-1.56-3.1-1.92-4.66-2.91a22,22,0,0,1-2.73-1.75c0-.19-.37-.8-.16-1a3.64,3.64,0,0,1,3.9,1.16c2.49,2.15,5.42,3.52,7.15,6.44,1,1.35,2.54,1.73,3.3,3.1.42.78,1.18,1.16,1.36,1.77.43,1.37.6,2.91,0,3.88-.18.4-.71,1-.58,1.16,1.41.6,3.16.78,3.74,2.16a9.7,9.7,0,0,1,.94,2.72c0,.38,1,.38,1.16.19.76-.76,2.16-.59,3.13-.76-.17.36.37.36.57.76H656c.19.19,0,.38.4.59,1.18.38,2.37-.21,3.27.38.63.21,1.18.81,1.82,1,.92.36,2.08,0,2.84.55a2.33,2.33,0,0,0,1.56.4c1,0,2,.78,2.94.78-.21.19.23.38.23.6,1.3,1.34,3.3.21,4.85.76.19,0,.39,1,.53,1.16a5.84,5.84,0,0,0,2.72.23c-.35,1.54,1.4,1.54,2.36,1.92a16.64,16.64,0,0,0,4.46,1.37c.4.22.8.8,1.18,1,.38,0,1,.37,1.39.18,0,.55.53.55,1,1v.37a15.06,15.06,0,0,1,6.18,3.53,18.88,18.88,0,0,0,4.11,2.32,11.38,11.38,0,0,1,3.31,2.36c.41.19,1.21,0,1.57.38.17.41.4,1.17.57,1.55.61.39,1.77,0,2.32.58.61.41,1,1.55,1.56,1.74a4.55,4.55,0,0,1,2.56,3.73,2,2,0,0,0,.77,1.35c.79.19,1.55,0,2.33.19.57.21.57,1,1.16,1.18s1.15.19,1.79.39c1.9,1,3.08,2.93,5,3.92.17,0,.79.19,1,.19.54.76,1.53,1.37,1.91,2.3a4.9,4.9,0,0,1-.16,2.15c-.22.41-1.21.41-1.4.8a8.8,8.8,0,0,0,0,2.12c.38,0,.62.42.76.42,1.18,0,2.36-.8,3.74-.61-.22.19.38.42.21.61a.88.88,0,0,1,1,.19,3.71,3.71,0,0,0,3.48,2.72c.17.19.4.38.57.59.59.38,1.18,0,1.35.19,1,1.35,2.37,2.15,2.93,3.7.19.8,1.16,1.18,1.92,1.75v.76c.62.21.8.78,1.57.78.23.21.23.8.44,1,.78.57,1.18,1.35,1.89,1.94s0,1.54.57,1.76c1.4.37,2.18,1.15,3.56,1.34A2.79,2.79,0,0,1,748,681c.47,0,.62.4.83.61,0,1.73.35,3.69.17,5.42-.17-.19-.38.4-.53.21-.26.78.15.95.53,1.56.18.38,0,.93,0,1.54a.4.4,0,0,0,.37.39h1a2.53,2.53,0,0,0,2.13,2.72c0,1.94.14,3.92-.76,5.65-.26,0-.42.4-.8.22.18,1.15,0,2.31-1.4,2.31,0,.39,0,.58-.17.79-.42.21-.75-.21-1.16,0-.61.61-1.41,2.31-1,2.53,1.56.38,3.36,0,4.9,0,.92,0,2.1,1,3.31,1.37.55.21,1.37.78,1,1-1.2.4-2.74,0-3.76.59-.71.4.21,1.19,1,1.75v.77c-1.38,0-2.72-1-3.93-.2-1,.59-1.35,2.53,0,3.11.45,0,.8.23,1.21.23a11,11,0,0,0,3.9,1.52c.76.21,1.12,1.79,2.32,2,0-.78-.38-2,.36-2.32,1.18-.4,2.36.36,3.52.57a.79.79,0,0,1,.59,1.18c-.38.17-1.18-.4-1.6.17-.15.59.23,1.4-.15,1.58-.19.38-1,0-1.56.19v.59h.55c-1.35.59-3.1-.4-4.1.38-.19.17-1.32-.19-1.92-.19v.59c1.17,1,3.11.77,3.7,2.13a32.63,32.63,0,0,0-6,.19c-.18,0-.35.58-.61,1-.61.39-1.75,0-2.13.39-1,.59-1.33,1-2.51.78v1.35c-.4-.17-.62.23-.78.42-.26.55,0,1.16,0,1.75,0,.19.38.19.38.36,0,.38-.22.8,0,1,.75.59,1.37,1.61,2.55,1.18a24.94,24.94,0,0,0,3.1-2.91c.57-.8,1.75-.59,2.7-.8.79-.19,1.35.4,1.76.4,1.41,0,2.77-.19,4.11-.19a2.67,2.67,0,0,0,1.35-.76c.59-.42,0-1.56.17-2.36.18-.39.8-.39.8-1a20.87,20.87,0,0,0,4.9-.39c.07,0,.12-.09.14-.26,0,1.21-.25,2.56-1.73,3a16.75,16.75,0,0,0-2.13,1.35c-.59.4.19,1.58-.4,1.75-3,.59-6-.76-9,.38-.21,0,.43,1-.21,1.58h-.57v.62c1.38-.24,1,.94,1,1.91h-1.37c-.34,0-.22-.61-.6-.61a3.05,3.05,0,0,0-3.1.42h-.59v.77c-.36.18-1.33-.19-1.33,0-1,1.93-.83,4.07-1,6.24,0,.21-.4.38-.57.57-.38,1.56.57,3.51-.81,4.29s-1,2.71-2.75,2.71c-.18-.18-.33.39-.33.81a2.65,2.65,0,0,1-1.77-.42,3.09,3.09,0,0,0-2.36-.19v.56c-1.92-.16-3.86-.16-4.86,1.76-.78,1.75-.38,3.73-.19,5.65a5.14,5.14,0,0,0-3.31,2.53,9.74,9.74,0,0,0-.41,3.49c0,.21-.59.42-.59.59-.18,2-.4,4.12,1.76,5.46.21,0,0,.79,0,1.19.44-.21,1,.19,1.35.4.61.17.8,1,1.39,1.35,1.38.75,3.31.95,4.1,2.32.54.59,1.18,1,1.72,1.56,0,.21.17.8.17,1,.85,1.16,2.15,1.16,3.15,2.13,0,.19.16.57.16.78,3.36,2.71,5.11,6.4,8.78,8.58.62.19,1.38,0,1.78.4.71.37,1,1.54,1.59,2.51.75,1.56,2.46,2.34,3.85,3.69a4.42,4.42,0,0,0,2.73,1.56,14,14,0,0,0,7-.17,25.15,25.15,0,0,1,14.23.2c.37.2,1,.56,1.55,1v.4c2.13-.2,3.89.77,5.66,1.78a3.65,3.65,0,0,0,3.11.19c.37-.19-.62-.8-1-1.2,1.18-.36,2.15.4,3.06.82.64.19,2.51.22,3.05.81a14.12,14.12,0,0,0-2.82.73c-.23.17,0,.78,0,1,1.78.78,3.7,1.16,5.26,2.35,1,.77,2.18.18,3.14.56,1.55.79,3.13.6,4.65,1.38.42.19,1,0,1.56,0s1.16,1.77,2.17,1.93c.55.13,1.12,0,1.54.39.57,1.16,1.5.78,2.35,1.39a.81.81,0,0,0,1-.23c.22-.57.57-.95.57-1.52.41-1.37-.23-2.74.41-3.72s-.24-2.12.78-2.32c1.73-.61,1-2.72,1.18-4.09h-.62c-.23-1.56-.8-2.74-.56-4.28a1.85,1.85,0,0,0,1-3.13c-1-1-2.37-1.94-2.71-3.27a9.61,9.61,0,0,1-.4-5.68c0-.59,1-1,1.14-1.54.45-1,.45-2.34-.35-2.74-1.35-.61-3.13.23-4.12-1.18-.12-.21-.71.21-1.11,0-1.57-1.16-2.33-3.7-4.69-3.11-.4-1.35-2.15-1-3.15-1.35-.17-.2-.35-.4-.35-.59-1.59-.4-3.15-.21-4.31-.78s-2.49-.78-3.31-1.77c-1.52-1.56-3.29-2.34-4.62-4.07-.22-.22-.86.19-1,0a3.36,3.36,0,0,0-1.54-.78,3.83,3.83,0,0,1-1.33-3.49c0-.21-.61-.61-.61-.82,0-1.37.19-2.93-1.18-3.88V753c-1.14-1-1.14-2.35-1.69-3.68a7.13,7.13,0,0,0-2.55-2.15,5,5,0,0,0-2.55-.21c.23.21-.17.38-.17.57-.36-1.33-1.4-2.49-.6-3.48.41-.59.41-1.37.77-1.56a27.37,27.37,0,0,1,3.9-1.17c.57,0,1.35-.39,1.92.2a5.87,5.87,0,0,0,2,1.75c0,.21.19.59.38.59,1,.19,2.16.4,2.75-.21a26.1,26.1,0,0,0,2.12-2.51v-.78c1.14-1.36,3.13.18,4.24-1.36h.64c.55-.39.4-1.18.78-1.74h.78c.19.35,0,1.13.38,1.54,1.94,1.56,4.43,1.37,6.85,1.56.39,0,1.18.38,1.18.78,0,0,1,.21,1,.38.58.8,0,1.35-.62,2a6.24,6.24,0,0,0,0,1.78c-.17,0-.33,0-.33.16,0,.59-.24,1.56.75,1.35a19.63,19.63,0,0,1-.23,3.69c1.94-.18,4.9-.76,5.49,1.78.35-.19.35.42.76.42a2.32,2.32,0,0,0,.18,1.33c2.54,1.39,5.47.4,8.19.57,0,1,.38,1.94,1.54,1.77,0,.59.19,1.59.64,1.59a26,26,0,0,0,5.24.17c1.13,0,1.29.78,2.1,1.16.17,0,.59.21.8.21,0,.19-.21.57.14.57s1-.19,1.41,0a1.7,1.7,0,0,0,1.34.59c.76.37,1.78,1.75,2.16,1,.75-1.18-.78-3.12,0-4.49.23-.39,1.35-.39,1.92-.19,1.18.59,1.37,1.94,2.36,2.53,1.94,1.39,3.12,3.14,4.64,4.87.4.21.4,1.56,0,1.76a5.48,5.48,0,0,1-4.64.18c-1-.59-.21-2.53-1.18-3.31-.55-1-2.11-1-3.1-.36-1.4.55-.53,2.32-.38,3.67,0,.4.76.59,1.37.78.76.6,1.32,1.36,2.11,1.94.38.58,0,1.59.38,2.13a22.15,22.15,0,0,0,1.93,2c1,1.18,2.73,1.33,4.55,1.56l-.35,1.31c-3,1.37-3.56,3.5-2.39,6.43.59,2.06,3,2.91,3.8,5.26a2.42,2.42,0,0,0,1.16.57c0,1.16,0,2.64.62,3.21.29.88,1.12,1.47,1.12,2.33a6.21,6.21,0,0,1-2.33,6.13c-.57.59,0,2.06-.57,2.36-1.74,1.47-3.21,2-4.66,3.81a3.22,3.22,0,0,1-.73,0c-.45,1.49-.12,2.65-.12,4.12-.88-.31-1.16.3-1.49.87a6.92,6.92,0,0,0,.33,3.5c.52,1.18,1.7,1.44,2.87,1.73-.24.31.31.61.31.87h1.15c1.17,1.19,2,2.37,2.91,3.23.59.89,2.61.56,3.56,1.75.52.3,1.41,0,2,0-.33.59.59.3.59.89a4.23,4.23,0,0,1,2.58,1.16,2.11,2.11,0,0,0,.62,1.17h1.13c.57,2.05,2.37,1.46,3.82,2.64.31.58.85.84.85,1.73h1.49a1.91,1.91,0,0,0,2.34,1.47v.6c.88.28,1.75.58,1.47,1.72h.85v.59a3.18,3.18,0,0,1,1.78.6c3.21,2.6,5.51,5.84,8.18,9.34.57.59,0,2.35.57,3.2a16.32,16.32,0,0,0,1.49,2.06c-1.49,0-1.22,1.44-1.22,2.34a2.44,2.44,0,0,1,1,.26,1.42,1.42,0,0,1,.45.33,3.53,3.53,0,0,1,.07,1.8,3.13,3.13,0,0,0-.07.79,2,2,0,0,1,.53,0,2.54,2.54,0,0,1,1.53.94c.28.31,0,1.17,0,1.45.85.3,2,0,2.32.88,1.13,4.58.35,9.13,1.13,14a.55.55,0,0,0,.08.33c0,.57.88.87,1.42,1.15l.47-.7.38-.66.85-3.53c.86-2.61-.19-.08.34-2.42,1.22-4.64,0-9.34-1.74-13.42-.59-.57-1.18-1.16-1.72-1.75-1.21-2.91-1.21-4.66-3.53-7v-1.75c-.59.59-1.18-1.16-1.75-.59,0-3.5.57-7.6,0-11.08a11.59,11.59,0,0,0-2.35-2.93c-1.75-.57-4.07,0-5.82,0,.59-.57-.59-1.16-.59-1.77-2.32.61-4.14-.57-4.14-2.9h-1.7v-1.16c-4.12-1.18-6.42-4.13-6.42-8.18,1.18,0,3.46-2.37,4.62-1.76.64-1.74,2.39-2.36,3.5-4.09s4.14-2.93,6.48-4.07a17,17,0,0,0,3.49-2.94c.58-1.16,2-2.34,2-3.5,2.3.55-2.18-3.12.14-3.12,1.16-.6,4.26.8,3.81.05,3.95.14,10.94.75,10.94-5.1,2.93,1.16,3.5-2.93,3.5-4.66a34.2,34.2,0,0,1,1.78-11.12c.56,0,.56.61,1.34.45-.16-2.77-.16-6.28-.16-9.19,0-2.36.57-5.27-1.18-7.6-.57,0-1.16-1.18-1.78-.58v-1.19c-4-1.16-1.77-5.84-2.34-8.74-1.7.58-1.7-.59-2.32-1.77-1.18-.57-3.5,1.18-4.62-.57v-1.75a13.7,13.7,0,0,1-4.71-10.53c2.91.59,3.5-2.93,5.24-3.48a7,7,0,0,0,3.5-3.51c1.75-2.32-.59-5.82,1.21-7,2.27-1.75,5.82-1.16,7-2.91.57-.59,1.75-1.75,1.75-2.37,2.3-.57,5.85,1.2,8.17-.57,1.18-1.18,2.86-1.75,4.07-2.89s1.75-3.72,4.1-3.72v-1.16c3.85,0,3.1-3.88,2.33-6.2-.78-2.76-3.5-4.7-5.82-6.64-.4-.36-1.58.4-2,0-.4-.79-1.94-.79-1.54-2H912a2.16,2.16,0,0,0-.76-1.54c-.81-.38-1.94.38-2.74,0a38.25,38.25,0,0,1-4.27-4.28h-1.58a6.25,6.25,0,0,0-4.31-2.73c-.38,0-1.56-.4-1.11-1.54-.81,0-1.61.36-2,0-.76-.78-1.17-2-1.94-2.74h-1.16c-.78-1.54-1.94-3.12-3.49-3.52-1.18,0-2-.38-3.1.4a3,3,0,0,1-2-.29,4,4,0,0,0-2-.54l-1.27-1.85,1.49,1.4c.87-.21-.64-1.28.11-1l-.09-1.44c0-12.79.33-71.66,0-72.7,1,2.94,5.87-1.16,9-1.56.8,0,1.51-1.18,2.72-.78V594c2,.38,3.84-1.94,3.5-3.91-1.54.39-1.93-.77-2.86-1.56-2.56-4.64-1-9.73-.87-14.6,2.58-1.35,5.27-4.45,7.24-.57a1.67,1.67,0,0,1,.94-.61,3.14,3.14,0,0,0,2.14,1c4.3.78,8.56,1.56,12.78.21.42-.21,1.28.57,1.28,1.35-.41,1.57-.86,3.12,0,4.69,1.49,2.7,5.08,3.5,8.16,3.5.78,0,.4-.8.17-1.35,1.41,2.51.23,5.25,2.06,7.31a23.19,23.19,0,0,0,4.7,5.12c2.71,1.94,7.08-2.51,9.93-2.72,3.8-.57,3-6.06,3.16-9.71,1,.15,2.14-.23,2.94.15a7.85,7.85,0,0,0,3.91,2.36c0-1.4,2.24-2.11,3.5-3.1l.78-1.35a4.6,4.6,0,0,0-1.63-.8c-2.46-.76-5-1.17-7.53-2a6.8,6.8,0,0,1-3.32-2.53c-.19-.59-.19-1.35-.54-1.72a4.09,4.09,0,0,1-1.58-1.78c-.64-1.94-.24-2.7-.81-4.68-1.75,0-3.67-1.36-5.49-.77-1.28.39-1.9,1.74-3.08,2a4,4,0,0,1-3.27-.4c-2-1.38-4.68,0-7-1.17-1.58-.78-3.59-.57-5.15-1.35a39.26,39.26,0,0,1-7.16-3.92c-1.58-1.17-1.22-3.53-2.69-4.85-3.51-3.11-7.75-7.53-8.08-11.2-1.32-1.16-5.35.3-6.38-1.28-1-1.37-1.1-3.19-2.3-4.28-1.59-1.36-1.59-2.7-2.89-3.51.14-2.18-6.24-7.29-5.39-6.34-1.21-1.35-2.39-2.74-3.63-4.16a5.86,5.86,0,0,1-1.13-1.95c-.76-1.18-1.59-2.15-2.51-3.33-2.56-3.49-4.66-6-7-9.73a15.29,15.29,0,0,1-2.32-4.66c-.47-1.78-1.06-1.09-1.58-3.89-.17-.95.19-2.74-.34-3.92a5.76,5.76,0,0,0-2.38-2.7,3.91,3.91,0,0,0-3.11,0,20.32,20.32,0,0,0-4.09,2.13c.26-.14.64.19-3.31.19-3.46-.31-2.75-.57-5.26-3.51a12.35,12.35,0,0,1-2.49-3.71c-.71-1.23-1.58-1.95-2-3.08s-.39-2.37-1.13-3.13c-.21,0-.61-.19-.8-.19-2.73-2.55-5-5.28-7.75-8-.64-.79-1.6-1.19-1.94-2-1.39-1.92-2.57-3.69-3.93-5.44a8.44,8.44,0,0,1-1-1.56,18.62,18.62,0,0,0-1.54-3.15c-.4-.72-1-1.73-1.32-2.51-.43-1-.62-2.13-1-3.1-.59-1.17-1.94-1.35-2.88-2.16-2-1.56-3.32-3.33-5.07-5.08-.23-.38-1-.55-1.56-1-.22-.18-.59-.58-.83-.77-.16-.39-.38-.95-.59-1.36a14.46,14.46,0,0,0-1.9-2.93c-3.48-3.29-6.64-6.81-10.12-10.34,0-.17-.43-.34-.22-.74a6.42,6.42,0,0,1-.92-.19c-.41-.21-.62-1-.85-1.37a11.07,11.07,0,0,0-2.09-2.36c-.8-.58-1-2.32-2-2.71-1.52-1-1.94-2.72-2.7-4-1.16-.59-1.92-3.5-2.74-4.11-1-.95-1-1.94-1.54-2.91a15.55,15.55,0,0,0-2.33-2.89,8.11,8.11,0,0,1-1-2.56,18.09,18.09,0,0,0-1.94-3.48c-.55-1-.29-2-.93-2.55-1.39-1.19-2.19-3.11-3.33-4.48-.41-.4,0-1.37-.41-1.73-.18-.42-.9-.42-1.37-.8-.17-.59.24-1.35,0-1.75-1.09-1.56-2.48-2.74-3.46-4.48,0-.19-.4-.56-.4-.56-.59-.81-.18-2.37-1.18-3-.4,0,0-1.56-.17-1.75-.39-.55-.39-1.33-1-1.95-.34-.56-.53-.56-.76-1.16-.14-.4-.95.19-1.17-.18-.14-.59.22-1.18,0-1.76-.78-1-.47-2.71-1.7-3.31s-.66-1.94-.82-2.93c-.36,0-.74-.19-.74-.36.16-1.2-.78-2.18-.17-2.95a3.22,3.22,0,0,0,.55-2.12c-.38-.59-1.38-.77-1.56-1.37a6.5,6.5,0,0,1-.15-2.74c-.23.38-.61,0-.82.19v-.78c-1.33-.57-2.94.21-4.05-.57a14.7,14.7,0,0,1-2.73-2.73,2.69,2.69,0,0,0-4.33-.2c-.35.2-1,0-1.35,0,.19-.39-.23-1,.24-1.35.76-1,1.3-2,2.11-2.94.76-1.37.23-3.5,1.77-4.09.62-.22.55-1.73.15-2.33s-.36-1.37-.71-1.93c-.45-.77,0-1.74-.45-2.56-.53-.57-1.57-.95-1.71-1.56-.4-1.73,0-3.48-.4-5.24a10.26,10.26,0,0,1-.21-2.53,4.76,4.76,0,0,1,1.56,0c1.21.78.23,2.34.76,3.32.64,1.35,1,2.72,1.56,4.09.23.36.78.76.78,1,.38,1.18,0,2.53.38,3.88,0,.57,1.18.79,1.59,1.38.19.57-.19,1.35,0,2,.35,1.14,2.17.76,2.53.19.54-.78,0-2.15-.79-3.13-.16-.4.2-1.18,0-1.75-.39-.57-1.39-.57-1.55-1a13.13,13.13,0,0,1-.19-3.9c0-.17.35.19.37-.17-.37,0-.56.36-.95.17-.4-.38-1-.78-1-1.18-.38-.77-1.16-1.54-.81-2.52-.35,0-.35-.58-.75-.4a3.13,3.13,0,0,0-1.54-3.48c-.15-.42.21-1,0-1.37a1,1,0,0,0-.8-.42c-.17-.19-.17-.36-.17-.78-.36,0-.36-.76-.76-.55,0-.59.17-1.16-.21-1.58-.55-.17-1.18-.95-1.95-.77a5.81,5.81,0,0,0-.18-2.72c0-.42-.57-.76-1-1.18-.41-.78.4-1.73-.15-2.53-.8-1-1.44-1.94-1.18-3.1a5.53,5.53,0,0,0-1.77,0c-2.35,1.72-1-1.43-2.28,3.83-.23,2.13.15,1.37.41,3.5.37-.21.37,1.92.71,1.92a1.83,1.83,0,0,1,.42,1.38c.34,1.16.79,1,.34,2.15,0,.17.23,2.91.23,3.08a6.62,6.62,0,0,0,.28,3.8c0,.17.13,1.87.34,1.47-1,2.13,0,4.66-1,6.65l-1.56.48a6.84,6.84,0,0,0-4.52.11l-7.74,1.12-1.9,3.27c0,.35,1.37,5.32,2.11,8.31-.36-.39-.69-.65-.69-.71a46.72,46.72,0,0,0-1.23-6.75c-2.39.28-5.28-1.38-7.58-.79-2.12.29-3.26,2.51-5.17,2.58.49,2-3.32,1.12-3.8,2.06-.4,1.4-1,1.09-1.54,1.4a11.5,11.5,0,0,1-2.83,1.21c-.12.24.12.52.12.81-2.63,2.05-6.07,1.46-9.29,2.34-2.08.59-3.74,0-5.72-.52a6.6,6.6,0,0,1-2.16-.36c-2.06-.28-4.07-1.14-5-3.2a1.81,1.81,0,0,1-1.17-.28c.31-.31-.33-.61-.33-.88-1.18.27-1.73-1.16-2.93-.91a5.41,5.41,0,0,1,.18-1.69c-1.34.85-1.91-1.23-3.09-.64-.27-1.13-.59-2.32-1.75-2.89-1.45-.89-2.35,0-3.49.88-2.74-.88-2.91.55-4.66.88-4.37.85-8.18-.88-12.56-1.19-.58,0-.58-1.15-1-1.42-.4,0-1,0-1.32,0-.29-.29-.29-.55-.29-1.16-1.42-.31-3.48,0-3.74.61a8.13,8.13,0,0,0-.63,2.87V353c-.5,0-.38-3.24-.9-3.24v.62c-.64,0-1.5-.29-2.14,0l-1.2.4c-2.06.59-3.84-.86-5.56-1.18.33-.55-.6-.55-.31-1.16a1.68,1.68,0,0,1-2-1.16,16.69,16.69,0,0,1-.62-3.27l2.89-.48c-.17-1.92.43-4.09.43-6-.22-.38-.6-.38-1-.38a4.89,4.89,0,0,0-.4-2.35,3.38,3.38,0,0,0-3.1-1.55c-.81.14-2.32,0-2.32-1.54-1.82-.2-3.5-1-5.3-.78v-.78c-.74-.19-1.73.2-2.46,0a3,3,0,0,1-1.63-2,3.29,3.29,0,0,0-2.51-3.52c-.39,0-.39-.38-.58-.55a9.14,9.14,0,0,1-3.1-.59,5,5,0,0,1-2.13-2.94c-.21-1.56.15-3.31,0-4.94a2.85,2.85,0,0,0-2.54-2.28v-.56c-1.32,0-2.88-.21-4,1a9.14,9.14,0,0,1-5.08.78c-.76,0-1.36,1-2,1.16a10.19,10.19,0,0,1-7.48-.12,11,11,0,0,0-1.49-2.79c-.42-.21-1.16.19-1.56-.08a1.33,1.33,0,0,1-.59-1.1h-.59c-.85,0-1.17-.67-1.47-.95,0-.29.3-.62.3-.9-1.44,0-2-1.75-3.48-1.44v-.88c-1.81.57-3.17-.9-5-.9-.31,0-.31-.85-.86-1.14h-1.49c-.59-1.46-2-1.46-3.5-1.46-.29-.29-.29-.86-.57-1.16-1.2-.29-2.63-.29-3.21-1.19-.31-.57.3-1.75,0-2.34a1.83,1.83,0,0,0-1.74,0c-2.69,2-5.86,2.63-8.23.88-1.45-.88-3.17-2.61-2.91-4.38a1.08,1.08,0,0,1-1.05-1.21,4.79,4.79,0,0,1-4.73-1.71c-.4,0-.94.88-1.78.88L505,319.09l-3.72-1.59-54.68-23.62-.09.14-7.15-3.24-7-4.67-10.91-4.66-16.34-2.36-1.85-2.2L394,275.28l-8.69-8.76-9.4-1.71-17.84,27.53,1,.9,1.28,1.16c1.56.21,1.94,1.39,2.95,2.55a3.39,3.39,0,0,0,.91.19,5.5,5.5,0,0,1,0,1.94.87.87,0,0,1-1.16.57v.78c-.17.39-.95,0-1.14.2a2.78,2.78,0,0,1-3.69,1.56c-1-.4-2.33-.59-2.75-1.37-.36-.95-1.35-1.17-1.94-1.55-1.35-1.16-2.72.57-2.51,2.33-.62,0-1.16,0-1.4.78H349c0,1.94,1.75,3.5,3.48,4.28.42.21.42,1.18.82,1.58.17.19.17.77.53.95h1c.23.22.4.4.4.59.19.17.8-.19,1.18.17a3.65,3.65,0,0,0,1.17.8v.58a2.8,2.8,0,0,0,1.37.77,1.58,1.58,0,0,1,.94,2.16c-.57,1.35-1.91,1.56-3.31,1.35,0,1.16-.35,2.53.62,3.5h.56a1.53,1.53,0,0,1,0,1.38c-.37.2-1,.2-1.35.39-.18.2.17,1,0,1-1,.57-1.93,0-1.58-1.16-.59,0-.59-.78-.76-.78-2.68-.58-5.65.78-8.38,0a7.38,7.38,0,0,0-5.82.74c-.8.61.55,2.36,0,2.93-1,.79-2.55-.75-4.12-.38.36-1.37.81-2.74.24-4.09,0-.19-.62-.36-1-.78-1.17-.78-2.56,0-3.75-.38a10.16,10.16,0,0,0-6.38,0c-.62.21.54,1.39,1.18,2,.78.4-1.18,1-1.95,1.18-.4.19,0,.59-.19.78-.58.21-1.41.21-2,1-.17.21-1,0-1.56.38-.14,0-.41.78-.78,1s-.76-.21-1.16.17a13.69,13.69,0,0,1-2.71,2.16c-.42,0-.61,1-1.18,1.15,0,.19-.23.78,0,1,.57.19,1.37.59,1.92.78,1.75.59,3.77,0,5.7.42v.78c.53.17,1.54-.21,2.09.17.42.19,1,1.18,1.39,1.56a7.88,7.88,0,0,1,1.95,1.37c.59.39,1.39,0,1.94.39s.92,1.16,1.54,1.36c1.58.6,3.31-.2,4.87.6s3.31,0,4.67.56c.23.2,1,.79.59,1.19-.36.19-1.33-.21-1.33,0a5.43,5.43,0,0,0-.22,2.72c.22,0,.38.38.77.17a4.9,4.9,0,0,0,0,1.79,1.37,1.37,0,0,0,.78.17c.59.78,1.37,1.82,2.32,2,2.93.37,6.05-1,9,0a1.61,1.61,0,0,0,.58.18c2,.38,3.88,0,5.68.58.13.21.52.58.4,1,.75.19,1.73-.38,2.46.19a20.51,20.51,0,0,0,2.34,1.58c.22.19-.16.74,0,1,1,1.19,2.39,1.58,2,3.32.42,0,.59.2.59.39a19.88,19.88,0,0,1,0,3.7c0,.19-.59.19-.59.19a10.63,10.63,0,0,0,.18,6s.64.39,1,.18c-.16,2.53,1.38,5.66-1,7.39a12.62,12.62,0,0,0-1.53,1.56c-.4.21-1.16-.19-1.59,0-.55.4-.73,1.39-1.37,1.78a4.3,4.3,0,0,1-3.11.56c0,1-1.37,1.57-.56,2,.75.58,2.3.18,3.45.18v.4c-.54.38-1,.6-1,1.38-.58-.21-.76.19-1.16.76h-.58a3.24,3.24,0,0,0,.19,3.48c1,1,3,.21,3.89-.55.8-.38,0-2.51,1-3.12v-.57c.19-.21.41-.21.81-.21-.22-.78.4-.78,1-1v-.38a11.45,11.45,0,0,1,3.68-.21c-.2,1,.37,1.56,1.34,1.58a4.68,4.68,0,0,1,0,1.75,4.58,4.58,0,0,0-1,2.13c-.57,0-1.32-.19-1.32,0-.59,1.37.19,3.12-.59,4.29-.22.19-.93-.12-1.4,0s-1-.2-1.14-.79c-.42-.38-1,.19-1.37.79-.35.19-1-.2-1.33,0-.63.57,0,1.34-.28,1.94-.76,1-2.48-.21-3.05.57a6.9,6.9,0,0,1-1.35,1c-.4.57,0,1.35-.4,2-.22.19-1-.24-1.4,0-.17.19-.4.95-.76.95a8.6,8.6,0,0,0-3.1.19c-.56.23.21,1.37-.56,1.37a7.76,7.76,0,0,0-2.18.76,2.1,2.1,0,0,0-.64,1.77c-.54,0-1.11.19-1.54,0a7.77,7.77,0,0,1-.78-1c-.14-.78-.54-.78-1.12-1-1.16-.57-2.13-.95-2.91-.21-.63.4.22,2.17-.63,2.55a3.15,3.15,0,0,0-1.3,1.37,2.46,2.46,0,0,1-1.17.17c-.82,0-1.41.6-2.17,1-.55.19,0,1.17.18,1.73,0,.4.84.22,1.17.22-.15,1.16,1,1.56,1.37,2.32.23.59-.15,1.18,0,1.75.21.23.21.4.57.4-.19,1.37,1,1.75,2.13,1.58,0,.95,1.37,1.36,1.18,2.32a1.44,1.44,0,0,1,1,.41c.19.94.39,2.32-.58,2.7-1.6.61-3.33,0-5.09.4.38,1,.79,1.92,1.17,2.7.59,1-.38,2.17-.38,3.31a1.51,1.51,0,0,1-1,.21c0,.59.23,1.17,0,1.56-.57.77-2,.19-2.87.38,0-.59.19-1.54-.39-1.94-.17-.21-.64,0-1,0,.19.78-.37.78-.57,1.17a8,8,0,0,0-.42,1.37s-.59-.21-.59.16c-.19.6.38,1.57-.19,1.76-.8.2-1,.8-1.52,1.18h-1c-.37,1-1.34,1.16-1.94,1.92v.59c-.78.78-1.93,0-2.34.78-.38.42-.94.59-1.39,1.2s.23,1.14.63,1.75H326c.41.57.61,1.54,1.18,1.95.58.18,1.55-.22,1.71.18a2.38,2.38,0,0,0,2.2,1.38c0,.36.21.59.21.95.34.42,1.18.76,1.18,1.2.13.76.34,2.11,0,2.51-1,.95-2.72.95-3.36,2s-.23,2.14-.23,3.29h.4a5.31,5.31,0,0,1-.56,2.52,3.3,3.3,0,0,0,.39,2.72c1.33,2,2.71,3.72,2.52,6.06-.2,0-.45,0-.45.18-.34,1.17.45,1.93,1.42,2.73a2.43,2.43,0,0,1,.16,1.35c.24.61,1,1,1.59,1.39.23.36,0,1.14.35,1.56.41.19.41.58.76.58v.8a6.46,6.46,0,0,1,1.21,3.46c0,.59.8,1,1,1.58.36.38.19,1.14.36,1.54.4.4,1,.8,1.18,1.16.4.42,0,1.39.4,2,.36.2.36.78,1,.78v2.51c.38-.19.16.4.56.4a1.89,1.89,0,0,0,.24,1.58c.35.38.74.74.74,1.14.56,2.15,2.05,3.34,2.9,5.07.76,1.55,2.35,2.34,2.9,4.09.42,1.16,2,2,2.52,3.12.79,1.75,2.56,2.92,2.37,4.67.57,0,1.37-.19,1.75.21a28,28,0,0,1,6.2,6.18l.81,2c.38.39.52,1,1.16,1a4.13,4.13,0,0,0,.19,2.13c.19.19.74.19.95.59v.95c0,.23.42.23.42.4a7.23,7.23,0,0,1-.42,3.52,2.1,2.1,0,0,0-.38,1.54,26.33,26.33,0,0,1,1.92,2.54c0,.2,1,.2,1,0,.95-1.55,1.35-3.3,3.27-3.3a4.57,4.57,0,0,0,0,1.57c.21.18.59.18.78.37.62.4.62,1.19,1,1.19a7,7,0,0,0,2.86.19c.81,0,1.57-.19,2.16.21.78.36,1.78.95,2.48,1.35,2,.76,4.12-.19,6.06.4.64.19.64,1,1,1.14.32.4,1.12,0,1.52-.17a7.47,7.47,0,0,1,4.09,0c1.17.19,1.57,1.37,2.13,1.76,1,.59,2.35,0,3.53.37.57.22,1.14.4,1.35.79.79.59,1.38,1.74,2.13,2.13a3,3,0,0,0,2.93,0c.39-.36.17-1.35,1-1.14-.15-.21.42-.4.21-.59a38.23,38.23,0,0,0,4.66.19c-.17.4.19.59.4.77.78.41,1.52.2,2.34.77.38.25,1,0,1.55,0,0,.25,0,.42.18.42,1.21,0,2.32-.42,3.31.17a18.23,18.23,0,0,0,1.93,1c.25,0,.61.8,1,1,1,.19,2.09-.4,2.73.19a4.8,4.8,0,0,1,2.1,1.95c.19.19,1-.2,1.16,0,.62.75-.17,2.12.47,2.32.93.61,2.7-.39,4,.18a3.84,3.84,0,0,0,2.17.81,1.6,1.6,0,0,1,.17,1c.61-.21.95.4,1.57.4.94,0,1.13,1.14,1.91,1.56.78.17,1.42.78,2.2,1,.38.42.95,0,1.3.23l1.19,1.14c-.81,1-.81,2.15-1.54,3.1-.6.6.19,2.14,1.14,2.56-.17.36.23.59.23.78.52-.19,1.16.19,1.73.59.19.36,1.18,0,1.37.38.93,1,.8.19,1.37,1.37L447,550h.59c.39,1,.39,2.13,1.73,2.16,0,.59-.21,1.16.26,1.75h.52a6.83,6.83,0,0,1,0,1.75c.59-.21,1,.4,1.35.59a7.77,7.77,0,0,0,.85,1.92c.33.59.53,1.2.9,1.79a7.17,7.17,0,0,1,1.4,3.29c0,.81,1.14.6,1.73,1.17s1,1.37,1.77,1.75a2,2,0,0,1,1.16.4c.17.38.4,1,.52,1,.64.8.81,2,2,2.53.76.38.76,1.54,1.19,2.32.21,1-.21,2.18.21,2.94.35.57.35,1.35.74,2.17a5.52,5.52,0,0,0,2.12,2.32c1.19.38,1.78,1.61,2,1.56,1.9-.58,2.72-2.15,4.07-3.33a12.24,12.24,0,0,0,3.1-5.44c.76-1.95.22-4.67.76-7,.22-.59,1.21-1,1.78-1.54v-.82c1.18-1.55,3.33-1.73,4.68-3.29.22-.38,1.16,0,1.75-.22s.81-1.14,1.21-1.14c.92-.19,1.47-1.16,2.34-1.56.34,0,.76-.19,1.16-.19-.23-.38.19-.61.19-1h.34a2.72,2.72,0,0,0,0-2.54c0-.17-.93-.38-.93-.8a5.1,5.1,0,0,1-.19-3.11,3.49,3.49,0,0,1,1.75-1.72,7.45,7.45,0,0,1,4.67,0c.95.38,1.77,1.72,3.1,1.54a5.08,5.08,0,0,1,1.2-3.91c.72-.95,2.3-1.33,3.29-1.75.79-.38.2-1.92.38-2.91a7.87,7.87,0,0,1,1.56-1.75c.17-.38,1.31,0,1.55-.17.78-1.39,2.15-1.78,2.91-2.94a2.26,2.26,0,0,1,1-1.18,4.53,4.53,0,0,1,3.1-.56c0-.39.64-.17.41-.57h.59a3.19,3.19,0,0,0,.94-2.94c-3.26-.17-6.79.38-10.08,0-.8-.23-.8-1.78-.8-2.93,0-1.59,1.18-1.56,1.18-2.91h.76c.42-1-.76-1.55-1.55-2.33v-.78c-2.1-.8-1.94-3.33-.94-4.68.17-.19.94-.38,1.35-.78s0-1.16,0-1.75h-.41c.24-1.38-.39-2.14-1.56-2.92-.18-.19-.18-.59-.38-.78-1.54-.78-3.1-.19-4.66-.57-2.34-.61-4.45.19-6.81,0a3.5,3.5,0,0,1-.95-.82c-.61-.53-1.4.21-1.92-.19a3.24,3.24,0,0,1-1-1.94,1.83,1.83,0,0,1-1.71-.4c-.23-.17-.23-.57-.23-.76s-.57-.4-.76-.59c-1.4,0-3,0-4.09-.79-1.38-.78-2.51-.59-3.95-.78-1.14-.38-2.46-.17-3.67-.57-1.88-.38-3.67-1-4.85-2.74s-2.9-2-4.45-3.12c-.34-.19-1,.21-1.38,0v-.58c-.23-.56-1-.56-1.52-1-.35-.08-.52-.39-.59-.79s.24-.85.36-1.37l.74-2.51a4.83,4.83,0,0,0-.17-1.56h-1a10.19,10.19,0,0,0-.65-1A16.91,16.91,0,0,0,457.3,487a.65.65,0,0,0-.29-.23,4.63,4.63,0,0,1-1.42-2.09,4.12,4.12,0,0,0-.18-.64,7.37,7.37,0,0,1-2.53-2.38c-.2-.38-1,0-1.54-.17-.41-.21-.6-.78-1-.78-1.56-.17-2.48-1.54-3.12-2.72-.15-.59-1.37-1.19-.91-2,.17-.38.91-.38,1.09-.76.06-1.18.46-2.51-.56-3.12-1.7-1-.79-3.29-1-5.06-.17-.4-.55-.6-.76-1-.36-2.13-1.52-4.09-.72-6.22a9.87,9.87,0,0,0,.38-6c-.38-.94-1.82-1.73-2.72-2.91-.23-.19-.83.19-1,0a2,2,0,0,0-.78-1c-.58-.78-2-.57-2.33-1.35-.57-.76-.77-1.75-1.35-2.53-.58-1,.34-2.16-.58-3.11h-.62a13.84,13.84,0,0,1-1.31-2.36c-.42-.59-1.82-.17-2.38-1.14a4.49,4.49,0,0,0-5.09-1,8.2,8.2,0,0,1-2.49.57c2.15-2.72,6.06-3.08,9.14-2.53-.36,1.18,1,1.37,1.18,2a4.09,4.09,0,0,0,1.78,2c1.54,1.37,3.1,2.7,5.2,2.7.41,0,.64.59,1,.79-.74.39-1.71.21-2.32.58-.39.22-.39,1.36,0,1.74a30.43,30.43,0,0,0,3.92,4.11c.14.19.53,0,.93,0-.4,1.77,1.6,2.56,1.94,3.7.38,1.37.62,2.53,1.79,3.29,1.8,1.2-.4,4.47,1.71,5.67.43.19.22.59.43,1a3.29,3.29,0,0,0,2.93,1.35c0,.39.17.78.36.78,1.75.22,3.74-.39,5.23.22.61.19,1.35,1,2.17,1,1.57,0,3.1.59,4.27,0,2.15-1.18,3.26-2,5.6-1.37l1,.19,1.4,1.94Z"/><path class="cls-1" d="M623.47,685.19c1.25-39.72,3-95.44,3.64-111.91,0-1.85.09-3.19.16-4,.52-11.41-.61-30.83,2.85-38.25s6.84-18.26,7.36-25.67,5.15-20.56,10.31-29.68l-16.56-6.84c-2.86,17.69-13.16,10.25-13.16,2.8S621,438,621,426.05s-1.72-149,9.69-203.2c4.44-20.82-25.66-4-32.5,6.27-9.71-8.54-20.55-6.27-23.37-3.4s-2.9,12,.53,17.7,5.73,8.53,5.73,24,8,167.79,9.09,189.5l-4-1.74-6.84,8s6.84,12,9.11,21.13c1.47,5.76,3.34,39.23,4.79,73.05.92,19.79,1.67,39.69,2.08,54.2l-9.14-9.7-8.57,10.86c13.71,21.68,14.82,50.2,14.82,65.63,0,3.94.1,11,.33,19.42Z"/><path class="cls-2" d="M589.38,702.89l-.13-5.06c-.22-8.47-.33-15.56-.33-19.51,0-10.18,0-41.19-14.28-63.77l-1.32-2.08,12.6-16,5.61,5.94c-.43-13.16-1.06-29.09-1.79-45-1.72-40-3.52-67.74-4.7-72.35-2.12-8.57-8.69-20.15-8.75-20.27l-1.21-2.12,10.12-11.86,1.15.52-.37-7.12c-2.31-44.65-8.44-163.23-8.44-176.9s-1.75-16.5-4.67-21.26l-.55-.9c-4.19-7-4.19-17.86,0-22,3.7-3.76,14.84-6.16,25.27,1,7.31-7.88,23.41-17.58,31.82-14.05,2.57,1.08,6.59,4.26,4.66,13.35-6.78,32.22-10.21,102.55-9.65,198l0,4.46c0,6.86-.9,18.13-1.71,28.06-.59,7.44-1.17,14.47-1.17,17.56,0,2.5,1.84,4.54,2.77,4.62h0c.61,0,2.45-1.84,3.45-8l.71-4.35,24.25,10-1.93,3.43C646,486,641.56,498.66,641,505.68c-.57,8.15-4.38,19.64-7.66,26.83-2.23,4.77-2.3,16.73-2.36,26.33,0,3.87,0,7.54-.19,10.64-.07.83-.1,2-.13,3.6-.66,16.8-2.42,72.5-3.66,112.2l-.07,2.27ZM581.83,613c14.07,24,14.07,55,14.07,65.37,0,3.11.07,8.15.2,14.29l24-9.79c1.24-39.56,3-93.52,3.57-109.67,0-2.06.09-3.36.15-4.14.14-2.86.16-6.44.19-10.2.07-11.36.13-23.1,3-29.22,3.11-6.83,6.55-17.44,7-24.45s4.34-18.58,8.89-27.68l-9.15-3.78c-2.63,9-7.76,9.74-10,9.56-4.91-.39-9.19-5.8-9.19-11.57,0-3.37.55-10.2,1.19-18.12.79-9.8,1.69-20.92,1.69-27.5l0-4.41c-.56-97.34,2.82-166.34,9.8-199.51.24-1.14.92-4.87-.54-5.47-4.65-2-20.74,7-25.65,14.39l-2.21,3.32-3-2.63c-8.78-7.71-17.39-4.77-18.59-3.58-1.44,1.43-1.83,8.67,1,13.46l.52.86c3.64,6,5.71,10,5.71,24.91,0,13.48,6.34,136.2,8.42,176.53l.95,18.44-6.78-3-3.58,4.2c2.12,4,6.48,12.64,8.28,19.86s3.84,49.24,4.89,73.74c.91,19.81,1.66,39.72,2.08,54.25l.25,9.17L586.4,607.17Z"/><path class="cls-1" d="M593.45,565.69c-2.46-2.15-4.68-4.37-7.29-6.67-28-24.54-55.36-51.32-54.2-100.43s50.79-86.75,72.45-101,38.91-37.73,23.39-50.8c-10.8-9.13-17.73-2.27-20,1.71S588.43,333,569.59,330.73c-9.66-.57-10.27-4.57-7.93-13.69l-6.32,2.87c-5.13,2.82-6.86-3.45-6.86-9.71s1.73-26.84,25.66-42.25,61.65-18.84,86.2,15.41,8,77.05-22.86,99.32S565,430.61,567.27,466.57c1.73,14.5-.42,32.28,24,52.81Z"/><path class="cls-2" d="M597.31,573.7l-6.15-5.38c-1.29-1.12-2.51-2.26-3.74-3.42s-2.31-2.15-3.57-3.26c-29.84-26.16-56.54-53.73-55.38-103.13,1.1-48.65,46.85-86,74-103.87,16-10.54,27.16-24.46,27.75-34.66a12.11,12.11,0,0,0-4.68-10.56c-3.38-2.86-6.46-4.09-9.1-3.6-3.33.6-5.23,3.73-5.58,4.36-2,3.57-20.26,26.55-41.71,24-3.42-.2-7.92-.88-10.42-4.31a10.21,10.21,0,0,1-1.7-6.93l-.27.13a6.85,6.85,0,0,1-7,.12c-3.94-2.33-4.77-8.36-4.77-13,0-8.31,2.67-29.34,27.27-45.18,26.13-16.78,65.74-18.8,90.92,16.32,25.76,35.95,8.19,81.2-23.65,104.18-2.88,2.07-5.85,4.18-8.86,6.31-29,20.56-61.83,43.85-59.92,74.53.22,1.82.39,3.88.56,6,1,12.9,2.22,27.52,22.23,44.34l1.18,1Zm20.34-275c4,0,8.2,1.79,12.41,5.35a19.18,19.18,0,0,1,7.15,16.31c-.9,15.15-17.2,31.05-30.88,40.07-21,13.81-69.82,51-70.87,98.2-1.11,46.46,23.35,71.74,53,97.73l1.11,1-1.69-36.33c-21.12-18.3-22.45-34.81-23.53-48.14-.16-2-.32-4-.55-5.93-2.17-34.76,32.36-59.25,62.82-80.86,3-2.13,6-4.21,8.81-6.29,29.09-21,45.29-62,22.07-94.45-22.62-31.59-57.23-30-81.47-14.51-21.71,14-24,32.15-24,39.31,0,4.44.92,6.66,1.37,7l13.49-6.39-1.8,7.05c-.42,1.61-1.67,6.51-.65,7.88.26.37,1.32,1.24,5.4,1.48,17.12,2,33.46-17.74,35-20.49.87-1.54,4.18-6.67,10.42-7.8A13.26,13.26,0,0,1,617.65,298.74Z"/><path class="cls-1" d="M592.75,697.74c.57,24.38,1.87,60.73,3.1,69.61,1.73,12,3.42,58.79,1.16,90.77s13,39.93,22.23,46.79c-.54-16.58,2.3-164.38,2.89-178.65.17-4.5.71-20.69,1.35-41.07Z"/><path class="cls-2" d="M623,912.06,614.79,906c-9.36-6.73-23.51-16.88-21.27-48.12,2.26-31.76.6-78-1.12-90-1.32-9.44-2.6-47.05-3.15-70l0-2.4,37.93-15.51-.17,5.36c-.64,20.43-1.16,36.61-1.35,41.13-.52,12.8-3.45,161.1-2.89,178.38Zm-26.66-212c.67,27,1.92,59,3,66.81,1.75,12.23,3.45,59.31,1.18,91.5-1.74,24.2,6.9,33.33,15.18,39.62,0-34.44,2.48-160.12,3-171.89.17-4.07.61-17.85,1.19-35.66Z"/><path class="cls-1" d="M598,830.41c-27-17-51.34-41.58-51.79-72.76-.57-39.38,31.19-61,41.11-69.09,12.48-10.25,51.89-31.36,49.07-59.89a63.1,63.1,0,0,0-10.06-28.56c.07-5.11,1.38-45.38,1.21-48.36,21.84,22.42,42.48,51.15,41.32,80.34-1.7,45.66-38.22,64.5-48.44,71.92-16.71,12-52,27.41-49.07,53.64,1.44,13.7,9.46,34,26.63,53,.16,3.54.44,15.92,0,19.78"/><path class="cls-2" d="M600.88,836.34l-4.74-3c-24.09-15.2-52.91-40.65-53.42-75.67-.55-37.94,27.64-60.18,39.68-69.67l2.71-2.16c2.28-1.88,5.46-4.13,9.12-6.7C609.49,668.41,635,650.4,632.91,629a59.16,59.16,0,0,0-9.52-27l-.55-.88v-1c0-1.85.21-8.21.43-15.76.35-12.19.88-30.6.77-32.37l-.52-9.31,6.51,6.68c29.07,29.87,43.31,57.76,42.29,82.91-1.57,42.56-32.62,63.13-45.87,71.9-1.58,1-2.93,1.93-4,2.71-3.28,2.36-7.23,4.85-11.49,7.51-17,10.65-38.25,23.92-36.15,42.91,1.29,12.33,8.74,32.2,25.75,51l.84.93.05,1.25c.16,3.45.46,16.12,0,20.3Zm29-237.2a66.22,66.22,0,0,1,10,29.19c2.52,25.43-25.1,44.9-41.6,56.53-3.49,2.47-6.53,4.6-8.72,6.39l-2.81,2.25c-12.18,9.61-37.53,29.58-37,64.09.42,29.51,23.63,52,45,66.51,0-4.18-.09-9.24-.19-12.08-14.92-16.87-24.87-37-26.65-54-2.6-23.35,21.67-38.52,39.38-49.59,4.11-2.57,7.94-5,11.1-7.24,1.14-.81,2.57-1.78,4.25-2.88,13.41-8.87,41.29-27.36,42.74-66.35.87-21.47-10.73-45.51-34.46-71.54-.13,6-.37,14.43-.66,24.1C630.06,591,629.9,596.54,629.84,599.14Z"/><path class="cls-4" d="M579.9,293.58a5.67,5.67,0,1,1,5.62-5.66,5.68,5.68,0,0,1-5.62,5.66"/><path class="cls-2" d="M201.93,901.59q4.15-3.55,8.2-7.29c.52.81,1.09,1.7,1.74,2.63s1.38,2,2.26,3.07c1.53,1.88,3.17,3.82,4.94,5.81s3.39,3.94,4.92,5.82a30.27,30.27,0,0,1,3.74,5.91,16.53,16.53,0,0,1,1.56,5.69,10.51,10.51,0,0,1-1,5.29,13.32,13.32,0,0,1-3.9,4.69,11.81,11.81,0,0,1-5.56,2.6,14.8,14.8,0,0,1-5.45-.18,17.75,17.75,0,0,1-4.83-1.9,24.11,24.11,0,0,1-3.72-2.63l-.13.1a18.65,18.65,0,0,1,2.15,4.12,16.94,16.94,0,0,1,1.16,5.46,15,15,0,0,1-.9,5.85,12.15,12.15,0,0,1-4,5.33,17.12,17.12,0,0,1-7.12,3.59,14.82,14.82,0,0,1-6.86-.16,16.94,16.94,0,0,1-6.14-3.15,33.68,33.68,0,0,1-5.22-5.25c-1.4-1.76-2.68-3.41-3.86-5s-2.42-3.17-3.75-4.85c-1-1.17-1.93-2.4-2.93-3.65a37.1,37.1,0,0,0-2.53-2.91c2.89-2,5.8-4.07,8.73-6.23s6.21-4.73,9.87-7.66l9-7.18q5.5-4.39,9.65-7.95m-2.36,32.74c.42-2.59-.43-5.23-2.54-7.87-.51-.61-.94-1.15-1.32-1.56l-1-1.23c-.92.74-1.89,1.49-2.89,2.27s-2.2,1.69-3.57,2.78c-1.05.85-2.14,1.73-3.22,2.64s-2.16,1.76-3.22,2.61-2,1.64-2.87,2.35-1.6,1.34-2.17,1.79c.45.66.87,1.26,1.28,1.8s.9,1.19,1.49,1.94a8.71,8.71,0,0,0,2.83,2.32,8.51,8.51,0,0,0,3.6.9,11.16,11.16,0,0,0,4.08-.66,14.11,14.11,0,0,0,4.31-2.46c3.09-2.47,4.84-5,5.25-7.62m18.48-12.69a7.79,7.79,0,0,0,1.47-3.18,8.31,8.31,0,0,0-.09-3.5,10,10,0,0,0-2-3.81c-.77-1-1.32-1.65-1.65-2a8,8,0,0,0-1.14-1.09c-1.7,1.21-3.41,2.45-5.11,3.75s-3.15,2.41-4.29,3.33-2.32,1.87-3.38,2.75l-3.32,2.7,2.37,3a9.75,9.75,0,0,0,2.73,2.32,9.33,9.33,0,0,0,3.48,1.18,10.13,10.13,0,0,0,4-.37,12.34,12.34,0,0,0,4.24-2.3,15.46,15.46,0,0,0,2.72-2.77"/><path class="cls-2" d="M234.68,941c2.58-2.58,5.15-5.19,7.66-7.86.57.78,1.23,1.61,1.94,2.48s1.54,1.85,2.51,2.87,1.85,1.94,2.68,2.7,1.63,1.46,2.37,2.08c-2.84,2.36-5.62,4.73-8.36,7.14s-5.82,5.21-9.23,8.41l-8.42,7.86q-5.13,4.82-9,8.66c-2.58,2.58-5.07,5.14-7.48,7.71a25.9,25.9,0,0,0-2-2.41l-2.61-2.79c-.95-1-1.84-2-2.6-2.79a28,28,0,0,0-2.27-2.16c2.7-2.23,5.44-4.56,8.18-6.94s5.81-5.22,9.22-8.42l8.42-7.88c3.43-3.2,6.42-6.09,9-8.66"/><path class="cls-2" d="M252.79,960q3.61-4.1,7.16-8.33c1.81,1.77,3.6,3.54,5.33,5.32s3.55,3.53,5.4,5.26c3.07,2.84,5.82,5.36,8.24,7.48s4.11,3.59,5,4.26a15.55,15.55,0,0,0-2.67,2.38c-.61.67-1.07,1.21-1.38,1.61s-.63.88-1,1.42c-1.12-1.2-2.37-2.51-3.72-3.92s-2.65-2.78-3.91-4.12-2.43-2.51-3.47-3.55-1.76-1.78-2.23-2.2q-3.43,3.18-6.56,6.5t-6.32,6.73q4.08,3.69,7.46,6.6c2.23,1.92,4.61,3.93,7.07,6-.78.59-1.36,1-1.75,1.37s-.77.71-1.15,1.12a8,8,0,0,0-.86,1.11c-.26.42-.66,1-1.2,1.73q-6.54-7.14-13.56-13.66c-1.22,1.32-2.47,2.63-3.72,3.93s-2.49,2.63-3.72,3.95c-2.51,2.68-4.85,5.33-7,7.91,2.35,2.2,4.78,4.33,7.24,6.41s5,4.07,7.7,6c-.5.38-.95.72-1.33,1.07s-.88.83-1.51,1.49a20.07,20.07,0,0,0-1.37,1.61,7,7,0,0,0-.69,1.09c-1.07-1.07-2.42-2.39-4-3.93s-3.85-3.64-6.7-6.29l-6.13-5.71q-2.31-2.13-3.69-3.43c-.94-.86-1.65-1.5-2.15-1.94s-.92-.76-1.28-1c2.53-2.42,5.06-4.95,7.62-7.55s5.42-5.61,8.62-9l7.85-8.43c3.18-3.43,6-6.51,8.39-9.25"/><path class="cls-2" d="M286.64,985.94c1.51-2.2,2.84-4.12,4-5.78a23,23,0,0,0,2.79,2.63,22.72,22.72,0,0,0,3.31,1.94q1.25,13.74,2.51,27.08t2.71,27.24l4.42-5.91,4.93-6.56c1.65-2.22,3.28-4.4,4.87-6.56s3.05-4.16,4.38-6,2.44-3.42,3.36-4.78a24.88,24.88,0,0,0,1.75-2.81,17.34,17.34,0,0,0,6.1,4.57q-5,5.9-8.91,10.74c-2.61,3.22-5.09,6.27-7.37,9.12s-4.52,5.73-6.7,8.59-4.47,5.91-6.91,9.16l-6.1,8.12c-.85-.76-1.73-1.5-2.68-2.21a27.9,27.9,0,0,0-2.75-1.86q-1.74-26.72-5.06-54.92c-1,1.28-2,2.56-3.05,3.84s-2,2.63-3,4l-5.9,7.86c-2,2.7-3.74,5-5.15,6.92s-2.58,3.55-3.51,4.9-1.7,2.44-2.27,3.31-1,1.58-1.37,2.11a12.37,12.37,0,0,0-1.52-1.37c-.54-.39-1.06-.77-1.56-1.16-1-.77-2.11-1.5-3.22-2.19q.54-.45,3.24-3.62c1.8-2.12,4-4.7,6.51-7.76s5.28-6.42,8.19-10.06,5.64-7.19,8.21-10.62c2.33-3.11,4.26-5.76,5.76-8"/><path class="cls-2" d="M335.6,1026c1.78-3.19,3.51-6.39,5.23-9.65,2.15,1.35,4.27,2.7,6.35,4.07s4.21,2.7,6.39,4c3.59,2.13,6.79,4,9.63,5.59s4.76,2.62,5.78,3.1a15.74,15.74,0,0,0-2.09,2.88,16.75,16.75,0,0,0-1,1.87c-.21.46-.42,1-.64,1.57l-4.45-3-4.71-3.2c-1.51-1-2.9-1.94-4.13-2.75s-2.11-1.36-2.64-1.67q-2.69,3.83-5.06,7.73t-4.75,7.91q4.75,2.74,8.68,4.88t8.19,4.38c-.64.73-1.11,1.3-1.42,1.72a14,14,0,0,0-.9,1.33,8.92,8.92,0,0,0-.61,1.28c-.17.45-.43,1.09-.81,1.92q-7.89-5.58-16.12-10.49c-.92,1.56-1.87,3.1-2.81,4.64s-1.88,3.08-2.8,4.64c-1.89,3.15-3.62,6.24-5.21,9.23,2.77,1.65,5.57,3.22,8.43,4.71s5.78,2.93,8.8,4.26c-.42.49-.78.92-1.08,1.33a23.79,23.79,0,0,0-2.16,3.64,5.18,5.18,0,0,0-.44,1.21q-1.92-1.24-4.77-3t-7.88-4.74c-3-1.77-5.37-3.19-7.21-4.3s-3.23-1.92-4.32-2.58-1.93-1.12-2.5-1.43-1.07-.54-1.49-.73q2.94-4.36,5.87-9c1.94-3.06,4.12-6.61,6.51-10.65l5.89-9.9c2.41-4,4.49-7.62,6.27-10.8"/><path class="cls-2" d="M388.62,1047.53a8.88,8.88,0,0,0-6.72-.73,7.06,7.06,0,0,0-4.53,3.72,7.14,7.14,0,0,0-.54,5.44,20,20,0,0,0,2.74,5.33c1.24,1.8,2.65,3.64,4.19,5.49a31.72,31.72,0,0,1,4,6,18.56,18.56,0,0,1,2,6.81,15,15,0,0,1-1.75,8,18.28,18.28,0,0,1-4.85,6.26,17.2,17.2,0,0,1-6.73,3.42,20.69,20.69,0,0,1-8,.32,29.92,29.92,0,0,1-8.83-2.85,31.39,31.39,0,0,1-6.92-4.45,15.83,15.83,0,0,1-3.87-4.56c1.39-1.54,2.6-2.94,3.68-4.24s2.16-2.75,3.25-4.36l1.44.71a11.65,11.65,0,0,0-.4,3.72,11.07,11.07,0,0,0,.87,3.65,10,10,0,0,0,2.25,3.31,13.29,13.29,0,0,0,3.79,2.67q4.58,2.2,7.84,1a8.48,8.48,0,0,0,4.85-4.41,7.49,7.49,0,0,0,.62-5.54,18.39,18.39,0,0,0-2.61-5.28c-1.21-1.75-2.6-3.55-4.14-5.41a29.89,29.89,0,0,1-3.91-5.92,18.09,18.09,0,0,1-1.91-6.72,15.21,15.21,0,0,1,1.8-7.93,18.5,18.5,0,0,1,4.82-6.32,16.78,16.78,0,0,1,6.25-3.27,18.42,18.42,0,0,1,7-.47,22.33,22.33,0,0,1,7,2.12,26.45,26.45,0,0,1,6.72,4.48,18.74,18.74,0,0,1,4,5.33c-1,.94-2,1.87-2.84,2.81l-3.27,3.53-1.14-.55q.75-7.74-6-11"/><path class="cls-2" d="M419.74,1066.88a24.69,24.69,0,0,0,.86-2.84c-.8-.31-1.78-.66-3-1s-2.44-.8-3.79-1.23-2.74-.83-4.16-1.23-2.75-.73-4-1c.33-.54.64-1.1.93-1.63a13.58,13.58,0,0,0,.78-1.7,13.08,13.08,0,0,0,.56-1.78c.13-.63.26-1.23.38-1.86,1.78.73,3.37,1.41,4.81,2s2.89,1.22,4.38,1.82l4.88,1.94c1.75.71,3.86,1.52,6.36,2.48s4.6,1.75,6.37,2.39l4.9,1.78c1.49.54,2.94,1.06,4.36,1.52l4.61,1.58c-.33.55-.64,1.09-.93,1.64a9.61,9.61,0,0,0-.78,1.7,12,12,0,0,0-.56,1.79c-.14.6-.28,1.22-.38,1.85-1-.57-2.13-1.16-3.39-1.8s-2.55-1.25-3.81-1.82-2.46-1.11-3.6-1.59-2.1-.9-2.9-1.2a9.32,9.32,0,0,0-.53,1.06c-.21.46-.43,1-.68,1.64l-1.61,4.19-7.55,19.79c-1.68,4.39-3.1,8.28-4.29,11.73s-2.3,6.84-3.34,10.2a26.91,26.91,0,0,0-2.88-1.29l-3.56-1.35c-1.32-.52-2.5-1-3.55-1.36a27,27,0,0,0-3-1c1.45-3.2,2.89-6.47,4.29-9.83s2.95-7.24,4.63-11.62l7.55-19.77c.59-1.53,1.11-2.93,1.56-4.21"/><path class="cls-2" d="M480.38,1137.36c-1.28-.48-2.49-.88-3.67-1.21l-3.46-1c-1.15-.33-2.29-.66-3.47-1s-2.33-.59-3.51-.82c-.12-2.91-.24-5.87-.4-8.9s-.35-6.08-.59-9.14c-1.73-.56-3.44-1.08-5.18-1.59s-3.48-1-5.21-1.51c-1.42-.4-2.84-.78-4.26-1.16s-2.84-.73-4.26-1.06q-2.81,3.69-5.36,7.47c-1.7,2.51-3.31,5-4.82,7.44a11.91,11.91,0,0,0-1.87-.71c-.62-.17-1.26-.34-1.92-.54s-1.3-.36-2-.55a16.49,16.49,0,0,0-2.16-.43c1.05-1.23,2.47-3,4.26-5.13s3.77-4.69,6-7.48,4.54-5.76,7.05-9,5-6.42,7.57-9.69,5-6.51,7.48-9.7,4.71-6.15,6.78-8.92l1.46.73a9.37,9.37,0,0,0,1.52.55,8.63,8.63,0,0,0,1.58.31l1.63.16c.45,5.11.91,10.58,1.41,16.42s1,11.56,1.63,17.21,1.18,11,1.8,16.12,1.27,9.45,2,13M463,1088.55c-2.34,2.86-4.57,5.72-6.72,8.54s-4.27,5.73-6.4,8.71l14.92,4.21c-.26-3.66-.53-7.24-.81-10.76s-.61-7.06-1-10.7"/><path class="cls-2" d="M509.63,1115.44l-.57,3.43q-1.17,6.93-1.92,12.35t-1.29,10.64a25.91,25.91,0,0,0-3.06-.69c-1.11-.19-2.36-.4-3.76-.62l-3.76-.64a24.27,24.27,0,0,0-3.11-.35c.81-3.43,1.57-6.91,2.28-10.49s1.48-7.67,2.25-12.28l1.91-11.36q1.17-6.93,1.9-12.34c.51-3.62.94-7.26,1.34-10.91.92.27,1.94.53,3,.81s2.35.52,3.74.76,3.24.47,5.17.66,4.33.5,7.17,1c2.12.36,3.92.73,5.41,1.09a30.93,30.93,0,0,1,3.79,1.14,14.43,14.43,0,0,1,2.7,1.37,13.91,13.91,0,0,1,2.08,1.68,13.68,13.68,0,0,1,3.2,5.21,13.36,13.36,0,0,1,.36,6.72,14.77,14.77,0,0,1-5,9.38A18.54,18.54,0,0,1,523,1115.8q2.81,7.77,6.22,15.61t6.84,15.53c-1.27-.33-2.51-.59-3.74-.8l-3.76-.62c-1.28-.23-2.54-.44-3.79-.64s-2.53-.38-3.83-.49l-10.53-28.83Zm16-19.12a6.66,6.66,0,0,0-1.75-3.68,8.79,8.79,0,0,0-3.76-2.13,42.71,42.71,0,0,0-5.84-1.34c-1.43,7.55-2.8,15.1-4.06,22.69.32.1.64.2.93.27a7.16,7.16,0,0,0,.87.19q5.51.95,8.93-1.54c2.29-1.64,3.76-4.48,4.43-8.48a18.47,18.47,0,0,0,.25-6"/><path class="cls-2" d="M572.92,1102.53c0-3.63-.11-7.29-.24-11,1,.14,2,.26,3.13.38s2.39.18,3.81.21c2,0,4,0,6.13-.05S590,1092,592,1092a39.1,39.1,0,0,1,9.39,1.11,13.22,13.22,0,0,1,5.26,2.72,13.77,13.77,0,0,1,3.86,5,15.18,15.18,0,0,1,1.13,6.55,19.77,19.77,0,0,1-1.82,8.26,14.37,14.37,0,0,1-4.66,5.52,19.36,19.36,0,0,1-7,3,35.63,35.63,0,0,1-8.74.82l-4.33-.11q-.15,6.35-.17,12.66t.26,12.5a25.07,25.07,0,0,0-3.14-.24c-1.12,0-2.4-.07-3.81-.09s-2.68-.06-3.81-.1a26.06,26.06,0,0,0-3.13.1c.31-3.49.55-7.06.76-10.7s.35-7.81.47-12.48l.28-11.52c.1-4.69.15-8.84.12-12.5m24.69.47a9.49,9.49,0,0,0-1.87-3.57,7.47,7.47,0,0,0-2.82-2,10.47,10.47,0,0,0-3.43-.68l-1.94,0-.85,0a5.48,5.48,0,0,0-.76.07q-.24,6.1-.42,12c-.12,3.93-.22,7.86-.33,11.81a23.72,23.72,0,0,0,4.39-.32,10.57,10.57,0,0,0,4.13-1.64,9.72,9.72,0,0,0,3.16-3.69,15.51,15.51,0,0,0,1.33-6.49,17.55,17.55,0,0,0-.59-5.44"/><path class="cls-2" d="M665.8,1147.28c-1.35,0-2.65,0-3.85.09s-2.42.15-3.6.24l-3.58.24c-1.21.09-2.41.21-3.59.4-1.09-2.7-2.2-5.46-3.36-8.26s-2.35-5.61-3.61-8.42c-1.81.07-3.61.14-5.41.25s-3.62.19-5.42.31c-1.47.1-2.92.21-4.39.33s-2.93.27-4.39.43c-.93,2.94-1.78,5.89-2.54,8.83s-1.46,5.8-2.06,8.62a11.09,11.09,0,0,0-2,0c-.66,0-1.32.09-2,.12l-2,.14a17,17,0,0,0-2.18.31q.86-2.27,2.28-6.27c1-2.66,2-5.68,3.14-9s2.35-7,3.65-10.82,2.6-7.74,3.9-11.67l3.79-11.64q1.88-5.71,3.41-10.66c.57.08,1.11.13,1.63.19a9.59,9.59,0,0,0,1.61,0,10.89,10.89,0,0,0,1.59-.22c.5-.12,1-.26,1.6-.42q3.17,7,6.82,15c2.4,5.33,4.85,10.56,7.27,15.69s4.81,10,7.1,14.59,4.35,8.49,6.2,11.64m-32.73-40.17c-1.24,3.48-2.39,6.91-3.48,10.28s-2.11,6.84-3.12,10.36l15.47-1c-1.47-3.36-2.93-6.65-4.35-9.87s-2.94-6.46-4.52-9.75"/><path class="cls-2" d="M686.1,1116.86l.6,3.43c.8,4.62,1.58,8.71,2.31,12.27s1.52,7.07,2.35,10.46c-1,.07-2,.19-3.11.38l-3.76.66-3.76.66a25,25,0,0,0-3.05.71q-.57-5.25-1.35-10.65c-.52-3.6-1.18-7.72-2-12.33l-2-11.36c-.82-4.6-1.6-8.71-2.32-12.28s-1.54-7.13-2.39-10.7c1-.07,2-.14,3.13-.26s2.39-.27,3.78-.52,3.2-.64,5.09-1.1,4.26-1,7.1-1.46c2.11-.38,3.93-.64,5.45-.8a36.58,36.58,0,0,1,4-.17,14.32,14.32,0,0,1,3,.38,14.92,14.92,0,0,1,2.53.9,13.64,13.64,0,0,1,4.74,3.85,13.45,13.45,0,0,1,2.6,6.21,14.78,14.78,0,0,1-1.61,10.51,18.43,18.43,0,0,1-8.64,7.1q5.25,6.39,11.07,12.64t11.61,12.37c-1.29.12-2.54.27-3.77.5l-3.76.64-3.79.68a35.13,35.13,0,0,0-3.78.83l-19.53-23.67Zm8.73-23.36a6.85,6.85,0,0,0-2.88-2.89,8.86,8.86,0,0,0-4.26-.77,46.26,46.26,0,0,0-5.94.7q1.74,11.4,3.72,22.73c.33,0,.66,0,1,0s.61-.07.89-.12c3.67-.64,6.32-2.12,7.91-4.44s2.06-5.47,1.35-9.47a18,18,0,0,0-1.76-5.71"/><path class="cls-2" d="M778.91,1121.62c-1.33.27-2.58.57-3.74.9l-3.46,1-3.47,1c-1.16.35-2.3.73-3.41,1.16-1.63-2.41-3.31-4.85-5-7.36s-3.5-5-5.33-7.46c-1.75.45-3.5.91-5.23,1.38s-3.5,1-5.23,1.46l-4.23,1.26c-1.4.43-2.79.88-4.19,1.33q-.44,4.63-.62,9.18c-.12,3-.19,6-.17,8.87a10.8,10.8,0,0,0-2,.38c-.62.19-1.26.36-1.92.55l-2,.57a14.78,14.78,0,0,0-2.06.77q.36-2.4.92-6.6c.36-2.82.74-6,1.14-9.51s.81-7.29,1.26-11.34.91-8.12,1.34-12.24.85-8.17,1.24-12.16.77-7.72,1.08-11.15l1.63-.15a12.25,12.25,0,0,0,1.57-.33,9.88,9.88,0,0,0,1.51-.57l1.47-.73c3.06,4.1,6.34,8.52,9.83,13.21s7,9.28,10.46,13.78,6.81,8.75,10,12.75,6.06,7.37,8.54,10.06m-40.5-32.31c-.47,3.65-.89,7.25-1.21,10.78s-.63,7.14-.87,10.79l14.91-4.29c-2.15-3-4.26-5.87-6.36-8.71s-4.24-5.7-6.47-8.57"/><path class="cls-2" d="M797.13,1061.58a21,21,0,0,0-1.4-2.64c-.76.35-1.71.8-2.82,1.35s-2.31,1.16-3.55,1.82-2.53,1.34-3.81,2.06-2.46,1.42-3.53,2.08c-.16-.62-.32-1.23-.49-1.83a12.68,12.68,0,0,0-.64-1.75A13.62,13.62,0,0,0,780,1061c-.32-.54-.67-1.07-1-1.59,1.77-.73,3.38-1.37,4.82-2s2.91-1.18,4.39-1.8l4.84-2.06c1.73-.73,3.82-1.64,6.25-2.72s4.5-2,6.21-2.8l4.73-2.2c1.42-.66,2.82-1.32,4.16-2l4.39-2.13c.14.61.32,1.22.49,1.82a11.8,11.8,0,0,0,.64,1.75,11.93,11.93,0,0,0,.87,1.66c.32.54.65,1.06,1,1.58-1.09.31-2.32.67-3.67,1.12s-2.67.9-4,1.39-2.53,1-3.69,1.4-2.13.85-2.91,1.2a10.62,10.62,0,0,0,.38,1.14c.18.47.4,1,.68,1.63l1.82,4.1,8.59,19.36c1.9,4.29,3.63,8.07,5.23,11.36s3.17,6.48,4.79,9.57a26.67,26.67,0,0,0-2.92,1.13c-1,.45-2.2,1-3.48,1.54l-3.49,1.54a28,28,0,0,0-2.8,1.44q-1.82-4.93-3.88-10c-1.38-3.38-3-7.2-4.92-11.48L799,1065.66c-.66-1.49-1.29-2.85-1.86-4.08"/><path class="cls-2" d="M829.23,1056.5a29.35,29.35,0,0,1,.82-11.65,30.4,30.4,0,0,1,5.57-10.79,35.91,35.91,0,0,1,10.38-8.78,41.42,41.42,0,0,1,11.82-4.76,29,29,0,0,1,11.61-.28,26,26,0,0,1,10.64,4.73,32.9,32.9,0,0,1,8.87,10.27,29.1,29.1,0,0,1,3.9,11.46,29.86,29.86,0,0,1-6.55,22.34,35.91,35.91,0,0,1-10.11,8.54,46.49,46.49,0,0,1-11.71,4.9,26.76,26.76,0,0,1-11.53.55,25.73,25.73,0,0,1-10.7-4.64,33.37,33.37,0,0,1-9.07-10.55,29.67,29.67,0,0,1-3.94-11.34m40.68-23.65a22.7,22.7,0,0,0-7-4.5,16.54,16.54,0,0,0-7.43-1.13,17.09,17.09,0,0,0-7.3,2.36,14.7,14.7,0,0,0-5.65,5.69,18.3,18.3,0,0,0-2.18,7.78,27,27,0,0,0,1.09,9,41,41,0,0,0,4.09,9.44,39,39,0,0,0,7,9.16,20.76,20.76,0,0,0,7.15,4.52,14.81,14.81,0,0,0,7,.69,18.77,18.77,0,0,0,6.5-2.32,17.24,17.24,0,0,0,5.49-5.06,16.53,16.53,0,0,0,2.75-7.29,25.67,25.67,0,0,0-.64-9.33,41.17,41.17,0,0,0-4.69-11.19,33.48,33.48,0,0,0-6.15-7.84"/><path class="cls-2" d="M887,1014.1c-2.33-2.8-4.7-5.57-7.14-8.32.83-.51,1.71-1.08,2.65-1.7s2-1.37,3.08-2.23c1.47-1.16,3.08-2.5,4.83-4s4.07-3.44,7-5.73A62.77,62.77,0,0,1,908.69,985a27.42,27.42,0,0,1,10.86-2.8A20.57,20.57,0,0,1,930,984.69a37.33,37.33,0,0,1,16,20.51,29.08,29.08,0,0,1,1,11.57,27.61,27.61,0,0,1-3.56,10.56,30.86,30.86,0,0,1-7.62,8.63c-3.34,2.59-6.22,4.79-8.61,6.59s-4.47,3.36-6.2,4.71c-1.12.87-2.13,1.65-3,2.36a26.36,26.36,0,0,0-2.37,2.06q-3-4.37-6.18-8.78c-2.15-2.94-4.66-6.25-7.55-10l-7.07-9.09c-2.89-3.68-5.49-6.94-7.82-9.75m28.58,16,3.12,4c1,1.28,1.94,2.46,2.8,3.5s1.41,1.75,1.65,2.06c.69-.49,1.54-1.06,2.51-1.75s2.13-1.56,3.52-2.63q7.55-5.89,8-14.48t-7.72-19a29.37,29.37,0,0,0-6.89-6.57,20.73,20.73,0,0,0-7.45-3.15,17,17,0,0,0-7.57.21,19.47,19.47,0,0,0-7.25,3.65c-1.59,1.25-2.88,2.31-3.83,3.15s-1.9,1.72-2.86,2.6c.25.31.78,1,1.6,2.1s1.73,2.3,2.77,3.63l3.11,4,2.62,3.34,9.25,11.9Z"/><path class="cls-2" d="M940.63,979.88a29.5,29.5,0,0,1-2.29-11.44,30.43,30.43,0,0,1,2.51-11.9,36.16,36.16,0,0,1,7.67-11.2,41.28,41.28,0,0,1,10.17-7.72,29,29,0,0,1,11.1-3.35A25.9,25.9,0,0,1,981.3,936a33.13,33.13,0,0,1,11.29,7.55,29.14,29.14,0,0,1,6.77,10,29.47,29.47,0,0,1,2.18,11.51A30,30,0,0,1,999,976.87a35.74,35.74,0,0,1-7.49,10.91,46,46,0,0,1-10,7.83,26.7,26.7,0,0,1-11,3.58A25.77,25.77,0,0,1,959,997.55a33.65,33.65,0,0,1-11.55-7.76,29.94,29.94,0,0,1-6.79-9.91m33-33.57a22.46,22.46,0,0,0-7.93-2.49,16.33,16.33,0,0,0-7.45.88,16.78,16.78,0,0,0-6.42,4.19,14.71,14.71,0,0,0-3.95,7,18.54,18.54,0,0,0,0,8.09,27.3,27.3,0,0,0,3.43,8.4,41.28,41.28,0,0,0,6.44,8,39.47,39.47,0,0,0,9.18,7,21,21,0,0,0,8.07,2.46,14.47,14.47,0,0,0,6.91-1.18,18.08,18.08,0,0,0,5.64-3.94,17,17,0,0,0,3.95-6.34,16.3,16.3,0,0,0,.75-7.76,26.36,26.36,0,0,0-3.09-8.83,41.17,41.17,0,0,0-7.49-9.54,33.17,33.17,0,0,0-8-5.94"/><path class="cls-2" d="M988.76,907.31a8.88,8.88,0,0,0-2.11,6.41,7.06,7.06,0,0,0,2.66,5.23,7.23,7.23,0,0,0,5.21,1.66,20.39,20.39,0,0,0,5.79-1.54q3.06-1.27,6.25-3a32.7,32.7,0,0,1,6.68-2.64,19,19,0,0,1,7.09-.52,15.1,15.1,0,0,1,7.41,3.38,18.15,18.15,0,0,1,5.1,6.06,17.08,17.08,0,0,1,1.91,7.31,20.35,20.35,0,0,1-1.35,7.91,30.35,30.35,0,0,1-4.64,8,31.74,31.74,0,0,1-5.82,5.83,15.63,15.63,0,0,1-5.26,2.82c-1.22-1.66-2.34-3.17-3.38-4.48s-2.23-2.69-3.57-4.09l1-1.26a11.21,11.21,0,0,0,3.55,1.16,11,11,0,0,0,3.76-.07,10.57,10.57,0,0,0,3.72-1.49,13.91,13.91,0,0,0,3.38-3.17c2.09-2.67,3-5.16,2.63-7.46a8.58,8.58,0,0,0-3.33-5.66,7.46,7.46,0,0,0-5.28-1.77,18.67,18.67,0,0,0-5.7,1.44c-2,.83-4,1.8-6.16,2.92a30.84,30.84,0,0,1-6.6,2.58,18.25,18.25,0,0,1-7,.45,15.09,15.09,0,0,1-7.39-3.42,18.44,18.44,0,0,1-5.16-6,16.67,16.67,0,0,1-1.89-6.81,18.25,18.25,0,0,1,1-6.9,22.4,22.4,0,0,1,3.53-6.45,26.84,26.84,0,0,1,5.8-5.61,18.4,18.4,0,0,1,6-2.75c.71,1.2,1.42,2.32,2.15,3.36s1.66,2.35,2.77,4l-.78,1q-7.39-2.36-12,3.57"/></svg>