<svg id="Capa_1" data-name="Capa 1" xmlns="http://www.w3.org/2000/svg" viewBox="0 0 1200 1200"><defs><style>.cls-1{fill:#fff;}.cls-2{fill:#004691;}</style></defs><title>logo-ccss</title><circle class="cls-1" cx="600" cy="600" r="590"/><path class="cls-2" d="M600,1200C269,1200,0,931,0,600S269,0,600,0s600,269,600,600S931,1200,600,1200ZM600,32.28c-312.83,0-566.9,254.06-566.9,566.89S287.17,1166.9,600,1166.9,1166.9,912.83,1166.9,600,912,32.28,600,32.28Z"/><path class="cls-2" d="M863,876.72c2.4-5.22,5.36-9.94,7.64-16C881.4,843.34,892.16,826,885.54,802c-16.55-65.38-57.11-68.69-129.93-74.48-7.59-.54-16.27-1.11-25.28-1.88l.45-.6c-5.79-5-11.59-10.76-17.38-16.56-7.72-8.14-16.34-17.14-26.3-22,42.26-10.81,82.17-23.78,86.71-62.41,6.62-53-19-86.07-48.82-124.14-4.62-6.15-9.23-11.64-13.85-17.69,16-13.06,27.12-31.56,31.23-49.34,4.13-16.55-4.14-40.55-18.21-56.28C710.07,361.66,691.86,355,672,358.34c-69.52,11.59-105.93,38.07-152.28,71.18C502.35,441.93,483.31,456,461,470.07l2.44,3.95c-23.34,9.27-40.54,36.84-55.41,59.77-3.31,5-6.62,9.93-9.1,14.07l-6.62,9.93c-22.35,33.11-36.42,53-54.62,76.14-5,5.79-6.63,11.59-5.8,18.21,2.48,11.58,14.07,19,26.48,27.31,8.28,5,16.56,9.93,20.69,15.72,6.63,8.28,11.59,14.9,16.56,21.52,4,5.36,7.89,10.54,12,15.64-4.37,8.2-7.86,16.16-7.86,28.22,0,33.24,9.48,55.13,27.3,81.63-36.36,7.29-73.88,17.93-117.5,32.58l6.62,19c113.38-38.07,184.55-48,303.72-43C730,854.9,795.35,869.76,898,911.17l7.45-18.2C890.53,887,876.52,881.64,863,876.72ZM513.5,704.64c9.13-12,23.83-16.18,40.15-22.71,18.21-5,37.25-10.76,51.32-28.14a218.73,218.73,0,0,0,18.2-26.48c8.28-13.24,14.9-23.17,28.14-32.28l8.28-5.79-5-8.27a203.05,203.05,0,0,0-14.07-18.21c-6.62-9.1-9.93-12.42-9.93-19.86,0-14.07,9.93-25.66,23.17-25.66,6.62,0,10.76,1.66,14.07,5,11.12,11.91,11.56,42.08,11.58,67.17L677,586.76l-33.11,30.62,2.48,6.62c.83,1.65,1.66,4.14,2.49,5.79,2.48,5,4.14,9.11,4.14,13.24,0,7.45-5,10.76-16.56,16.56-10.16,5.47-23.17,12.52-28.08,27.22-30.15,10.9-58.76,28.08-73.49,62-5.75-2.6-11.68-5.88-18.48-9.72a76.29,76.29,0,0,0,1.71-15.8A40,40,0,0,0,513.5,704.64Zm93.25-216.89c4.59,1.28,8.45,2.56,12.28,3.84,8.16,3.05,15.39,5.48,24.56,6.89-19.58,4.56-34.49,23-34.49,45.24,0,14.9,7.45,24,14.9,33.11,1.66,2.48,4.14,5,6.62,8.27C619,595,612.41,605.79,605,617.38a125.28,125.28,0,0,1-15.12,23c-.46-1.63-.92-3.24-1.44-4.78-5-18.21-9.1-31.45-10.75-64.56C576.06,540,586.08,511.26,606.75,487.75Zm32,211.37c-11.31,9.14-19.66,19.12-27.13,28.33-14.07,16.55-23.18,28.14-45.52,28.14a79.8,79.8,0,0,1-11.13-.81c14.63-31.09,43.91-44.3,83.75-55.66Zm69.69-186.84c28.14,36.41,50.49,64.55,44.69,109.24-3.31,29-42.2,38.07-82.76,48l-17.18,4.29c10.36-5.73,21.32-14.19,21.32-30.78,0-8.27-3.31-14.89-5.79-20.69l13.41-12.41h7.28c14.07,0,21.52.83,34.76,2.48l2.48-20.69c-10.76-1.65-18.21-2.48-27.31-2.48,0-29.79-.83-63.72-18.21-81.1a41.9,41.9,0,0,0-14.47-8.43,71.52,71.52,0,0,0,27-6.53l-.08.06c4.9,6.62,9.87,12.41,14.83,19Zm-44.69-33.11c-17.38,0-24.82-2.48-38.06-6.62-.7-.23-1.53-.55-2.26-.81,26-21.17,61-35.05,98.52-39.26-8.17,24-31,46.69-58.23,46.69ZM531.31,446.9c46.35-33.11,79.45-57.11,144.83-67.87,13.24-2.48,24.83,1.66,33.93,11.59a52.62,52.62,0,0,1,11.71,21c-50.87,5-97.78,26.38-128.4,59.28-26.48,28.13-38.9,62.89-37.24,101,1.65,36.42,5.79,50.48,11.58,69.52,1.48,4.43,2.67,8.92,3.91,13.87-7.29,3.46-15.52,5.87-23.77,8.47-15.74,4.5-34.15,10.45-47.33,25.06a129.25,129.25,0,0,0-13.91-10.16c-14.07-9.1-22.34-15.72-22.34-27.31,0-18.21,12.41-29,27.31-42.21,15.72-14.89,33.93-30.62,33.93-57.93,0-5,.82-9.93.82-14.89.8-22.94,3-53.38-32.2-63.26C507.66,463.92,519.91,455,531.31,446.9ZM370.76,661.24c-5.79-3.31-16.55-9.93-17.38-13.24,0-.83,0-.83.83-2.48,19-24,33.1-43.86,55.45-77.8l6.62-9.93c2.48-4.14,5.79-9.1,9.1-14.07,16.55-25.65,36.41-57.93,59.59-53,22.34,4.14,22.34,17.38,20.69,43a99.63,99.63,0,0,0-.83,15.73c0,18.2-12.42,29-27.31,42.2-15.73,14.9-33.93,30.62-33.93,57.94,0,23.17,17.38,35.58,31.44,44.68s22.35,15.73,22.35,27.32c0,19-5.79,31.44-32.28,38.06-1.65-.82-3.31-3.31-4.13-4.13-3.31-4.14-6.63-7.45-9.94-9.11-18.2-13.24-27.31-25.65-38.89-43.86-5-6.62-9.93-13.24-16.55-21.52C389.79,673.66,379.86,667,370.76,661.24Zm78.59,176.91c-19.7-27.06-28.94-46.67-28.94-77.6a31.34,31.34,0,0,1,2-11.74,161.9,161.9,0,0,0,17.82,15.05l1.65.83h.83a17.89,17.89,0,0,1,3.31,4.14c5,5.79,9.93,12.41,17.38,12.41a6.18,6.18,0,0,1,3.31.83c20-4.65,33.52-12.59,41.71-24.25C526.51,769,541.2,776.28,566,776.28c32.27,0,47.17-18.21,61.24-34.76,9.93-12.42,20.69-24.83,38.07-34.76,9.93-5.79,17.38,0,33.1,16.55,1.35,1.18,2.64,2.4,3.94,3.63l-23,5.47,5,19.87,31.45-7.45c14.07,1.65,27.31,2.48,38.9,3.31,71.17,6.62,98.48,8.27,111.72,59.58,4.14,15.73-3.31,27.31-12.41,43-3.31,5.79-6.62,11.58-9.93,18.21l7,3.52C774.54,845.67,713.36,835,620.69,830.9,553.8,827.73,501.72,829.56,449.35,838.15Z"/><path class="cls-2" d="M424.55,927.72c3.31,3.31,5.79,6.62,5.79,9.94h-6.62a12.86,12.86,0,0,0-5-6.63q-3.72-2.47-9.93-2.48a16.85,16.85,0,0,0-12.42,5c-3.31,3.31-5,7.45-5,14.07A20.25,20.25,0,0,0,395.59,960q3.72,5,12.41,5c5,0,9.1-1.66,11.59-5,1.65-1.66,2.48-4.14,3.31-6.62h6.62a19.47,19.47,0,0,1-5.8,11.59c-4.13,4.13-9.1,5.79-16.55,5.79a23,23,0,0,1-14.89-5c-5-4.14-8.28-10.76-8.28-19,0-6.62,1.66-11.59,5.79-15.73s9.93-6.62,18.21-6.62c8.28-.82,13.24.83,16.55,3.31Z"/><path class="cls-2" d="M481.66,931a23.11,23.11,0,0,1,5,14.9c0,6.62-1.65,12.41-5.79,16.55-4.14,5-10.76,7.45-19,7.45-7.45,0-14.07-2.48-18.2-6.62s-5.8-9.93-5.8-16.55a23.17,23.17,0,0,1,5-14.9c4.14-5.79,10.76-8.27,19.86-8.27,8.28,0,14.9,2.48,19,7.44Zm-5.8,28.14c2.48-4.14,4.14-8.27,4.14-13.24a16.83,16.83,0,0,0-5-12.41c-3.31-3.31-7.44-5-13.24-5-5,0-9.93,1.66-13.24,5s-5,7.45-5,14.07a20.34,20.34,0,0,0,4.2,12.44c2.49,3.31,7.45,5,14.07,5a18.53,18.53,0,0,0,14.07-5.8Z"/><path class="cls-2" d="M499.86,954.21a12,12,0,0,0,1.66,5.79c2.48,3.31,6.62,4.14,12.41,4.14a22.86,22.86,0,0,0,7.45-.83c4.14-.83,5.79-3.31,5.79-6.62q0-3.72-2.48-5a34.21,34.21,0,0,0-8.28-2.48l-6.62-1.65c-4.13-.83-7.45-1.66-9.93-3.31a9.09,9.09,0,0,1-5-8.28,11.78,11.78,0,0,1,5-9.93,21.13,21.13,0,0,1,13.24-4.14c5,0,9.93.83,13.24,3.31,4.14,2.48,5.8,5.79,5.8,10.76h-6.62a7.5,7.5,0,0,0-2.49-5.79c-2.48-2.49-5.79-3.31-10.75-3.31-4.14,0-6.63.82-9.11,2.48a7.17,7.17,0,0,0-2.48,5c0,2.49.83,4.14,3.31,5,1.65.83,4.14,1.66,9.1,2.48l7.45,1.66c3.31.83,5.79,1.65,8.28,2.48,3.31,1.66,5,5,5,9.1,0,5-1.65,8.28-5.79,10.76s-9.1,3.31-14.07,3.31c-6.62,0-11.59-1.65-14.9-4.13s-5-6.63-5-11.59l5.79.83Z"/><polygon class="cls-2" points="579.31 924.41 579.31 930.21 561.93 930.21 561.93 969.1 555.31 969.1 555.31 930.21 537.93 930.21 537.93 924.41 579.31 924.41"/><path class="cls-2" d="M612.41,950.9,605,931l-8.28,19.87Zm-11.58-26.49h7.45l18.2,43.87H619L614,955H594.21l-5.8,13.25H581l19.86-43.87Z"/><path class="cls-2" d="M677,945.1a16.54,16.54,0,0,0,7.44-1.65c1.66-.83,2.49-3.31,2.49-5.79,0-3.32-1.66-5-4.14-6.63-1.66-.82-3.31-.82-5.79-.82H660.41V945.1Zm-23.18-20.69h24a30.52,30.52,0,0,1,9.93,1.66c5,1.65,7.45,5,7.45,10.76a15.71,15.71,0,0,1-1.65,6.62,22.11,22.11,0,0,1-5,4.14,17.56,17.56,0,0,1,4.14,2.48c.83.83,1.65,3.31,1.65,5.79v5.8c0,1.65,0,3.31.83,4.13.83,1.66.83,2.49,2.49,2.49v.82h-8.28a2.87,2.87,0,0,1-.83-1.65v-3.31l-.83-7.45a6.93,6.93,0,0,0-3.31-5.79c-1.65-.83-3.31-.83-6.62-.83H660.41v19h-6.62V924.41Z"/><polygon class="cls-2" points="705.93 924.41 712.55 924.41 712.55 969.1 705.93 969.1 705.93 924.41"/><path class="cls-2" d="M760.55,927.72c3.31,3.31,5.79,6.62,5.79,9.94h-6.62a12.86,12.86,0,0,0-5-6.63q-3.72-2.47-9.93-2.48a16.85,16.85,0,0,0-12.42,5c-3.31,3.31-5,7.45-5,14.07A20.25,20.25,0,0,0,731.59,960q3.72,5,12.41,5c5,0,9.1-1.66,11.59-5,1.65-1.66,2.48-4.14,3.31-6.62h6.62a19.47,19.47,0,0,1-5.8,11.59c-4.13,4.13-9.1,5.79-16.55,5.79a23,23,0,0,1-14.89-5c-5-4.14-8.28-10.76-8.28-19,0-6.62,1.66-11.59,5.79-15.73s9.93-6.62,18.21-6.62c8.28-.82,13.24.83,16.55,3.31Z"/><path class="cls-2" d="M801.93,950.9,794.48,931l-8.27,19.87Zm-11.59-26.49h7.45L816,968.28h-6.62l-5-13.25H784.55l-5.79,13.25h-7.45l19-43.87Z"/><path class="cls-2" d="M220.14,717.52c5-1.66,8.27-4.14,9.93-6.62,3.31-5,4.14-11.59,1.65-20.69a97.33,97.33,0,0,0-5-12.42c-4.14-5.79-9.1-7.45-14.9-6.62-3.31.83-5.79,3.31-7.45,6.62a70.46,70.46,0,0,0-1.65,15.73V705.1q0,17.39-2.48,24.83c-3.31,8.28-9.94,14.07-20.69,16.55-9.93,2.49-18.21.83-26.49-4.14-8.27-5.79-14.07-14.89-17.38-28.13-2.48-11.59-2.48-21.52,1.66-31.45,4.14-9.1,11.59-15.73,23.17-19l5,21.52c-6.62,1.66-9.93,5.79-11.59,11.59a28,28,0,0,0,.83,14.07,39.52,39.52,0,0,0,6.62,13.24c3.31,2.48,6.62,4.14,10.76,2.48a8.78,8.78,0,0,0,7.45-7.45c.82-2.48.82-7.45.82-14.89V684.41c0-8.27.83-15.72,3.31-20.69q5-11.16,19.87-14.89a32,32,0,0,1,27.31,5c8.27,5.8,14.07,15.73,17.38,29,3.31,14.07,3.31,25.65-1.66,35.58-4.14,9.94-12.41,15.73-23.17,18.21l-3.31-19Z"/><polygon class="cls-2" points="152.28 527.17 148.14 585.93 171.31 587.59 175.45 533.79 194.48 535.45 190.34 588.41 219.31 590.9 223.45 529.65 243.31 531.31 237.52 614.9 126.62 606.62 132.41 525.52 152.28 527.17"/><path class="cls-2" d="M215.17,401.38a21.73,21.73,0,0,0-19.86,5,22.72,22.72,0,0,0-7.45,9.94c-4.14,8.27-4.14,15.72-.83,24s11.59,14.89,23.18,20.69c12.41,5.79,22.34,7.44,29.79,4.13s13.24-8.27,16.55-14.89A28,28,0,0,0,259,430.34c-1.65-6.62-5.79-11.58-11.58-15.72l-11.59,23.17-16.55-8.27,19.86-41.38,53,25.65-6.62,14.07-13.24-4.14a107.29,107.29,0,0,1,5,15.73q1.25,11.18-5,22.34c-6.62,13.24-16.56,21.52-29.8,25.66s-28.14,2.48-43.86-5-26.48-18.2-32.28-32.27c-5.79-13.24-4.13-27.31,2.49-42.21,5.79-12.41,14.07-21.52,24.83-25.66,9.93-5,19.86-5,30.62-1.65l-9.11,20.69Z"/><path class="cls-2" d="M230.07,314.48l15.72-17.38,50.49,45.52c5.79,5,10.75,8.28,14.06,9.1,6.63,2.49,13.25,0,19-7.44q9.93-9.93,5-19.87a43.83,43.83,0,0,0-10.75-13.24L273.1,265.66l15.73-17.38,50.48,45.51c9.1,8.28,14.07,15.73,16.55,22.35,4.14,13.24,0,26.48-12.41,41.38-12.42,14.07-25.66,19.86-39.73,16.55-7.44-1.66-15.72-6.62-24-14.07Z"/><path class="cls-2" d="M381.52,211l13.24,26.49,23.17-11.59c5-2.48,8.28-4.14,9.93-6.62,3.31-4.14,3.31-8.28.83-14.07-3.31-5.79-6.62-9.1-11.59-9.1a22.19,22.19,0,0,0-10.76,3.31Zm37.24-36.41A37.49,37.49,0,0,1,432,177.1c3.31,1.66,6.62,3.31,9.1,5.8a29.47,29.47,0,0,1,6.62,9.93c2.49,5,3.31,9.93,3.31,15.72s-2.48,10.76-7.44,15.73c5.79,0,9.93.82,13.24,3.31s7.45,7.44,10.76,14.07l3.31,6.62c2.48,4.13,4.13,7.44,5,9.1,1.66,2.48,4.14,3.31,6.62,4.14l.83,2.48-21.52,9.93a21.8,21.8,0,0,1-4.13-5,71.67,71.67,0,0,1-5-8.28l-5-9.1c-3.31-6.62-6.62-9.93-9.93-10.76s-8.27,0-14.07,3.31l-21.49,10.8,19,38.89-20.69,9.93-48.83-99.31,48.83-24c8.28-3.31,14.07-5.79,18.21-5.79Z"/><path class="cls-2" d="M576.83,218.48c4.14-7.45,5.79-17.38,3.31-29.79q-2.49-18.62-12.42-27.31c-6.62-5.79-14.06-8.28-23.17-6.62s-15.72,5.79-19.86,13.24-5.79,17.38-3.31,29.79q2.48,18.63,12.41,27.31c6.62,5.8,14.07,8.28,23.18,6.62C566.07,230.9,572.69,226.72,576.83,218.48Zm17.38,14.9c-6.62,9.93-18.21,15.72-33.93,18.21s-28.14,0-38.07-7.45c-12.42-8.28-20.69-23.17-24-42.21-3.31-19.86,0-35.59,9.1-48,6.62-9.93,18.21-15.72,33.93-18.21s28.14,0,38.07,7.45c12.41,8.28,20.69,22.35,24,42.21s0,35.59-9.1,48Z"/><path class="cls-2" d="M715.86,228.41q-1.25,7.46,0,12.42c1.66,5.79,7.45,9.93,15.73,13.24a41.28,41.28,0,0,0,13.24,2.48c6.62,0,11.58-2.48,13.24-9.1,1.65-3.31.83-6.62-1.66-9.93s-6.62-6.62-12.41-9.93L734.07,221c-9.93-6.63-16.55-11.59-19.86-15.73-5-7.45-5.8-15.72-2.49-26.48a35.82,35.82,0,0,1,18.21-19.86c9.1-3.31,19.86-3.31,33.1,1.65,10.76,4.14,19,9.93,24.83,19,5.8,8.27,6.62,18.2,3.31,29.79l-20.69-7.45c1.66-6.62.83-11.59-3.31-16.55-2.48-3.31-6.62-5-11.58-7.45-5.8-1.65-10.76-2.48-14.9-1.65s-6.62,3.31-8.28,7.44a8.82,8.82,0,0,0,1.66,9.94,113.16,113.16,0,0,0,11.59,9.1l16.55,10.76c7.45,5,12.41,9.1,14.89,14.07,4.14,7.44,5,15.72,1.66,24.82s-9.93,15.73-19.86,19.87c-9.11,3.31-20.69,3.31-33.93-1.66S701.79,259,696,249.93s-6.62-19-2.48-29.79l22.34,8.27Z"/><path class="cls-2" d="M864,319.45c8.28-2.48,16.55-8.28,24-18.21s10.76-19,10.76-28.14c0-8.27-4.14-15.72-11.59-21.51s-14.89-7.45-24-5c-8.27,2.48-16.55,8.28-24,18.21s-10.76,19-10.76,28.14c0,8.27,4.14,15.72,11.59,21.51a31.33,31.33,0,0,0,24,5ZM865.66,341c-11.59,1.65-24-1.66-36.42-11.59-12.41-9.1-19.86-19.86-21.52-32.28-2.48-14.89,2.49-30.62,14.07-46.34,12.42-16.55,25.66-24.83,40.55-26.48,11.59-1.66,24,1.65,36.42,11.58,12.41,9.11,19.86,19.86,21.52,32.28,2.48,14.89-1.66,30.62-14.07,46.34C893.79,331,880.55,339.31,865.66,341Z"/><path class="cls-2" d="M980.69,342.62q18.62,5,29.79,22.35,14.89,23.58,5,44.69a42.28,42.28,0,0,1-14.1,17.34l-11.59-19.86a36.09,36.09,0,0,0,7.45-10.76c1.66-5.79.83-12.41-3.31-19.86s-10.76-10.76-19-11.58-17.38,2.48-28.14,8.27c-10.76,6.62-17.38,13.24-19.86,20.69a24.66,24.66,0,0,0,2.48,21.52C933.55,422,939.34,426.18,946,427c3.31.83,8.28,0,14.07-1.65l11.59,19.86c-11.59,4.14-22.35,5-33.11,1.66s-19-9.93-25.65-21.52c-8.28-13.24-9.93-27.31-5.8-39.72,4.14-13.25,14.07-24,29-33.11,14.9-9.93,30.62-13.24,44.69-9.93Z"/><polygon class="cls-2" points="951.72 507.31 943.45 485.79 1047.72 447.72 1055.17 470.07 951.72 507.31"/><path class="cls-2" d="M1005.52,565.24l1.65,28.14,43-15.72-44.69-12.42Zm68.69-2.48,1.65,25.65L967.45,633.1l-1.66-24.82L988.14,600l-2.48-40.55-23.18-6.62-1.65-24Z"/><polygon class="cls-2" points="1072.55 684.41 1066.76 706.76 979.03 684.41 965.79 737.38 945.93 733.24 964.97 657.1 1072.55 684.41"/></svg>