<svg id="Layer_1" data-name="Layer 1" xmlns="http://www.w3.org/2000/svg" viewBox="0 0 1200 300"><defs><style>.cls-1{fill:#6d6e71;}.cls-2{fill:#1a75bb;}</style></defs><title>logo-elo</title><path class="cls-1" d="M500.43,191.69v-29.5h22a7.46,7.46,0,0,0,2.05,5.41,15,15,0,0,0,4.83,3.36,24,24,0,0,0,5.74,1.72,30.06,30.06,0,0,0,4.75.49,11.75,11.75,0,0,0,4.84-1.06c1.58-.71,2.37-2.22,2.37-4.51a3.54,3.54,0,0,0-2.13-3,25.06,25.06,0,0,0-5.49-2.21q-3.36-1-7.7-2.05t-8.77-2.54a52.35,52.35,0,0,1-8.11-3.61,31,31,0,0,1-7-5.24,22.94,22.94,0,0,1-4.92-7.38,25.53,25.53,0,0,1-1.8-10A19.54,19.54,0,0,1,504,120.81a24.38,24.38,0,0,1,7.21-7.37,32.78,32.78,0,0,1,9.34-4.26,35.06,35.06,0,0,1,9.42-1.39A30.35,30.35,0,0,1,545,111.55q6.71,3.78,9.34,9l1.31-10.82h20.15v29.5h-21.3a8.58,8.58,0,0,0-1.47-4.84,15.62,15.62,0,0,0-3.86-3.93,19.18,19.18,0,0,0-5.32-2.7,19,19,0,0,0-6.06-1,7.36,7.36,0,0,0-4.51,1.4,5.22,5.22,0,0,0-1.89,4.5,3.69,3.69,0,0,0,1.64,3,19.78,19.78,0,0,0,4.51,2.37c1.91.77,4.07,1.53,6.47,2.3s4.92,1.58,7.54,2.45q4.59,1.65,9.34,3.53a35.48,35.48,0,0,1,8.52,4.75,22.66,22.66,0,0,1,6.15,7.21,22.17,22.17,0,0,1,2.37,10.73,21,21,0,0,1-2.53,10.33,25,25,0,0,1-6.72,7.78,29.69,29.69,0,0,1-9.75,4.84,40.58,40.58,0,0,1-11.48,1.63,32,32,0,0,1-15.48-3.6q-6.65-3.6-9.59-8.36l-1.47,10Z"/><path class="cls-1" d="M667.58,180.38a55.06,55.06,0,0,1-19.33,11.06,76.4,76.4,0,0,1-23,3.2,49,49,0,0,1-15.4-2.54,40.09,40.09,0,0,1-13.85-7.87A40.69,40.69,0,0,1,586,170.47Q582,162,582,150.23a44.86,44.86,0,0,1,3.44-17.95,40.71,40.71,0,0,1,9.34-13.52,39.52,39.52,0,0,1,13.93-8.44,51.34,51.34,0,0,1,17.37-2.86,49.76,49.76,0,0,1,13.69,1.8,45.63,45.63,0,0,1,11.39,4.92,33.92,33.92,0,0,1,8.68,7.53,31.88,31.88,0,0,1,5.41,9.51q.65,2.13,1.31,5.41a52.55,52.55,0,0,1,.9,7,46.42,46.42,0,0,1-.16,7.79,29.52,29.52,0,0,1-1.72,7.45H614a34.72,34.72,0,0,0,1.06,3.94,13,13,0,0,0,2.54,4.42,14.43,14.43,0,0,0,4.92,3.61,19.8,19.8,0,0,0,8.36,1.47c1.41,0,3,0,4.67-.16a27.07,27.07,0,0,0,5.49-1,38,38,0,0,0,6.22-2.37,30.6,30.6,0,0,0,6.56-4.34Zm-40.47-50.8a11.43,11.43,0,0,0-6.15,1.48,12.3,12.3,0,0,0-3.77,3.52,13.43,13.43,0,0,0-2,4.34,28.79,28.79,0,0,0-.74,3.77h24.74a22.81,22.81,0,0,0-.49-4.67,12.36,12.36,0,0,0-1.72-4.26,8.61,8.61,0,0,0-3.6-3A14.58,14.58,0,0,0,627.11,129.58Z"/><path class="cls-1" d="M720.51,191.69H674.14V170.22h7.21V131.06H674.3V109.75h30.81L710,120.24c1.1-2,2.24-3.82,3.45-5.57a19.34,19.34,0,0,1,4.59-4.67,21.08,21.08,0,0,1,6.88-3.2,40,40,0,0,1,10.49-1.15v29.5q-11.14,0-17.13,3.69t-6,14.5v16.88h8.19Z"/><path class="cls-1" d="M792,165.14a18.2,18.2,0,0,1,.41-3.36c.27-1.36.63-2.87,1.06-4.51s1-3.33,1.56-5.08,1.23-3.44,1.89-5.08l7.86-16.55h-8.68V109.75h42.28v20.81h-8.53l-28.35,61.13h-25.4l-30.48-61.13h-7.7V109.75H787.7v20.81h-8.19L787,147.93a100,100,0,0,1,2.79,9.67q1.14,4.92,1.47,7.54Z"/><path class="cls-1" d="M844.23,116.63q2.46-1.47,6.23-3.44t8.44-3.85a67.61,67.61,0,0,1,10-3.11A49,49,0,0,1,880,105a78.31,78.31,0,0,1,15.24,1.56,45.12,45.12,0,0,1,14.34,5.4,31.9,31.9,0,0,1,10.65,10.41q4.18,6.55,4.18,16.39v32h9.83v21H899.13l-3.93-7.38a23.21,23.21,0,0,1-5.16,5.17,26.16,26.16,0,0,1-5.9,3.19,32.2,32.2,0,0,1-6,1.64,31.32,31.32,0,0,1-5.08.49,42.23,42.23,0,0,1-11.64-1.64,33.34,33.34,0,0,1-10.32-4.91,24.42,24.42,0,0,1-10.33-20.81A28.09,28.09,0,0,1,843.5,155a28.61,28.61,0,0,1,7.37-9.5,33.47,33.47,0,0,1,10.9-6.07,40.21,40.21,0,0,1,13.11-2.13,26.1,26.1,0,0,1,6.47.74,26.69,26.69,0,0,1,4.92,1.72,17.46,17.46,0,0,1,3.28,2c.81.65,1.33,1.09,1.55,1.31v-5.74q0-5.57-4.42-7.37a29.81,29.81,0,0,0-11.15-1.8A36.1,36.1,0,0,0,862,130.56a99.34,99.34,0,0,0-10.89,5.08Zm36.38,56.87a11.82,11.82,0,0,0,6.56-1.8,12.86,12.86,0,0,0,3.93-3.61v-6.23a7.64,7.64,0,0,0-.74-1.06,8.21,8.21,0,0,0-1.72-1.56,12.69,12.69,0,0,0-2.86-1.47,12.29,12.29,0,0,0-4.35-.66c-3.27,0-5.68.82-7.21,2.46a8.76,8.76,0,0,0-2.29,6.23,7,7,0,0,0,2.46,5.57A9.16,9.16,0,0,0,880.61,173.5Z"/><path class="cls-1" d="M997,90.09h-7.54V68.78h40.81v101.6h7.87v21.31H999.75L997,185.63a21.16,21.16,0,0,1-2.54,2,27.46,27.46,0,0,1-4.34,2.46,35.55,35.55,0,0,1-6.06,2.13,30.56,30.56,0,0,1-7.71.9,34.67,34.67,0,0,1-15.73-3.52,36.41,36.41,0,0,1-12-9.5A44.2,44.2,0,0,1,941,166.29a50.17,50.17,0,0,1-2.7-16.39,46.12,46.12,0,0,1,3.11-17.29,39.94,39.94,0,0,1,8.36-13.19,37.07,37.07,0,0,1,12.12-8.36,36.37,36.37,0,0,1,14.42-3q8.69,0,13.52,2.38a76.16,76.16,0,0,1,7.13,3.85ZM973.53,149.9a32.84,32.84,0,0,0,.82,7.37,23.62,23.62,0,0,0,2.37,6.4,16.35,16.35,0,0,0,3.69,4.58,7.36,7.36,0,0,0,4.92,1.81,8.25,8.25,0,0,0,4.67-1.48,12.92,12.92,0,0,0,3.85-4.18,21.1,21.1,0,0,0,2.46-6.55,36.81,36.81,0,0,0,.65-8.77,29.37,29.37,0,0,0-1-7.7,24.88,24.88,0,0,0-2.62-6.31,13.53,13.53,0,0,0-3.77-4.18,7.7,7.7,0,0,0-4.43-1.47q-5.24,0-8.44,5.57T973.53,149.9Z"/><path class="cls-1" d="M1088.07,193.82a54.84,54.84,0,0,1-17.12-2.7,43.29,43.29,0,0,1-14.67-8.12A39.48,39.48,0,0,1,1046,169.4a42.63,42.63,0,0,1-3.69-19,41.51,41.51,0,0,1,3.85-18.27,40.78,40.78,0,0,1,10.17-13.36,44,44,0,0,1,14.33-8.19,50.11,50.11,0,0,1,16.56-2.78,57.55,57.55,0,0,1,17.94,3,39.66,39.66,0,0,1,23.93,22,46.73,46.73,0,0,1,3.68,18.27,42.52,42.52,0,0,1-3.36,18.11,39.39,39.39,0,0,1-9.58,13.43,41.38,41.38,0,0,1-14.26,8.36A52.81,52.81,0,0,1,1088.07,193.82Zm0-21a7.26,7.26,0,0,0,4.68-1.64,13.61,13.61,0,0,0,3.52-4.58,26.2,26.2,0,0,0,2.21-7,47.67,47.67,0,0,0,.74-8.6q0-9.35-3.12-15.57t-8.84-6.39a7.06,7.06,0,0,0-4.51,1.64,13.31,13.31,0,0,0-3.52,4.59,30.26,30.26,0,0,0-2.38,6.88,37.39,37.39,0,0,0-.9,8.36q0,10.16,3.44,16.22T1088.07,172.84Z"/><path class="cls-1" d="M1185.09,191.69h-46.38V170.22h7.21V131.06h-7.05V109.75h30.81l4.92,10.49c1.09-2,2.24-3.82,3.44-5.57a19.34,19.34,0,0,1,4.59-4.67,21.18,21.18,0,0,1,6.88-3.2,40,40,0,0,1,10.49-1.15v29.5q-11.14,0-17.13,3.69t-6,14.5v16.88h8.2Z"/><path class="cls-1" d="M0,79.64H98.82v36.21H70.47V101.27H44.25v22.61H75.38v21.8H44.25v26.71H70.47V157.15H98.82v37H0V172.39H10.32V101.27H0Z"/><path class="cls-1" d="M149.17,191.21q-10-26.29-10-61.86a162.15,162.15,0,0,1,6.05-45.17V71.28h-38V92.42h6.89v80.3h-7v21.46h43.33Q149.74,192.71,149.17,191.21Z"/><path class="cls-2" d="M274.49,257.23a150.07,150.07,0,0,1-49.6-7.91,105.11,105.11,0,0,1-39.1-23.77q-16.35-15.84-25.48-39.78t-9.13-56.32q0-27.9,8.78-51a116.81,116.81,0,0,1,24.8-39.78A110.46,110.46,0,0,1,223,12.86q22.22-9.12,49.08-9.12,31.68,0,54.94,9.12T365.59,38.7q15.32,16.71,22.73,40.46t7.4,52.7q0,29.28-7.92,52.53t-23.42,39.43a102.11,102.11,0,0,1-38.06,24.8Q303.76,257.23,274.49,257.23Zm0-54.07A22.61,22.61,0,0,0,289.12,198a43.05,43.05,0,0,0,11-14.47,83.92,83.92,0,0,0,7.06-22.39,162,162,0,0,0,2.42-29.28,182.14,182.14,0,0,0-2.24-29.45,94.08,94.08,0,0,0-6.89-23.76,43.46,43.46,0,0,0-11.88-16,26.57,26.57,0,0,0-17.23-5.85,21.72,21.72,0,0,0-14.29,5.33q-6.37,5.36-11,15a94.55,94.55,0,0,0-7.24,23.07,155.49,155.49,0,0,0-2.58,29.28,145.55,145.55,0,0,0,2.93,30.49,93,93,0,0,0,7.92,23.24q5,9.65,12.06,14.82A25.44,25.44,0,0,0,274.49,203.16Z"/><ellipse cx="274.88" cy="291.03" rx="75.41" ry="5.24"/><path class="cls-1" d="M492.16,135.4A41.36,41.36,0,0,0,485,121.63a35.36,35.36,0,0,0-11.88-9.58,35.92,35.92,0,0,0-16.47-3.61,36.44,36.44,0,0,0-6.23.57,38.18,38.18,0,0,0-6.23,1.64,31.92,31.92,0,0,0-5.32,2.46,13.13,13.13,0,0,0-3.69,3V68.78H397.83q.94,2.63,1.79,5.33,8.13,26.11,8.14,57.89,0,32.16-8.71,57.7c-.23.67-.49,1.32-.73,2h34.11l2.45-5.57a36.33,36.33,0,0,0,3.53,2.78,24.29,24.29,0,0,0,4.34,2.38,25.9,25.9,0,0,0,5.74,1.64,47.8,47.8,0,0,0,8,.57,38.26,38.26,0,0,0,15.56-3,34.07,34.07,0,0,0,11.8-8.52,38.56,38.56,0,0,0,7.62-13.28,55.1,55.1,0,0,0,2.87-17.28A51,51,0,0,0,492.16,135.4Zm-37,31.22q-3.19,5.56-8.44,5.57a7.61,7.61,0,0,1-4.42-1.48,13.3,13.3,0,0,1-3.77-4.18,24.61,24.61,0,0,1-2.62-6.22,28.78,28.78,0,0,1-1-7.79,29.77,29.77,0,0,1,.58-8.76A22.23,22.23,0,0,1,438,137.2a12.91,12.91,0,0,1,3.85-4.18,8.29,8.29,0,0,1,4.67-1.47,7.47,7.47,0,0,1,4.83,1.8,15.63,15.63,0,0,1,3.77,4.59,23.83,23.83,0,0,1,2.38,6.47,34,34,0,0,1,.82,7.29Q458.32,161,455.12,166.62Z"/></svg>